<?xml version="1.0" encoding="utf-8"?>
<!-- Generator: Adobe Illustrator 22.1.0, SVG Export Plug-In . SVG Version: 6.00 Build 0)  -->
<svg version="1.1" id="Layer_1" xmlns="http://www.w3.org/2000/svg" xmlns:xlink="http://www.w3.org/1999/xlink" x="0px" y="0px"
	 viewBox="0 0 508.2 495.2" style="enable-background:new 0 0 508.2 495.2;" xml:space="preserve">
<style type="text/css">
	.st0{fill:#CA3927;}
	.st1{fill:#991C1E;}
	.st2{fill:#CC2227;}
	.st3{fill:#CE4728;}
	.st4{fill:#CA3827;}
	.st5{fill:#CCBFBE;}
	.st6{fill:#F26822;}
	.st7{fill:#F8991D;}
	.st8{fill:#F58020;}
	.st9{fill:#F05523;}
	.st10{fill:#EB1F25;}
	.st11{fill:#FFCD34;}
	.st12{fill:#D22127;}
	.st13{fill:#F4AB3E;}
	.st14{fill:#ED2224;}
	.st15{fill:#F8981D;}
	.st16{fill:#FFFDF7;}
	.st17{fill:#FFFDF9;}
	.st18{fill:#F26922;}
	.st19{fill:#FFF4DB;}
	.st20{fill:#FFFCF6;}
	.st21{fill:#FFF5DE;}
	.st22{fill:#EF4024;}
	.st23{fill:#991C1F;}
	.st24{fill:#F58120;}
	.st25{fill:#FFCD07;}
	.st26{fill:#F8971E;}
	.st27{fill:#D94C27;}
	.st28{fill:#FFEFCA;}
	.st29{fill:#E75225;}
	.st30{fill:#F78F1F;}
	.st31{fill:#ED2225;}
	.st32{fill:#871819;}
	.st33{fill:#EA2225;}
	.st34{fill:#CF5628;}
	.st35{fill:#EDBDAA;}
	.st36{fill:#EC2225;}
	.st37{fill:#1F100C;}
	.st38{fill:#FFFEFD;}
	.st39{fill:#FFFFFF;}
	.st40{fill:#DA7027;}
	.st41{fill:#F7E1D5;}
	.st42{fill:#38110E;}
	.st43{fill:#3C110D;}
	.st44{fill:#3C1710;}
</style>
<path class="st0" d="M264.1,0.1c8,5.1,15.5,10.6,22.1,17.5c7.3,7.6,13.5,15.9,17.8,25.5c1.5,3.4,3.6,5.2,7.1,6
	c6.9,1.5,10.2,5.3,9.8,12.3c-0.4,5.9,2.1,7.8,7.3,9.9c13.4,5.3,27.6,7.9,42,7.7c3.1,0,6.2-0.7,9.3-0.9c1.8-0.1,1.5-1.3,1.6-2.4
	c0.6-4.9,3.8-8.2,7.1-11.3c2.5-2.3,5.4-1.2,8.1-1.1c2.8,0.1,5.5-1,7.3-3.1c11.5-11.6,25.6-20.2,41.1-25.3c3.4-1.1,6.9-1.8,10.5-1.8
	c1.9-0.1,3.6,0.8,4.5,2.5c1.1,1.8-0.3,3.5-1.2,4.4c-2.2,2.4-4.8,4.5-7.2,6.7c-9.4,8.2-17.7,17.6-23.8,28.6c-0.7,1.3-1.6,2.4,0.1,4.1
	c6.9,6.7,6.9,18.8-4.2,25.2c4,3.6,5.1,3.7,9.3,0.4c19.5-15.4,41.6-22.5,66.4-20.7c3,0.2,6,1.3,8.9,1.9v4l-10.9,3.1
	c-1.1,0.6-2.3,1.1-3.6,1.2c-13.6,0.8-25.8,5.9-36.8,13.6c-8,5.4-15.1,12-21.1,19.6c-1.2,1.5-2.5,2.9-3.9,4.2c-0.9,0,0.2,0.9,0.1,0.2
	l0.5-0.1c0.5-0.1,1-0.1,1.5-0.1c17.8-2.1,35.7,1,51.7,9c2.5,0.9,4.1,3,6.3,4.4c2.2,2.5,5.9,3,7.4,6.6c1.2,2.7,0.9,3.3-2,3.5
	s-5.4-1.1-8.2-1c-1,0-2-0.2-2.9-0.5c-14.9-4.9-29.9-4.4-45.2-0.2c1.7,1.3,3.4,1.6,4.8,2.5c10.4,5.3,19.7,11.9,26.6,21.5
	c0.8,1.9,2,3.6,2.5,5.6c1.5,3,3.7,5.8,4.1,9.2s-1.8,5.4-4.5,3.4c-2.8-2.2-3.4-0.6-5.7,0.7c-4.2,2.3-9,3.2-13.7,2.8
	c-1.8,1.3-1.3,3.1-1.2,4.9c1.3,4.5,2.4,9.1,2.2,13.9c-0.1,1.3-0.4,2.4-1.4,2.9c-1.4,0.7-2-0.7-2.8-1.5c-3.2-3.1-4-7.7-6.7-11.2
	c-1.1-1.4-2.3-2.6-3.5-4c-2,6.9-0.4,11.8,5,16.3c5.1,4.4,8.7,10.1,10.5,16.5c0.5,1.8,0.5,3.7,0,5.5c-0.6,3.6-0.3,7.2,0.7,10.6
	c-0.2,0.8-0.8,1.5-1.6,1.9c-0.7,0.4-1.6,0.7-2.5,0.7c-1.1-0.1-2.2-0.4-3.2-0.9c-0.9-0.4-1.7-0.9-2.3-1.6c-0.8-0.9-1.2-2.2-1.1-3.4
	c1.5-7,1.5-7-4.9-10.6c-2.3-1.3-4.7-2.4-7.2-3.3c-7.8-2.6-13.3,2-12,10.1c0.8,4.6,1.8,9.1,0.7,13.8c-0.3,1.2-0.7,2.4-1.3,3.5
	c-1.5,2.1-3.3,3.3-5.8,1.6c-1-0.8-1.9-1.7-2.8-2.7c-0.2-0.2-0.4-0.5-0.6-0.8c-4.7-11.3-13-16.1-25.1-13.8c-7.8,0-15.6-0.1-23.3,1.1
	c-3.4,0.5-5.4,1.7-5.7,5.5c-0.4,4.8-1,9.6-1.9,14.3c-2.8,15.7-8.4,30.8-16.6,44.5c-3,5.2-5.3,10.7-8.1,16c-1.2,1-2.3,0.6-3.4-0.3
	c-4.5-7.7-11.6-12.5-18.7-17.2c-1.7-1.1-3.4-2.1-5.2-2.9c-14.3-7.2-29.5-10-45.5-9.1c-2.7,0.1-5.3,0.9-7.6,2.3
	c-10.6,6.2-19.4,14.5-27.9,23.8c3.6,0.4,6.6,0.9,8.4-3c0.9-2,3-2.6,5.1-2.3c3.8,0.5,7.7,0.6,10.7,3.6c0.8,1.4,0.5,3.2-0.7,4.2
	c-3.7,1.3-6-2.4-9.5-2.4c2.7,3.9,3.2,10,10.1,9.2c1.4,1.5,2.4,3.1,2,5.2c-1,1.2-2.4,0.7-3.7,0.9c-4.5,0.7-5.9,4-3.6,7.9
	c1.6,2.6,4.2,4.1,6.4,6.2c9.6,8.4,11,20.1,13,31.6c1.9,11.1-0.2,22.2-0.6,33.3c-0.4,10.7,2.4,21.6,12.4,24.9c5.9,1.5,9.6-2,12.5-6.1
	c6.8-9.6,10.6-20.9,11.1-32.6c1.1-21.9-4.5-42.5-12.6-62.5c-1.8-4.4-4.2-8.4-9.3-9.6c-1.8-0.5-3.7-0.7-5.2,0.7s-1,3.4-0.4,5.1
	c1.3,4.4,4.8,7.1,8.1,9.9c3.3,2.6,5.7,6.1,7.2,10c0.6,1.6,1,3.6-0.7,4.5c-2,1.1-3.1-0.9-3.7-2.3c-2-4.4-5.3-7.5-9-10.5
	c-6.2-5-8.7-11.5-6.7-19.5c1.2-1.3,2.9-1.8,4.4-2.6c10-1.2,15.8,2.1,19.9,11.8c7.8,18.2,12.9,37.2,13.4,57
	c0.4,15.6-2.7,30.8-12.2,43.9c-2.6,3.9-6.5,6.8-11,8.2c-3.4,0.9-6.6,0.1-9.8-0.7c-7.9-3.5-10.3-7.4-13.5-22.3
	c-15,14.4-31.4,26.9-50.2,35.9c-20.8,10-43.5,15.3-66.6,15.6c-10.5,0.1-21,0.6-31.4-1c-3.7-0.6-4.1,0.9-2.6,3.8
	c0.3,1.1,0.5,2.2,0.4,3.3c-0.4,4.3-3.1,5.9-7.1,6.1c-7.9,0.3-15.5-1.5-23.1-3.1c-14-2.9-27.7-7.1-40.8-12.7
	c-1.5-0.6-3.1-1.1-4.1-2.6c-6.2-4.5-13.6-6.5-19.9-10.9c-1.5-1-2.9-2.2-4-3.6c-1.3-1.9-2.6-3.9-1.7-6.6c1.1-3.1,3.5-1.9,5.4-1.9
	c13.4,0.4,26.9-0.1,40.2-1.3c12.1-1,24.4-1.7,36.3-4.7c2.4-0.6,3.6,1,4.6,2.9c1.2,2.3,2.5,2.8,5.4,2.1c20.6-4.3,39.8-12.1,58-22.3
	c0.6-0.4,1-1.2,1.6-1.8c-0.7-1.9-2.8-1.8-4-3c-7.1-6.5-7-15-5.2-23.1c2.3-10.2,6.3-19.9,8.7-30.1c2.1-8.6,2.7-17.5,0.6-26.3
	c-0.8-3.4-3-6.1-4.9-8.9c-2.5-3.4-3.9-7.5-3.9-11.7c1.4-3.3,3.2-6.4,3.8-10c-0.9-2.3-0.4-5.1-2.5-7.1c-0.9-1.1-0.9-2.6,0-3.7
	c1-1.5,2.6-1.4,4-0.9c3.4,1.1,6.8,2.3,8.6,5.7c0.7,1,0.4,1.8-0.6,2.5c-2.9,0.5-4.2-2.5-6.9-3.1c0.3,4.1,0.6,8,5.5,9.3
	c0.8,0.5,0.7,1.8,1.7,2c0.4,0.1,0.4-1,0.7-1.5c0.9-1.5,2.2-2.7,3.9-3.2c-1.1-1-2.4-1.6-2.8-3.1c-0.2-1.8,0.6-3.3,1.4-4.8
	c-0.1-2.2,0.6-4.5-0.8-6.6c-1-1.6-2-3.5-0.5-5.4s3.2,0,4.9,0.1l1.5,0.1h0.7c4.4,1.1,7,4.1,9.1,8c0.3,1.1,0.9,2.2,1.2,3.3
	c0.2,1.4,0.1,2.8-0.2,4.1c-0.1,2-2.2,3.5-1.5,5.7c1.8,0,0.4-1.2,0.7-1.8c0-1.1,0.2-2.2,0.6-3.3c0.4-1.6,0.5-3.2,0.3-4.9
	c-0.2-1.2-1-2.3-1-3.6c0.6-5.5,2.9-6.9,7.8-4.6c4.5,2.1,8.1,5.9,9.9,10.5c0.4,1,0.6,2,0.8,3.1c0.5,1.5,0.6,3.1,0.2,4.6
	c-0.1,0.3-0.2,0.8-0.4,0.9c-6.1,3.4-4,7.7-2.9,13.2c3.1,15.5,4.9,31.2,0.4,45.6c-0.5,1.8,0.8,1.3,0.1,1.3c-0.3,0-0.4-0.1-0.4-0.3
	c2.5-14.3,8-27.9,16.2-39.9c0.9-1.2,1.7-2.4,2.5-3.6c6.9-9.4,15.1-17.9,24.3-25c2-1,3.4-3,3.6-5.2c1.9-4.9,4.7-9.4,8.4-13.2
	c1.4-1.5,2.8-3.4,5.4-2.5c0.5,0.5,0.8,1.3,0.8,2c-1.3,4.6-6.2,6.7-7.8,11.4c3.6-2.1,7.2-4,10.2-6.8c1.9-1.1,3.7-2.5,5.2-4.2
	c3.4-2.3,6.5-5,9.1-8.2c8.1-7.8,14.4-16.8,17.3-27.8c2.2-8.3,1.6-9.3-5.9-13.3c-1.2-0.8-2.4-1.6-3.7-2.2
	c-10.1-5.1-21.2-7.9-31.8-11.8c-1.1-0.4-2.3-0.5-3.4-0.5c-1.3,0.1-2.6,0.5-3.8,1.2c-0.8,0.4-1.6,0.8-2.3,1.3
	c-0.9,0.7-1.6,1.7-2.1,2.8c-1.1,7.5-1.6,15.1-1.6,22.6c0.1,2.4,0.3,4.9-0.9,7.3c-3.7,0.7-2.8-2.3-2.8-3.9
	c-0.2-6.6-0.1-13.3-0.1-19.9c0-0.8,0.9-2-0.6-2.4c-2.4,1.7-4.7,3.4-7.9,2.3c-1-0.5-1.7-1.3-2-2.4c-0.2-0.8-0.3-1.6-0.3-2.4
	c0.1-1.1,0.5-2.1,1-3c2.9-5.2,4-11.3,8.4-15.8c0.1-0.1,0.2-0.2,0.3-0.4c0.5-1.6-6.9-10.6-8.7-10.8c-6.5-0.5-12.7,0.7-18.9,2.6
	c-2.9,0.9-5.4,0.5-7.3-1.4c-2.3-2.3,0.3-4.4,1.3-6c4.1-6.2,10.3-9.9,16.8-13c4.2-2,7.6-4.1,7.4-9.6c-0.1-1,1.1-2-0.2-2.9
	c-1.2-0.7-2.2,0.3-2.9,0.9c-3.2,2.6-5.5,6.2-9.2,8.2c-1,0.6-1.8,1.7-3,1.2c-1.7-0.7-0.9-2.4-0.8-3.5c0.4-4,2.8-7.2,4.7-10.6
	c1.7-2.9,0.9-4.2-1.9-5.5c-2.2-0.9-4.4-1.9-6.5-3.1c-3.4-2.1-5.1-4.5-4.1-8.7c-1.3,0.2-2.6,0.4-3.9,0.5c-2.8,0-3.9-0.7-2.5-3.9
	c1.4-3.3,4.4-5.3,6.3-8.1c2.3-1.4,3.4-4.2,5.9-5.4c9.9-6.2,21.2-10,32.8-10.9c1.7-0.1,3.3,0.1,4.9,0.5c-23.4-13.1-28.6-14.9-45.1-16
	c-1.2,0.1-2.4-0.8-3.6-0.4c-2.7,1-5-1.3-7.6-0.9c-1,0.2-1.4-0.5-1.4-1.5c-0.1-1.6,0.3-2.8,2-3.5c2.7-1,5.3-2,8-3.1
	c2.2-0.4,4-2,6.3-2.2c18-2.9,35.2,0.1,51.9,6.9c0.6,0.3,1.2,0.6,1.8,0.9c-2-13.1-19.1-43.6-45.2-54.3c-1.6-0.9-3.1-2-4.5-3.2
	c-2.2-1.4-4.3-2.8-6.5-4c-1.4-0.7-2.1-2.3-1.6-3.8c0.4-2.1,2.1-1.2,3.2-1.2c11.8,0.5,22.2,5.2,32.2,11c13,7.6,23.9,18.4,31.6,31.4
	c1.6,2.6,2.3,2.7,7.6,2.4c-4.6-6.7-5.3-13.4-0.6-20.2c0.5-0.7,1-1.6,1.6-1.8c8-2.6,5.5-8.3,3.9-13.5c-3.4-11.5-8.4-22.4-15-32.4
	c-2.1-3.2-4.5-7.1-0.6-11L264.1,0.1z"/>
<path class="st1" d="M223.1,231.1l1.1,2.1c-2.2,5-7.1,7.2-10.9,10.5c-13.1,11.3-23.8,24.4-33.3,38.7c-1.2,1.5-2.2,3-3.1,4.7
	c-1.9,1.9-2.6,5.9-6.8,4v0.1c-0.3-6,3.7-10.3,6.5-14.8c7.9-12.7,17-24.7,27.9-35.1c5.7-5.5,11.9-10.6,18.5-15.2l0.1,3.1
	c-1.1,1.7-2.5,3.1-4.2,4.1c-0.4,0.4-1,0.4-1.2,1c0.5-0.4,1-0.8,1.5-1.2C220.6,232.6,221.2,230.5,223.1,231.1z"/>
<path class="st1" d="M200.1,94.1c-2,0.3-3.9,1.4-6.1,0.9c7.6-5,14-11.2,17-19.9c3.9-11.3-0.3-21.3-6.1-30.8
	c-0.2-0.4-0.4-0.8-0.6-1.2l4.8,2c3.5,3.7,4.8,8.4,6.1,13.1c3.3,12.4-1,22.6-8.9,31.9C204.5,92.1,202.2,92.9,200.1,94.1z"/>
<path class="st1" d="M193.1,103.9c0.8-1.1,1.9-0.8,2.9-0.8c3.6,1.9,6.4,4.8,8.2,8.4c3.3,6.9,5,13.7-0.2,20.5c-2.3,0.9-3.1,3.9-5.8,4
	C206.8,124,204.2,113.6,193.1,103.9z"/>
<path class="st1" d="M163.2,314.1l-0.3,4.8c-2.6-1-2.7-2.9-2.8-4.9c-1.6-2.6-0.8-4.8,1-6.9c0.9-0.4,1-1.3,1.1-2.1l2.9-2
	c0.3,1.7,0,3.5-0.9,5.1C164.9,310.3,164.2,312.2,163.2,314.1z"/>
<path class="st1" d="M152,311c1.3,4.3-1.4,7.1-3.8,10C148.9,317.5,148.5,313.5,152,311z"/>
<path class="st1" d="M153,421.2c1.8,0,3.5,0.7,4.8,1.9c1.4,1-0.4,0.8-0.8,1.1C154.9,424.2,154,422.6,153,421.2z"/>
<path class="st2" d="M332.1,329.1c2.2-8.8,7-16.5,11.3-24.3c5.7-10.3,9.3-21.2,11.7-32.5c0.2-1.1,0.7-2.2,1-3.3
	c0.5-0.4,0.9-1.1,1.5-1.3c11.5-2.6,19.7-10.9,29.4-16.7c3.8-2.2,5.7-1.9,9.3,2.1c0.1,0.5,0,1-0.2,1.4c-2.9,4.4-8.1,4.8-11.8,7.6
	c0.5,0.3,2.2,0.3,2.2,2c0,2.3-2.1,2.6-3.6,3.4c3.5-0.6,6.8-2,9.6-4.2c2.2-2,5.2-2.9,8.1-2.8c4.2,4,6.3,9.3,7.7,14.8
	c1.2,4.3,1.9,8.8,3.5,13c1.6,4.7,4.6,8.4,7.8,12c1.2,1.2,2.1,2.6,2.6,4.2c0.5,2,0.1,3.7-1.9,4.6s-2.6-0.4-3.2-1.9
	c-0.3-0.8-0.9-0.9-2.2-0.4c2.3,1.4-0.5,4,1.7,5.5c0.4,0.2,0.7,0.5,1,0.9c0.7,1.9-0.1,3.1-2,3.9c1.7,0,3.3-1.4,5.1-0.6
	c0.4,0.2,0.7,0.6,0.7,1.1c-2.1,2.6-1.9,4.4,1.7,5.1c1.3,0.3,2.6,0.4,3.6,1.5c1.5,3.6,0.4,7.5,1.7,11.2c1.7,5,5.4,8.6,8.3,12.7
	c0.2,0.8,0,1.6-0.4,2.3c-8.7,2.5-17.3,5.5-26.6,4.9c-1.1-0.2-2.3-0.3-3.5-0.3c-1,0.1-2.1,0.3-2.2,1.6c-0.1,1.6,1.1,1.9,2.3,1.9
	c1.9,0,3.6-0.7,5.3-1.1c9.8-2.3,14.3-0.4,19.3,8.4c1.6,2.9,3.7,5.5,6.2,7.7c1.1,2.7,3.6,4.8,3.9,7.9c-4.6,1.8-7.6-0.8-10.1-4.1
	c-1.6-2.1-2.5-4.7-3.7-7c-3.2-6-9.1-8.4-15-5.6c-4.7,2.2-9.1,3.4-13.5-0.4c-1.1-0.9-2.5-0.7-3.8-0.8c-1.9-0.1-3.9-0.2-4.7-2.4
	c-0.1-0.5-0.4-0.9-1-0.8c-0.6-0.5-0.8-1.3-0.7-2.1c1.1-3.6,4-5.1,7.4-5.9c4-0.4,7.7-1.9,11.7-2.6s4.9-3.2,2.9-7
	c-6-11.4-11-23.3-17.8-34.4c-1.8-3-4.7-4.7-6.8-7.3c-5-5.9-9.2-12.5-12.5-19.5c-2,6-2.6,11.2-1.5,16.6c0.3,1.4,1.4,2.9,0.1,4.2
	s-2.9,0.1-4.6-0.5c1.4,1.7,2.9,1.4,4.4,1.3c2.3,0,2.9,1.5,2.6,3.3c-0.3,2-1.9,2.8-3.7,2.1c-2.1-0.8-4.1-2-6.8-2.4
	c-0.6,3-1.4,5.6-5.3,2.2c-1.6-1.4-5.1,0.8-6.4-2.6c1.1,3.2,2.7,6,1.9,9.3c-0.8,4-0.8,4,2.9,5.7c-2.4-1.4-4.7-2.8-2.4-5.9
	c0.5-0.1,1.1-0.3,1.5-0.1c6.4,4.1,10.7-0.8,15.2-3.8c3.8-2.5,4.8-2.4,6.6,1.8c6,14.3,9.7,29.2,9.9,44.6c0.2,22-6.7,41.9-21.9,58.4
	c-10.5,11.4-22.1,21.7-35.8,29.3c-10.3,5.7-21.2,9.5-33.2,9.4c-1.8,0-3.7-0.3-5.4-1c-3.4-1.5-3.9-3-0.9-5.3
	c12.7-9.6,18.2-23.4,22-38.1c5-19,4.4-38.1,0.3-57.2c-0.4-1.9-1.1-3.8-0.9-5.9c0.9-2.5,3.3-4.1,6-4.1c2.5,1.4,3.3-1.3,4.9-2
	c0.9-0.3,1.8-0.4,2.7-0.2c2.5,0.8,3.1,2.7,3,6c0.3-2.1,0-3.3,0.8-4.3c6.2,0.1,10.1,4.4,14.3,8.1c7.8,7,14.7,14.8,20.6,23.4
	c0.3,0.4,0.6,0.8,0.8,1.3c0.7-0.3,0.1-0.8,0-1c-2.2-6.6-4.5-13.1-8.3-19.1c-1.1-1.7-2.8-3.4-2.2-5.8c1.5-0.9,2.8-0.2,4.1,0.3
	c6,3.2,9.8,8.7,14.3,13.4c-9.1-11.7-20.6-21.3-33.8-28C337,333.2,333.2,333,332.1,329.1z"/>
<path class="st1" d="M330.2,342.1c0.1,1,0.6,2.1,0.3,2.9c-0.6,1.3,0.5,4.1-1.9,3.8s-0.3-2.3-0.4-3.6c-0.1-1.7-0.2-3.3-2-4.1
	c-3.6-1.7-4-6.1-7.1-8.3c-1.1-0.9-2.2-1.9-3.2-3c-1.9-1.7-3.6-1.3-5.4-0.1s-1.1,2.9-0.6,4.5c1.2,3.9,3.9,7.4,3.3,11.8
	c3,11.6,5,23.4,4.8,35.3c-0.5,20-4,39.5-15.7,56.6c-3.4,5.1-7.9,9.4-13.2,12.4c4.8,3.3,9.5,3.3,14.2,2.6
	c17.2-2.8,31.7-10.9,44.8-22.2c11.2-9.7,21.9-19.8,29-33.1c4.9-9.2,8-19.3,9-29.7c2-19.2-2.4-37.4-9.2-55.1c-0.6-1.7-1.1-4.6-3.7-2
	c-5.5,5.5-11.3,9-19.1,4.3l0,0c-1-3.1-2.1-6.2-3-9.3c-0.3-1.3,0-3.1,1.5-3.2c2-0.2,1.2,1.4,1,2.5s0.6,2,1.2,1.8c2.7-0.9,5-1.7,6.5,2
	c0.2,0.6,1.6-0.6,1.1-1.8c-0.6-1.5-0.5-2.9,0.2-5.4c1.4,4.9,6.1,3,8.3,5.9c0.5,0.7,1.5,0.5,2.2-0.2c0.7-0.9,0.6-2.2-0.2-2.9
	c-0.5-0.4-1.1-0.6-1.8-0.5c-2.5,0.6-4.7,0.2-5.5-2.8c-0.4-1,0.1-2.1,1.1-2.5c1.1-0.4,1.1,0.8,1.4,1.5c0.6,1.4,1.6,2.5,3,1.6
	s-0.1-2.1-0.4-3c-2.2-6.6,0-12.7,2.2-20.1c2.3,4.3,3.8,7.7,5.8,10.7c3.9,5.9,9.7,10.7,13.3,16.4c5,8,11.3,15.7,13.8,25.1
	c1.2,4.5,3.5,8.1,5.9,11.9s1.2,6.6-2.8,7.8c-4.2,1.3-8.7,1.8-13,2.6c0.1-3.8,3.3-4.2,5.9-4.9c7.2-1.8,7.6-3.1,2.9-8.9
	c-2-2.4-4.5-4.5-6.4-7c-3.2-4.1-5.3-9-6-14.1c-0.6-4.7-2.9-7.6-7-9.5c-2.4-1.3-4.7-2.8-6.8-4.5c0.5,3,1.3,5.9,2.4,8.8
	c5.1,12.4,7.7,25.5,9.2,38.8c0.2,2.2-0.2,4.3-1,6.3c0,0.7,0,1.4,0,2.1c-0.1,9.1-2.3,18-4.2,26.8c-3.7,6.8-6.2,14.2-10.8,20.5
	c-11.2,15.1-25.2,27.7-41.4,37.3c-11,6.6-22.8,10.9-36,10.4c-3.1,0.1-6.2-0.7-8.9-2.2c-2.5-1.6-4.3-1.2-6.4,0.3
	c-19.7,14.2-41.7,25.1-65,32.1c-11.1,3.2-22.4,5.6-33.9,6.9c-7.6,1-15.2,0.6-22.8,0.8c-17.7,0.4-34.6-3.5-51.5-8.3
	c-1.1-0.4-2.2-0.6-3.3-0.6v-3c2-1.4,3.8-0.3,5.7,0.3c18.3,5.4,36.9,8.7,56.1,8.2c11.7-0.2,23.3-1.7,34.6-4.4c5.6-1.3,11.2-3,17-3.7
	c-3,0.4-6,1.4-9.1,0.3c-1.9-0.6-3.3-1.8-3.4-3.9c-0.1-1.8,0.3-3.4,2.6-3.5c0.3,0.1,0.6,0.2,0.8,0.3c0.5,0.1,0.6,0.7,1,0.9
	c-0.3-0.4-0.6-0.7-1-1c-2.1-3.6-0.2-4.2,2.9-4c1.2,1.9,3.4,3.1,3.3,5.8c0.4-2.5-1.9-3.7-2.9-5.5c-2.3-1.5-2.1-3.4-0.2-4.9
	c2.3-1.7,3.4-0.1,4.5,2c2.1,4.2,5.1,7.6,10.1,8.5c-3.6-1-5.7-4.1-8.3-6.5c-1.2-1.2-1.4-3.2-0.3-4.6c0.9-1.4,2.2-1.3,3.5-0.4
	c0.1,0.1,0.2,0.3,0.4,0.3c7.7,0.3,9.5,1,14.5,7.2c1.1,1.4,1.7,0.4,2.2,0.2c12.5-5.5,24.5-12.1,35.8-19.6c-1.1-2.6-5.2-1.7-5-5.1
	c3.3,0.4,6.6,1.5,10,0.9c10.8-2.1,17.3-9.6,22.1-18.5c7.3-13.5,11.2-28.6,11.5-44c0.4-15.1-0.8-29.9-6.2-44.2c-1.6-4-3.3-8-5.3-11.8
	c-3.9-6.4-9.7-10.4-16.8-12.6c-1-0.8-2.3-1.5-1.2-3.1c4.6-2,8.3,0.3,12.1,2.4c3.4,2.2,5.6,6,8.9,7.9s7.2-2,11.3-1.3
	c4.4,0.8,9,0.6,12.4,4.2l3,1.1c8.7,5.1,18,9.2,25.8,15.9c6.3,5.2,12,11,17,17.4c0.7,0.9,1.8,2.1,0.6,3c-1.5,1.1-2.3-0.7-3-1.6
	c-3.9-5.1-8.4-9.8-13.5-13.8c-1.8-1.2-3.5-2.4-5.1-3.8c-0.4-0.6-0.8,0.5-0.3,0c0.1-0.1,0.2,0,0.4,0.2c0.8,0.6,1.1,1.6,1,2.6
	c5.6,7.6,9.3,16.2,12,25.3c0.3,1,2,2.6,0,3.4s-1.7-1.5-2.3-2.5c-0.3-0.4-0.5-0.9-0.7-1.3c-4.9-9.3-8.8-19.3-15.9-27.4
	c-3.3-3.7-7.1-7-11.1-9.8c-2-1.4-3.5-2-4,1.3C332.6,339.7,331.6,341.2,330.2,342.1z"/>
<path class="st1" d="M400.1,261.1c-5.1,1.2-8.9,4.8-13.4,7c-1.3,0.7-2.8,1-4.2,1c-1.2,0-2.6-0.2-2.8-1.5c-0.3-1.9,1.5-1.3,2.5-1.4
	c1.3-0.1,3.1,0.1,3.4-1.4c0.5-2.3-1.8-1.3-2.7-1.8c-1.3-0.6-2.2-1.8-2.5-3.3c5.8,2.2,9.4-1.5,13.2-4.3c0.7-0.7,1.6-1.1,2.6-1.2
	c0.8,1.1,0.5,2.3,0.5,3.8c0.4-1.3,0.2-2.7-0.5-3.8c-2.8-3.3-5.2-4.1-9.5-1.3c-9.7,6.2-18.1,14.9-30.4,16.2c0.7-6.2,1.4-12.4,2-18.6
	c0.2-2.1,1.5-2.2,3-2.5c9.3-2.1,18.7-2,28.1-1.8c6,1.5,11.2,4.5,14.3,9.8c2.9,4.7,6,7.5,11.8,6.2l1.9,2.1c-0.4,2.5-2.6,1.9-4.2,2.4
	c-1.8,0.5-3.2,1.1-2,3.3c1.3,2,3,0.8,4.5,0.4c7.7-1.9,15.2-4.9,22-8.9c4.4-2.7,8.6-5.7,13.6-7.2l3,1c6.7,5.6,11,13.1,15.7,20.3
	c6.3,9.7,11.7,20,16.2,30.6c0.8,1,0.6,2.4,1.6,3.6c-0.9-1.4-0.9-2.9-1.9-4c-7.1-17.2-16.7-33.3-28.4-47.8c-0.9-1.1-2.6-1.9-1.3-3.7
	l1.8-1c18.4,21.7,30.7,46.5,38.3,73.8c2.1,7.5,3.5,15.1,5.2,22.6c0.5,2.2,0.1,3.9-1.3,4.3c-1.8,0.5-1.5-2-2.3-3
	c-0.9-1.2,0-3.2-1.7-3.9c-1-1.5-1.7-3.1-2.1-4.8c-6.2-25.2-18.5-50.9-37.3-77.5c-5.5,21.4-13.8,41.4-23.9,60.8
	c-1.3,2.2-1.6,4.8-1,7.2c0.3,1.2,0.4,2.4,0.3,3.6c1,4.5,4.5,6.2,8.4,6.8c6.2,0.9,12.4,2.5,18.8,2.1c3.1-0.2,5.2,1.5,6.8,3.9
	c-1.5,1.3-3,0.5-4.6,0.3c-6-1.4-12.2-1-18.3-2c-11.1-1.8-15.5-6.5-16.1-17.9c-0.1-1.8-0.7-3.6-0.5-5.4c0-0.1-0.1-0.2-0.2-0.4
	l-0.4,0.3c-0.5,0-1,0-1.5,0.1c-3,0.2-5.9-1-7-3.3s3.4-1.4,3.6-3.7c0.2-0.2,0.4-0.3,0.6-0.4c-0.1,0-0.3,0.1-0.6,0.4
	c-1.5-0.1-3,0.2-4.2,1.1c-2.4,1.4-3.4,0.1-4.5-2c1.9-0.9,5.5,1,4.7-3.1c1.2-1,2.9-0.3,4-1.3c-1.2,0.6-2.8,0.2-3.9,1.3
	c-1.6-0.1-3.6,0.5-4.4-1.4s1.1-1.4,2-1.7c0.2-0.1,0.3-0.4,0.4-0.6c-8.4-8.2,5.2-1.1,3-5c1.3,1.5-1.1,3.1,0.6,4.2
	c0.8,0.5,1.6-0.3,2.1-0.9c1.4-1.8,0.4-3.6-0.7-4.9c-3.7-4.2-7.7-8.2-9.2-13.8c-1.9-8.5-3.2-17.2-7.9-24.8
	C402.4,263,402.6,260.7,400.1,261.1z"/>
<path class="st0" d="M495,342c0.9,1.5,1.3,3.2,1.1,4.9c-7.4-5.9-15.1-11.5-24.1-14.8c-14-5.2-27.2-3.5-39.9,4.1
	c-1.2-0.6-1-1.9-1.1-2.9c5-5.1,11.6-6.3,18.1-7.2c16.7-2.3,31,3.9,44,13.7C493.9,340.3,494.6,341.1,495,342z"/>
<path class="st1" d="M491.9,145.1c-2.4-0.1-3.9-1.9-5.8-3c-9-9.1-10.4-24.6-3.5-37.9c2.8-4.4,5.7-8.6,10.5-11.1l4,0.1
	c-4,5.1-9.3,9-12.2,15.2c-6.3,13.1-2,24.1,5.7,34.8C491.1,143.8,491.5,144.4,491.9,145.1z"/>
<path class="st3" d="M466,364.2c1.8,2.4,3.1,5.5,1.8,8c-1.2,2.3-4.4,0.5-6.7,0.9c-1.6,0.1-3.2-0.2-4.7-0.8c-1.4-0.4-2.7-1-3.9-1.8
	c-3.6-3-2-6.2-0.6-9.5c1-1.6,2.4-3,4-4.1c3-0.3,4.1,2.6,6.4,3.5C463.7,361.5,465.4,362.3,466,364.2z"/>
<path class="st4" d="M448.1,383.3L443,382c-0.6-0.4-1.6,0-2-0.9c-2.4-1.7-4.2-3.7-4-6.9c0.5-4.6,4-5.2,7.6-5.7
	c2.6,0.4,3.5,3.1,5.7,4.1c1.3,1.3,3.3,2.2,2.9,4.6C453.4,380.7,453.1,383.9,448.1,383.3z"/>
<path class="st1" d="M487.1,153c0.9-0.1,1.7,0.4,2.1,1.1c-1.8,1.2-3.6,2.5-5.5,3.7c-9,6-11.5,12.6-8.7,23.2c0.1,0.7,0,1.3-0.1,2
	c-1.1-1.6-2.7-2.9-2.9-5.1c-3.7-4.8-1-9.4,0.5-14c0.8-2,2.1-3.8,3.6-5.3C479.4,156.2,482,152.2,487.1,153z"/>
<path class="st0" d="M462,348.2l4.2,0.8c1.3,0.8,2.6,1.7,3.9,2.6c2.5,2.1,3.3,4.4,0.1,6.6c-1.7,1.3-3.6,1.2-5.6,1.2
	c-3.9,0-7-1.4-7.9-5.6C457,351,459.2,348.7,462,348.2z"/>
<path class="st5" d="M453.3,377.1l-3.1-4c1.8-2.4,4.8-1.1,7-2c1,1.3,3.1,0.3,4,1.9C458.9,375,456.2,376.4,453.3,377.1z"/>
<path class="st5" d="M464.2,358.2l6,0.1c-0.2,2.8-2.3,4.3-4.1,5.9c-1.2-1.1-3.3-1-3.8-3C462.2,359.7,463.2,359,464.2,358.2z"/>
<path class="st1" d="M453.9,204.1c-0.8-1.9-3.3-4.3,1.2-4.9C455.1,200.9,455.4,202.7,453.9,204.1z"/>
<path class="st6" d="M319.1,77.1c2.1,0,1.9-1.6,2-3c-0.1-0.8,0.3-1.6,1-2c10.6,3.7,21.3,7.2,32.6,8.4c8.2,0.9,16.3,0.2,24.4,0.5
	c0.6,0.5,0.6,1.4,0,2l0,0c-0.2,0.8-0.8,1.8-0.5,2.3c0.6,1.1,1.7,0.6,2.6,0c3.2-2,2.9-5.2,3-8.4c0-6.8,4.9-12.2,10.7-11.9
	c1,0,2.7-0.5,2.8,1.2c0.1,1.2-1,2-2.3,2.3c-4.8,1.1-5.4,2.6-1.9,6.3c4.9,5.2,9.8,10.5,16.6,13.2c1.5,4.3,0.8,7.4-3.5,8.8
	c-10.6,3.4-17.5,11.2-24.1,19.3c-9.4,11.6-19.1,23.1-25.1,37c-5.3,12.1-7.6,25.3-6.7,38.5c0.1,1.3,0.5,2.7-0.6,3.8
	c-8,2.4-15.9,6-24.5,2c-2.4-1-4.8-2.3-6.9-3.9c-3.7-2.9-7.6-4.6-12.4-3.7c-0.8,0.1-1.7-0.1-2.4-0.6c-1.1-1.7-0.3-3.2,0.4-4.7
	c6.5-14.4,6.5-29.1,2.1-44.2c-4.4-15.3-8.3-30.8-15.6-45.1c-1.9-3.8-5.8-6.5-5.7-11.3c1.4-0.2,3,0.5,4.1-1c1.8-1.7,4-1.5,6.1-1.4
	c6.5,0.3,12.9-1.1,18.7-4.1C315.6,76.8,317.3,75.8,319.1,77.1z"/>
<path class="st7" d="M232.1,204.1c-8.9-11.7-10.6-24.4-4.9-38c4.1,0.4,6.1,3.6,8.8,6c0.7,1.4,2,1.6,3.4,1.6
	c12.8,0.7,24.4,5.3,35,11.9c5.8,3.6,11.1,6.5,18.2,6.3c5.1-0.1,5.2,0.7,3.8,5.7c5.5-8.3,13.4-10.3,21-4.7c8.6,6.3,17.6,8,27.7,4.1
	c3.9-1.5,7.5-1.3,10.5,1.9c1.6,3.6,0.3,6.6-2.1,9.3c-1.8,2.1-4.5,3.1-6.5,5c-1.3,1.3-2.7,2.4-2.2,4.5c-2.8,7.5-8.1,13-13.9,18.1
	c-2.2,1.9-5,2.7-7.8,2.4c-2.7-0.4-5.1-1.7-6.8-3.8c-8.6-9-18.5-16.1-30.7-19.3c-0.8-0.2-1.5-0.7-2-1.4c-1.8-2.8-1.6-6.7-4.8-8.7
	c-4.9-0.7-3.4,4.3-5.5,6.2c-5.4,0.1-8.5-3.6-10.9-7.5c-2.2-3.5,1.4-3.4,3.5-4c-4.1,0.9-8-0.3-11.8-1.7c3.5,1,5.7,3.4,8,6.2
	c5,6.3,11.4,10.1,19.9,10.8c11,0.9,20,6.7,28.2,13.8c4,3.5,7.4,7.6,12.1,10.3c2.6,1.4,5.6,0.3,8.3,1.1c3.1,0.9,6.4,1.9,6.5,5.8
	c0.1,3.8-2.7,5.5-6,6.4c-8.6,2.4-15.9-0.9-22-6.4c-10.1-9.2-21.8-16.5-34.4-21.7c-3.4-1.4-6.8-2.5-10.4-3.4
	C252.2,217.9,240.6,213.9,232.1,204.1z"/>
<path class="st8" d="M248.1,355.1c-1.1-0.7-2.5-1.2-3.2-2.2c-2-2.7-5.7-4.8-4-9.1c1.8-4.5,5.4-4.6,9.3-3.6c1.1,0.3,2.2,0.9,2.9,1.8
	c5.2,4.8,11.4,8.8,13.4,16.2c0.3,0.9,0.6,1.9,0.7,2.9c-0.9-5.8-3.9-11-8.5-14.5c-2.2-1.8-4.2-3.8-6.1-5.8c-1.1-1.4-2.1-2.9-1.8-4.9
	c3.6-6.7,8.8-8.5,15.1-5.4c0.1,0.2,0.2,0.5,0.3,0.7c-1.2,9.7,2.2,17.1,10.7,22.3c3.8,2.3,4.4,7.2,7.3,10.6c1.2-4.1-1.6-9.6-6-12.9
	c-4.2-3.3-8.3-6.7-9.6-12.3c-1.2-4.9,0.3-6.9,5.4-6.7c3.8,0.2,7.2,1.6,9.2,5c6.7,11.4,10.2,24,13.1,36.8c3.6,16.3,5,32.8-0.1,49
	c-2.4,7.6-5.8,14.9-11.8,20.5c-2.8,2.5-6,4.8-10.2,2.6s-6.4-5.8-7.8-10c-2.9-8.3-3.9-17.2-3.1-26c1.5-14.8,0.2-29.2-5.6-43
	C255.6,362.2,252.3,358.1,248.1,355.1z"/>
<path class="st2" d="M210.1,475.1c-1.6,0-3,0.1-3,2.3c0,1.5,0.5,2.7,2,3.1c3.4,0.9,6.8,1.3,10.2-0.2c0.9-0.4,1.1-2.5,2.6-0.9
	c0.2,0.2,0.6,0.6,0.5,0.8c-0.2,1.6-1.8,1.2-2.7,1.5c-9.5,3.3-19.4,5.8-29.4,7.2c-9.6,1.4-19.4,2.5-29.2,2.2
	c-19-0.7-37.9-4.1-55.9-10c-1.7-1.5-2.5-3.7-2.2-5.9c59.8,8.4,111.7-7.1,154.6-51.2c2.1,9.8,2.7,19.5,12.6,24.1
	c0.8,0.5,1.6,1.1,2.4,1.7c1.5,1.4,4.9,0.5,4.9,2.4c0,2.3-3.1,3-5,4.2c-11.1,7.2-22.9,13.5-35.2,18.6c-0.7,0.3-1.4,1-2.6,0
	c2.9-2.3,2.4-3.7-1.3-4c-2.5-0.3-2.2-4.4-5.5-4.3c-1,0-0.7-2.9-2.6-2.2c-2.2,0.8-0.3,3-1.1,4.4c-0.4-0.2-0.9-0.4-1.3-0.7
	c-1-0.8-0.4-2.9-2.3-2.8c-0.7,0-1.3,0.5-1.3,1.2c-0.3,1.8,0.4,2.9,1.8,4.2c2.9,2.7,6.2,4.8,9.9,6.3c-7,1.1-12.3-1.9-15.1-8.1
	c-0.5-1.1,0.5-3.6-2.1-2.5c-2.4,1-1.4,3-0.6,4.7l0,0C210.4,471.2,208.3,471.7,210.1,475.1L210.1,475.1z"/>
<path class="st8" d="M153.1,328.1c-2.8-4.5-2.6-7.3,1-9.3c3.9-2.2,6.4,0.2,8,3.3c2.4,4.5,6.5,8,7.7,13.2c0.8,3.4-0.5,6.9,1,10.4
	c2.6-4.9,1.7-13.7-1.7-18.2c-1-1.3-2-2.6-2.9-4c-3.2-4.8-1.4-9.2,4.1-10.4c3.9-0.8,6.3,1.5,6,5.4c-0.4,4.6-0.4,9.3,2.4,13.5
	c1.5,2.2,2.8,4.5,3.9,6.9c0.9,2.6,1.7,5.3,2.3,8c2.6-4.1,1-7.3-0.7-10.5c-1.9-3.6-4.8-6.9-5.6-11c-0.6-2.9-1.4-6.7,1.9-8
	c2.8-1.1,6.2,0.5,8.4,3c2.3,2.6,3.8,6,4.1,9.5c2.1,20.2,3.4,40.5-4,59.9c-4.9,12.8-14.8,22.2-25.7,30.4c-4.6-1.6-5.6-5.9-6.8-9.8
	c-2.8-9.4-1.7-18.8,0.2-28.1c1.7-8.1,4-16.1,4.8-24.4C162.6,346.8,160.8,336.6,153.1,328.1z"/>
<path class="st8" d="M232.1,204.1c11.7,9.9,26.2,13.5,40.4,18.1c14,4.6,26.1,12.6,37.1,22.6c5.9,5.4,12.9,8.6,21.4,6.3
	c2.8-0.8,5-2.2,5.1-5.2c0-3.2-2.9-3.6-5.2-4.5c-3.1-1.2-6.7,0.8-9.6-1.3c14.7-3,27.6-13.1,43.6-11.5c1.8,0,3.6,0.2,5.4,0.6
	c9.5,2.5,18,0.8,25.5-5.7c1.6-1.3,3.5-1.9,5.5-1.8c2.1-0.1,4.4,0.3,6.2-1.1c0.8-0.3,1.6-0.6,2.4-0.8c9.7-2.6,11.7-5.1,12-14.7
	c2-2.3,5.1,0.4,7.1-1.7c3-1.2,5.5-4,9.2-3.3c3.1,10.2-1.5,18.5-7,26.3c-9,12.8-22.3,17.5-37.1,17.5c-16.9,0-33.6,0.2-50,5.1
	c-2.7,0.8-5.3,1.8-7.9,3c-10,5-19.4,3.6-27.5-3.9c-12.7-11.7-27.9-18.9-44.1-24.1c-10.9-3.5-21.8-7-29.9-15.9
	C233.6,207,232.1,206,232.1,204.1z"/>
<path class="st7" d="M204.1,435.1c-5.6-6.9-12-13-21.1-14.6c-4.5-0.8-9.2-0.5-14.4-0.8c8.5-7.2,14.5-15.9,21.3-24.1
	c2.8-3.4,9.2-3,14.1-2.5c12.1,1.2,23.6,5.7,33.2,13c8.8,8.6,5.9,18.5-0.4,25.2c-5,5.3-10.6,9.6-18.3,10
	C212.6,441.7,207.7,440,204.1,435.1z"/>
<path class="st2" d="M303,329c11.7,21.2,14,43.9,11.2,67.5c-1.8,15.6-6.5,30.1-16.2,42.6c-4.5,5.8-9.8,10.5-17.9,9.9
	c10.3-4.7,14.6-14.2,17.8-23.9c6.9-20.9,3.8-41.8-1.9-62.4c-1.9-7-4.6-13.8-7.1-20.7c-3.2-8.7-8.7-12-19.8-12
	c-0.6-1.8,0.1-2.9,1.9-3.5c6.3,2.8,11.5,0.7,16-3.9C293,322.8,298.6,325.1,303,329z"/>
<path class="st7" d="M179.2,282c3.1-6.8,8.1-12.2,12.6-17.9c9.4-11.8,20.5-21.8,32.4-30.9c3.1,0.3,5.4-1.3,7.8-2.9
	c1.5,1.3,1.1,3,1.1,4.6c-0.5,19.2,1.2,38.4,4.9,57.3c0.3,1.3,0.3,2.6,0,3.9c-2.7,2.8-3.6-0.3-4.8-1.6c-6.3-7-13.6-12.4-23.1-13.8
	c-7.9-1.2-16-0.9-23.7,1.1C184,282.4,181.6,284,179.2,282z"/>
<path class="st7" d="M193.1,390.1c2.9-6.6,5.9-13.3,6.8-20.5c0.9-7.5,7.1-5.8,11.1-6.2c9.2-1,18.6,0.4,27.2,3.8
	c5.1,2.7,10,5.8,13.9,10.3c2.1,2.5,3.9,5,4.3,8.3c0.6,5.3,0.3,10.5-4.3,14c-5.2,4-10.8,2.7-15.9-0.1c-8.4-4.8-17.6-7.9-27.1-9.1
	C203.6,390.1,198.3,391.3,193.1,390.1z"/>
<path class="st9" d="M350.1,195c-2.6-13.8,0-27.1,5.1-39.9c6.3-15.8,17.4-28.5,27.8-41.6c3.8-4.8,8.5-8.4,12.8-12.5
	c2-1.9,4.2-3.6,7.2-4.1c5.2-0.8,7.1-3.3,7.2-8.9c3.8,2.3,8,2.8,12.2,3.6c2.3,0.4,2.6-0.7,1.8-2.6c-1-1.1-1.4-2.6-1-4
	c0.4-1.8,0.8-3.5,2.6-4.5c8.3,7.4,4.1,17.4-3.1,21.5c-4.1,2.4-7.9,0.8-11.9-0.3c-1.4-0.4-3.3-2.8-4.1-0.7s1.9,2.4,3.6,2.9
	c0.4,1.4-0.7,2.2-1.6,2.8c-15,10.4-24.5,25.6-34.5,40.3c-3.8,5.6-7.8,11.1-10.5,17.5c-4,9.3-4.8,18.9-4,28.8
	c0.1,1.6,0.9,3.3-0.3,4.8C355.6,198.8,352.9,196.9,350.1,195z"/>
<path class="st1" d="M235,172.2l-7.9-6.1c-0.4-1-0.8-2.1-1.1-3.1c-0.6-2.4,1.1-3.7,2.4-5.2c0.4-0.5,0.9-1,1.4-1.4
	c1-0.9,1.9-1.9,2.9-2.9s2.3-1.6,3.4-2.3l2.1-2c2.2-2.9,3.2-6.6,2.8-10.2c-0.3-3,1.3-5.8,2.2-8.6c1.4-2.3,2.2-5.2,5.1-6.3l1.9-1.9
	c1.5-5.7,1.9-11.8,6.8-16.1c0.8-1.7,2-3.2,2.1-5.1c1.1-4.6,4.4-7.8,7-11.6c2.4-2.7,4.4-6,8.1-7.3l1.9,1c0.6,2.9-1.7,4.5-3.2,6.3
	c-1.8,1.9-3.5,4-5,6.2c2.5,0.9,5.2,0.3,7.2-1.4c2.1-1.6,4.9-1.7,7-0.3c1.1,0.5,1.7,1.7,1.6,2.8c-0.2,1.5-1.3,1.8-2.6,1.7
	c-2.1-0.2-4-0.2-4.4,2.6c1.7,0.8,2.5-0.6,3.6-1.2c2.1-1.2,4.5-1.4,6.8-0.5c1.5,0.5,2.8,1.4,2.6,3.2c-0.3,2.2-1.9,1.9-3.4,1.7
	c-0.8-0.2-1.8-0.5-2.4,0c-3.1,2.5-6.6,4-10.8,2.9c1.9,2.4,3.8,1,5.5,0.4c2.5-1.1,5.4-0.7,7.6,0.9c1,0.7,1.8,1.7,1.3,3
	s-1.8,1.5-2.9,1.2c-2.4-0.7-4.5-0.7-6.5,1.1c-1.3,1.2-2.9,0.6-4.3,0.2c-2.2-0.8-4.7-0.3-6.6,1.1c-1.1,0.7-2.4,0.9-3.1-0.2
	c-1.3-2.2,1.5-3.3,1.8-5.5c-3.1,0.7-4.8,3.7-7.7,4.3c-0.8,0.2-1.3,1.6-0.8,2.6s1.5,0.6,2.2,0.2c2.5-1.5,5.6-0.1,8.1-1.7
	c11.8-2.3,22.3-0.1,31.3,8.6c-3.5-12.3-7.7-24.2-15.5-34.6c-1-1.4-2.9-2.4-2.3-4.6h4c11.8,16,17,34.8,22,53.6c1.9,7,3.7,14,4,21.3
	c0.4,10.6-2.9,20.4-7,30.1c-1.1,2.2-2.7,3.3-5.2,2c-0.3-2.4,1.3-4.1,2.3-5.9c7.4-14.3,7.8-29,2.7-44c-2-5.7-5.4-10.8-9.9-14.8
	c-12.7-11.8-28.5-8.8-40.5-0.9c-4.3,2.9-6.2,7.7-7.3,12.5c8.6-9.4,21.1-12.2,33-7.8c10.7,4,19.3,17.7,18.4,31.6
	c-0.7,11.4-7.4,20.5-19.3,24.7c-1.4,0.1-2.5-1-2.6-2.4l0,0c0.4-2.2,2.4-2.6,3.9-3.4c10.2-5.6,14.8-15.1,12.7-26.6
	c-0.4-1.6-0.7-3.3-1.2-4.9c-4-14.4-19-19.6-31.2-10.9l-3.5,2.4c-3.5,1.3-6.6,3.2-7.6,7.1c-3.6,7.7-4.3,15.3,0,23
	c0.7,1,0.9,2.2,0.6,3.3c-1.6,1-2.9,0.3-4.2-0.5c-4-5.7-5.8-12.8-5-19.7c-1.8,0.8-3.5,1.9-4.8,3.4c-4.9,4.9-4.8,6.1,0.3,10.6
	c1.4,1.2,3.6,2.1,2.4,4.6C237,173.1,235.8,172.9,235,172.2z"/>
<path class="st7" d="M148,433c6.6-3.2,12-8.9,19.3-10.4c13.6-2.8,26.8,2.1,33.9,14.4c4,7.7,3.1,12.4-3.7,19c-6.1,6-11,6.8-18.4,3
	c-3.6-1.8-6.6-4.5-8.8-7.8c-4.9-7.3-11-13.2-19.8-15.8C149.4,435.1,147.8,434.9,148,433z"/>
<path class="st7" d="M111,449.2l-2.9-0.3c11.1-2.5,20.9-9.4,32.6-9.9c7.8-0.3,14.7,1.3,20.4,7c2.5,3.5,5,7.1,5.9,11.4
	c1,5.3-0.9,9.3-5.9,11.3c-6.9,2.7-14,4.3-21.5,3.5c-5.6-0.6-10-3-12.7-8.4C123.6,457.1,118.8,451.4,111,449.2z"/>
<path class="st1" d="M359,198c-2.1-12.4-1.1-24.4,4.2-35.9c3.4-7.2,8.2-13.6,12.7-20.1c5.7-8.5,12-16.6,18.4-24.5
	c4.4-5.5,10.4-9.2,15.8-13.4l3.9,2c-3.4,3.4-7.9,5.4-11.4,8.7c-7.7,7.7-14.6,16.3-20.4,25.4c7.3-2.8,14.8-2.6,22.2-2.4
	c7.8,0.3,14.1,4.6,21,8.4c0.8-5.9,0.5-11.9-0.8-17.7s-3.2-11.5-5.7-17c-0.8-1.7-2.4-3.4-0.8-5.5c1.9-0.5,2.8,0.9,3.9,2
	c2.4,2.1,2.9,5.2,4.2,7.9c1.5,4.6,3.2,9.1,2.8,14.1l0.1,6.1c4.1,5.3,2,11.3,1.8,17.1c-0.6,1.2-0.5,2,1.1,1.9c2.1,2.3,2.4,5.1,2.3,8
	c0.6,6.2-1.2,12.1-2.4,18c-0.7,0.4-1.1,1.2-1,2c-0.1,0.2-0.1,0.5-0.2,0.7c-1.5,5.7-3.9,10.9-8,15.3c-1.1,1.2-2.2,2.5-3.9,2.9
	c-1,0.2-2,0-2.8-0.6c-0.9-2,0.7-3.1,1.7-4.3c4.7-5.1,6.9-12,6.1-18.8c0.2-3.3-1.1-6.6-3.5-8.9c-2.5-4.1-5.3-8-9.6-10.5
	c-7.3-4.1-16.3-3.1-22.6,2.4c-1.4,1.4-2.9,2.7-4.5,3.9c-8.8,8.4-8.6,22.8,0.4,32.5c1.3,1.4,3.4,2.3,3.4,4.6
	c-0.6,1.6-1.9,1.7-3.3,1.5c-7.9-4.1-13.5-16-12-25.4c0.7-5.6,2.8-10.9,6.1-15.5c2.6-3.2,5.6-6,9-8.4c14.2-9.3,34.4-3.4,41.3,12
	c0.6,1.2,0.9,2.5,0.9,3.8c-0.1,0.7,0.9-0.1,0.3-0.1c0,0,0-0.2-0.1-0.5c0-0.7,0-1.3,0.1-2c0.6-8.7-3-14.8-10.5-19.2
	c-9.8-5.8-19.9-7.9-30.9-4.4c-14.2,4-20.4,15.1-24.4,27.9c-2.3,7.4-3.3,14.9-1.5,22.6c0.5,2,1.3,4.2,0.1,6.3
	C359.8,201.7,359,200.3,359,198z"/>
<path class="st7" d="M239.1,364.1c-9.6-2.5-19.5-3.6-29.5-3.2c-2.4,0-5.5,2.8-6.7,0.2c-0.8-1.7,1.5-4.8,2.3-7.3
	c2.3-7,6.8-12.8,10.2-19.2c2.3-4.3,6.4-5.2,10.7-5.5c1.8-0.1,3.7,0.1,5.5,0c4.4-0.4,6.6,1.5,6.4,5.9c1.1,3.7-0.9,7.4,0,11.1
	c-0.2,4.2,3,6.3,5.4,8.9c1.9,2,3.8,4,5.7,6C247.4,365.5,245.8,366,239.1,364.1z"/>
<path class="st7" d="M256.1,284c-6.8,3.3-9.7,9.9-13,16c-2.3-0.3-2.3-2.2-2.4-3.7c-1.5-16.8-1.6-33.7-0.2-50.6
	c0.3-3.3-0.3-6.6,0.9-9.8c1-1.6,2.3-1.2,3.3-0.2c6.9,6.9,14.2,13.4,21.9,19.4c0.2,0.2,0.3,0.6,0.3,0.9c-0.9,6.6-0.1,13.3-0.8,19.9
	C263.8,279.9,259.9,281.9,256.1,284z"/>
<path class="st7" d="M262.1,294.1l16.9-15.3c0.8-0.6,1.9-0.8,2.8-0.5c13.2,3.1,26.3,6.5,38.4,12.8c2.3,1.6,4.9,2.8,6.6,5.2
	c3.9,5.5,1.3,11.7-5.3,12.8c-3.2,0.5-6.4-0.1-9.1-1.9c-14.2-8.7-29.6-12.3-46.1-12.3C264.8,295.1,263.2,295.4,262.1,294.1z"/>
<path class="st10" d="M484,104.1c-6.8,12.6-5.8,24.7,1.9,36.5c0.2,0.5,0.3,0.9,0.3,1.4c-8.9-3.5-17.7-7.1-27.4-8.4
	c-8.5-1.2-17.1-1.5-25.6-0.6c-0.6-2.2,1.1-3.4,2.4-4.6c11.6-10.8,24.4-19.7,39.9-23.9C478.1,103.9,481,102.3,484,104.1z"/>
<path class="st10" d="M200.1,94.1c7.1-6.1,12.5-13.2,14.6-22.7c1-4.6-0.5-8.8-0.4-13.2c1.9-0.8,3.2,0.5,4.6,1.3
	c15.4,8.8,25.6,22.4,34,37.5c0.7,1.3,1.5,2.7,0.3,4.2c-10.4-3.4-20.7-6.7-31.7-7.8C214.2,92.6,207.2,93.7,200.1,94.1z"/>
<path class="st7" d="M296,318.2c-3.5-2.3-7.7-3.4-11.9-3.1c-3.2-1-5.1-4-8.2-5.2c-6.6-2.6-8.3-1.8-9,4.7c-0.9,0.5-1.9,0.6-2.8,0.2
	c-4.5-3.2-9-6-15-5.4c-2.9,0.3-4.1,0.9-2,3.8s4.5,5.8,3.5,9.9c-0.4,1-1.5,1.5-2.5,1.3c-2.7-0.5-5.1-2-8-2.4c-3.8-0.4-7-1.4-7.3,4
	c-0.1,1.3-1.5,1.1-2.4,1.1c-2.8,0-5.5,0-9.2,0c9.9-11,19.7-20.8,32.1-27.3c6.1-3.2,13.1-1.9,19.6-1.4c11.2,0.7,22.2,3.7,32.2,8.9
	c0.4,0.3,0.8,0.6,1.1,1C304.6,314,301.2,317.4,296,318.2z"/>
<path class="st11" d="M94,467.1c-1.7,4.1-0.8,8.1,0.7,12c0.8,2,1,2.8-2,2.3c-21.8-3.2-42.3-10.1-62.2-19.2c-7-3.2-14-6.3-21.6-11.2
	c4.5,0,7.9,0,11.3,0c21.6,0.3,43.2-1.3,64.5-4.9c2-0.4,4.4-0.8,5.6,1.9c-3.9,4.1-9.3,2.8-14,3.3c-13.5,1.4-27.1,1.8-40.7,1.2
	c-3.5-0.1-7-0.3-10.5,1c6.9,4.2,14.8,5.2,22.3,6.9c13.8,3.2,27.9,4.9,42,5.2C91,465.7,92.7,465.8,94,467.1z"/>
<path class="st1" d="M243.1,235c-1.8,5.5-1.5,11.3-1.8,16.9c-0.6,11.4-0.4,22.9-0.1,34.3c0.1,4.6,0.3,9.4,1.9,13.8
	c0.2,2.9-1.1,4.7-4,5.1l0,0c-0.6-2.8-3.2-5-2.1-8.2c-1-7-1.7-13.9-3-20.8c-2.1-11.8-2-23.6-2-35.5c0-3.5,0-7-0.1-10.4
	c0.5-1.2,1.5-2.2,2.8-2.6c-1.2,9.4-0.4,18.6-0.6,27.8c-0.2,1,0.2,2,0.9,2.7c2.7,3.1,1.2,7,1.8,10.5c1.2,6.5,1.2,13.1,1.8,19.7
	c-1.2-10.2-0.9-20.4-1.1-30.7c-0.1-7.5,0.3-14.9,1.1-22.4c0.3-3.1,0.1-6.3-0.5-9.4c-0.1-1.4,0.8-1.9,2-2c3.5,0.4,4.3,3.9,6.5,5.7
	c2.4,2.1,4.6,4.3,6.8,6.6c1.3,1.5,2.8,2.8,4.5,3.9c0.4,0.2,0.7,0.5,1.1,0.8c2.8,1.6,4.5,5.2,8.4,4.8c1-2.7-1.5-3-2.8-3.9
	c-6-3.9-11.7-8.1-17.2-12.6c-2.1-1.8-4.6-3.3-5.3-6.3l3-1.8c5.2,3.3,9.4,7.9,14.5,11.4c2.7,1.9,5.5,3.8,8.3,5.6
	c2.4,1.6,4.5,1.4,6.7-0.5c2.1-1.8,4.2-3.9,7.4-3.6c1.3,0,2.5,0.8,3,2.1c-0.5,0.8-1.2,1.5-2,1.9c-1.5,1.3-5,2.1-3.8,4.4
	c1.5,2.8,3.7,6.1,8.1,5.2c1.2-0.1,2.4-0.3,3,1.1s-0.3,2.2-1.2,3c-0.9,0.7-2,1.3-3.1,1.5c-5.1,0.7-10.6,3-14.6-2.6
	c-3.1,8.9-3.9,18.5-2,27.8c0.9,4.2-2.1,6.3-4.3,8.8c-1.3,1.8-2.8,3.4-5,3.9c-1.4-3.5,1.9-5.8,2.2-8.9c0.5-2,1.8-3.4,2.7-5.1
	c0.4-7.3-0.5-14.7,0.9-21.9c-0.7-2-1.2-4-3.3-5.3c-6.2-3.8-11.8-8.5-16.8-13.8C245.2,235.3,244.5,234.1,243.1,235z"/>
<path class="st12" d="M418.1,106.1c3.2,8.3,6.9,16.4,8.3,25.4c0.9,5.6,0.2,11.1,0.8,17.4c-7.8-4.3-14.5-9.5-23.1-9.7
	c-8.3-0.2-16.6-0.4-24.4,3.7c2.1-5.6,5.8-9.8,9.2-14.3c5.5-7.1,11.2-13.9,18.5-19.2c2-1.5,4.2-2.6,6.6-3.2L418.1,106.1z"/>
<path class="st8" d="M295.2,245.2c-0.1-3,1.5-2.9,3.5-1.8c3.2,1.9,5.6,4.6,8.4,7c9.8,8.3,20.6,9,31.8,3.3c4.5-2.3,9.4-2.9,14.1-4.4
	c1.3-0.4,2.8-0.8,2.6,2c-0.7,7.9-1.8,15.7-3.5,23.4c-0.3,1.6-0.7,2.5-2.5,2.1c-12-2.8-24.2-4.5-35.6-9.7c2.6-2.4,6.2-0.3,9-1.8
	c0.1-1.9-1.6-1.8-2.6-2.3c-7.6-3.6-14.9-8.1-21.6-13.2C297.3,248.6,296.1,247,295.2,245.2z"/>
<path class="st2" d="M213.1,333c-8.1,13.4-14.6,27.5-17.6,43.1c1.7-19.8,3.6-39.6-4.9-58.9c2.2-1.1,5.6-2.1,7.6-5.2
	c4.2-1.5,6.5,2.2,9.6,3.6C213.1,320.4,214,326.4,213.1,333z"/>
<path class="st7" d="M284.1,276.1c-0.6-0.6-3.7,1-1.6-1.9c2.7-3.7,5.7-7.2,7.8-11.4c1.5-2.9,3.6-1.3,5.5-0.4
	c11.2,5.6,23.1,9.9,35.3,12.8c2.3,2.4,3.1,5.1,1.4,8.1c-1.6,2.8-4.3,3.3-7.3,3.3c-3.7-0.1-7.3-0.9-10.6-2.3
	C304.8,280.3,294.5,277.5,284.1,276.1z"/>
<path class="st13" d="M457.2,37.1c-3.2,4.7-8.1,7.7-12.2,11.5c-10.8,10.3-19.3,22.6-25.2,36.3c-1.5,3.4-2.9,3.5-5.9,2.2
	c-3.2-1.4-6.1-3.1-8.9-5.2c-0.4-2,0.9-3.5,1.8-5c10.9-17.6,27-31.4,46-39.6C454.3,36.8,455.7,36.1,457.2,37.1z"/>
<path class="st8" d="M429.1,130.1l-3.8-14c1.1-3,4-4.6,5.9-7c6.4-3.8,11.8-9.3,18.9-12.1c11-5,22.4-8.8,34.5-9.6
	c5.2-0.4,10.8-2.3,15.6,1.7c-6.7,2.3-13.9,1.8-20.7,3.8c-12,3.5-22.4,9.4-32,17.2C440.4,115.8,434.2,122.5,429.1,130.1z"/>
<path class="st12" d="M267.1,115.1c1.6-3.2,3.9-3.8,7-2.1c0.8,0.5,2.1,1.4,2.7,0.4c2.4-3.5,5.1-3.6,8.4-1.6c0.5,0.1,1-0.1,1.3-0.4
	c0.4-0.5,0.2-1.2-0.3-1.6l-0.1-0.1c-2.6-1.8-5.6-2.8-8.3-0.7c-1.8,1.4-3.1,1.7-4.8,0.4c-0.9-0.7-3.3-0.1-2.3-2.2
	c0.7-1.5,2.3-3,4-1.8c3.1,2.1,5.2,0.9,7.1-1.6c1.6-2.2,3.4-1.4,5.2-0.4c0.6,0.3,1.3,0.6,1.7-0.2c0.5-0.6,0.3-1.5-0.3-2
	c-0.1-0.1-0.2-0.1-0.2-0.1c-2.8-1.5-5.7-2.1-8.2,0.6c-1.4,1.6-2.9,2.1-4.8,1.1c-1.4-0.7-0.7-1.7-0.2-2.4c1.2-1.8,1.9-4.4,5.1-3.4
	c0.9,0.3,2.2,1.8,2.8-0.1c0.5-1.8-1.3-2.1-2.4-2.6s-3.1-0.8-3.8,0.2c-3,4.1-7.2,2.6-11.3,2.7c2.6-5.5,8-8.8,10.7-14.1l5.1,1
	c10.8,12,15.6,26.9,20.4,43c-4.3-3.2-7.5-5.8-10.9-8.2C283.5,113.9,275.2,115.2,267.1,115.1L267.1,115.1z"/>
<path class="st8" d="M204.1,435.1c10.9,8.2,19.8,5.3,25.9,0.5c10.4-8.1,15.6-15.7,7.1-29.4c6.3,3.8,10.9,9.6,16.2,14.5
	c1.7,1.6,1.2,2.5-0.2,4c-11.2,11.2-23.8,21-37.4,29.1c-1.3,0.8-2.8,1.6-3.5-0.7C210.3,446.7,206.9,441,204.1,435.1z"/>
<path class="st11" d="M261.3,5.1c-0.2-2.7,1.4-2.2,2.8-1.5c5.5,2.6,10.4,6.4,14.4,10.9c-1.1,0.6-2.4,0.4-3.3-0.3
	c7.6,7.3,14.1,15.8,19.2,25.1c-0.7-4-5.1-7.4-4.7-12.6c8.1,7.4,12.6,17.1,16.4,27.1c0.3,0.8,0.5,1.5,0.8,2.3c-3.6,4.3-9,4.6-14,0.9
	c-4.1-3.2-6.3-7.6-8.1-12.3C281,34.6,276,24.9,269.9,16C267.3,12.1,263.4,9.3,261.3,5.1z"/>
<path class="st7" d="M101.2,468c-0.2-5.3-2.5-7-8.3-7.2c-14.7-0.5-29.5-1.2-44-4.5c8.1-0.2,16.2-0.7,24.3-1.1
	c6.3-0.3,12.5-1.4,18.8-1.3c1.2,0,2.3-0.3,3.3-0.9c7.2-4.9,13.6-2.3,19.8,2c1.2,2,3.1,3.5,4.1,5.6c1.8,3.6,0.8,7.1-3,8
	C111.3,469.9,106.1,470.7,101.2,468z"/>
<path class="st13" d="M261.3,5.1c12.6,10.4,18.8,25,24.8,39.5c1.1,3.1,2.7,6,4.7,8.7c3.9,4.8,10.4,7.2,16.2,2.8c1.5,1.9,1,3-1.1,4.2
	c-6.3,3.4-12.7,6.1-20.1,5.9c-3.3-0.1-4.5-1.5-4.6-4.4c-0.8-16.2-6.1-30.9-13.7-45C265.4,12.9,261.8,9.8,261.3,5.1z"/>
<path class="st8" d="M193.1,390.1c12.4-0.2,24.8-0.6,36.5,4.9c2.4,1.1,4.7,2.3,7,3.7c5.4,3.3,12.3,3,15.8-0.5
	c3.1-3.2,3.9-11.4,1.3-16s-6.7-8.1-10.9-11.4c-1.5-1.2-3.6-1.8-4.6-3.6c6.5,1.9,12.6,5.1,17.7,9.6c3.4,2.8,3,8,3.1,12.1
	c0.2,9.2,1.2,18.6-0.8,27.8c-0.2,1,0.5,2.6-1,3c-1.3,0.3-2-1-2.8-1.8c-8.1-8.4-16.8-15.9-27.5-20.9c-10.4-4.9-21.2-7.1-32.7-5.4
	C192.4,391.9,192,391.7,193.1,390.1z"/>
<path class="st9" d="M319.1,77.1c-9.2,4.9-19.6,7-30,6c-2.2-1.9-5.2-1.6-7.5-1.7c-7.1-0.3-9.7-4.7-11.5-10.3c0.2,0,0.4-0.2,0.5-0.1
	c13,5.9,24.5-0.6,36.2-4.7c4.1-1.4,7.4-4.4,11.3-6.2c1.4,1.3,1.7,3.4,0.7,5C315.7,69.3,316.9,73.1,319.1,77.1z"/>
<path class="st8" d="M267,90.1l-7.8,11c-4.2-11.8-9.5-22.9-17.2-32.8c-8-10.2-17.3-18.6-29-24.2c-1-0.6-2-1.2-2.9-1.9
	c2.1-1.8,4.1-0.5,6,0.3c16.1,6.8,30,16.7,40.9,30.6l6.2,8C265.3,83.6,266.6,86.8,267,90.1z"/>
<path class="st8" d="M284.1,276.1c9.8-0.2,18.9,2.7,28,6c3.6,1.3,7,2.9,10.9,3.1c8.9,0.4,10.5-1.5,8.1-9.9
	c5.8,1.3,11.6,2.7,17.4,3.8c1.8,0.4,2.7,0.5,1.9,2.7c-1.7,5.4-3.7,10.6-6,15.8c-0.9,1.9-1.6,3-4.1,1.4
	c-17.2-10.7-36.1-18.3-55.9-22.5C284.3,276.5,284.2,276.2,284.1,276.1z"/>
<path class="st8" d="M257,106.2c-2.3,4.2-3.9,8.7-4.9,13.3c-0.2,1.1-0.9,2.1-1.9,2.7c-16.9-14.9-36.5-22.2-59-21.3
	c1.8-3.1,5.2-2.5,7.8-2.8c17.6-1.9,35.3,0.1,52,5.8C252.7,105.6,255.1,105.3,257,106.2z"/>
<path class="st8" d="M431,153.2c-1.9-2.6-0.7-5.6-0.9-8.5s0.1-5.8-1-8.6l2.9-0.1c7-1.1,13.9-0.1,20.7,1c11,1.6,21.8,4.7,32,9.1
	c1.8,0.8,4.3,1.2,4.4,4c-8.2-1.6-16.3-4.4-24.8-4C452.8,146.6,441.6,148.6,431,153.2z"/>
<path class="st8" d="M262.1,294.1c17.6-0.2,34.5,2.8,49.8,12.2c0.6,0.3,1.2,0.6,1.8,0.8c6.3,2,11.4,1.2,13-2.4
	c2.5-5.5-1.5-8.5-5-11.5c-0.6-0.6-1.1-1.2-1.6-1.9c7.2,2.2,13.2,6.6,19.5,10.6c1.8,1.1,1.1,2.1,0.5,3.3c-2.5,5.1-5.2,10-7.5,15.2
	c-1.2,2.7-2.2,2.6-4.2,0.6c-11.7-11.8-26.7-20-43-23.3c-8.4-1.8-16.8-1.3-25.3-1.5C260.2,294.6,261.4,294.6,262.1,294.1z"/>
<path class="st8" d="M148,433c11.1,3.1,18.4,10.8,24.8,20c4.1,5.9,14.3,8.5,19.6,5.9c8.3-4.1,11.3-11.5,8.8-21.9
	c4.5,4.9,6.2,11.2,8.8,17.1c0.9,2-0.7,3-2.3,3.8c-8,3.9-16.3,7.4-24.8,10.2c-4.2,1.5-6.2,0.6-7.4-3.9c-1.4-5.5-4.3-10.4-7.8-14.9
	c-6.2-8.3-14.6-12.5-25.3-13.3C144,434.5,145.9,433.5,148,433z"/>
<path class="st12" d="M253.1,101.1c-2.7-8-7.9-14.5-12.8-21.1c-7-9.1-15.9-16.6-26.1-21.8c-1.7-4.4-3.4-8.7-5.1-13.1
	c25.2,11.3,39,32.1,47.8,57.3C254.9,103,254,102.1,253.1,101.1z"/>
<path class="st12" d="M484,104.1c-20.6,3.2-36.9,14-50.9,29c-1.9,0.1-3.4-0.4-1.8-2.4c16.1-19.9,35-35.2,61.8-37.6
	C490.3,96.9,486.3,99.8,484,104.1z"/>
<path class="st11" d="M457.2,37.1c-15.3,5.7-28.9,15.2-39.5,27.6c-4.6,5.5-8.8,11.2-12.6,17.2c-0.2,0-0.4,0-0.5-0.1
	c-9.8-8.1-9.9-9-0.8-17.9c3.4-3.3,5.9-7.7,10.7-9.3c0.5,2.5-1.5,3.5-2.9,4.8c-2.9,2.9-5.9,5.8-8.8,8.8c11.3-12,24.8-21.7,39.7-28.5
	c0.7-0.3,2.3-0.3,1.5-1.9c4.2-1.8,8.5-3.6,13.2-1.5c0.1,0.1,0.2,0.2,0.2,0.4C457.4,36.9,457.3,37,457.2,37.1z"/>
<path class="st8" d="M248.3,124.2l-4,6c-2.6,2.6-2.5,7.1-6.1,9c-11-1.6-22-2.1-32.6,2c-3.2,1.3-6.2,3-9.4,4.4c-1.9,0.8-2,0-1-1.5
	c8.7-7.8,18.9-12.8,29.7-16.8c5.3-2,10.8-2.9,16.3-4.1C243.4,123.4,246.1,122.2,248.3,124.2z"/>
<path class="st13" d="M94,467.1c-25.4,0.1-50.6-4.6-74.2-13.9c1-1.9,2.5-1.1,3.6-1.1c10.5-0.1,21,0.5,31.4-0.2
	c11.8-0.7,23.7-1.3,35.4-3.9c2.3,2.7,1.7,3.6-1.8,4.1c-10.7,1.4-21.5,0.5-32.2,1.8c-7.5,0.9-15.2-1.5-22.8-0.9
	c-1.6,0.1-3.3-0.4-6.1,1.3c22.9,6.5,45.3,8.1,67.9,8.9C95.8,464.8,93.6,465.6,94,467.1z"/>
<path class="st8" d="M433.3,163.1c-0.4-2.7-0.8-5.3-1.1-8c3.9,0.1,6.4,3.4,10.1,4.1c13.4,7.7,24.6,17.8,33,30.9V190
	c0.5,0.6,0.5,1.6-0.1,2.1c-9.1-7.8-18.3-15.3-30.6-17.5c-2.1-0.4-4.3-0.4-6.4-0.6c-2.2-0.9-3-2.7-3.3-4.9
	C434.5,167,434.5,164.9,433.3,163.1z"/>
<path class="st14" d="M265.1,287.1c5.9-6.8,1.1-14.5,1.9-21.7c0.5-6.1,2-12.1,4.4-17.8c1.8,4.4,6.3,6.9,10.1,4.9
	c1.8-1,3.1,0,4.6-0.3c1.2,1.2,0.6,2.5,0,3.7c-4,7.8-7.4,15.8-12,23.2C271.7,282.4,268.6,285.1,265.1,287.1z"/>
<path class="st8" d="M111,449.2c7.7,0.7,12.3,6.2,15.3,12.1c5.8,11.1,14.1,10.3,22.7,9.6c3.9-0.3,7.7-1.8,11.4-3
	c4.7-1.6,6.7-5.5,5.2-10.3c-1.2-3.9-3-7.6-4.6-11.4c6.4,5.9,10.1,13.3,13,21.3c0.9,2.5-0.4,3.3-2.4,3.6c-12.3,2.3-24.7,4.3-37.3,4.1
	c-3,0-4.9-0.6-5.8-3.9C126.6,461.5,120.1,453.4,111,449.2z"/>
<path class="st6" d="M318.1,60.1c-3.1,5.1-8.7,6.5-13.6,8.6c-6.8,2.9-14,5-21.4,6.2c-4.8,0.8-9.1-0.8-13-3.8
	c-1.8-4.9,1.2-12.4,5.9-13.9c3.3-1,2.8,1.9,3,3.8c-0.9,1.4-1.5,3-3,4c-1.4,2.4,0.3,2.6,2,3c5.9,1.7,11.7,0.8,17.4-0.7
	c6-1.7,11.7-4.3,16.9-7.9c0.9-0.6,2.4-1,0.8-2.5c-0.8-1-2.3-1-3.1-1.9s-2.5-2.2-1.1-3.6c1-1,2.5-0.3,3.7,0.4
	C315.9,53.7,318,56.2,318.1,60.1z"/>
<path class="st10" d="M204.1,132.1c2.9-7.2,2.2-14.1-1-21c1.4-1.5,3.3-1.4,5.1-1.2c9.3,0.7,18.3,3.4,26.4,8c1.2,0.7,2.8,1.3,2.6,3.2
	C225.1,121.9,214.3,126.1,204.1,132.1z"/>
<path class="st7" d="M153.1,328.1c8.5,8.3,11.5,18.5,9.5,29.9c-2.4,13.6-6.3,27.1-6.4,41c-0.1,7.8,1.6,15.1,7,21.2
	c-5,1.6-11.1-2.7-13.1-8.8c-2.2-6.8-0.3-13.1,1.7-19.4c2.7-8.6,6.5-17,7.4-26.1c1.3-12.6,3.8-25.5-5.9-36.4
	C153.1,329.2,153.2,328.6,153.1,328.1z"/>
<path class="st8" d="M296,318.2c4.8-1.9,7.3-6.2,10.1-10.1c9,3.9,16,10.4,22.8,17.3c0.8,0.7,0.8,1.8,0.2,2.6c0,0,0,0-0.1,0.1
	c-4.8-1.5-9.6-3.5-14.8-2.9c-0.6,0.1-1.5-0.3-2,0.1c-6.2,4.5-9.2-0.7-12.8-4.2C298.4,319.9,297.2,319.1,296,318.2z"/>
<path class="st7" d="M248.1,355.1c7,3,10.6,9.3,12.7,15.8c4.1,13,5.1,26.4,3.8,40.2c-1.1,12.5,0.3,24.9,9.5,34.9
	c-8.3-2.3-11.5-8.6-12.9-16.3c-1.7-9.4,0.2-18.7,0.8-28s-1-18.7-3.4-27.9C256.6,366.7,253.7,360.1,248.1,355.1z"/>
<path class="st10" d="M477.2,159.1c-4.4,5.6-6.9,11.6-5.2,18.9c-5.9-6.2-11.7-12.5-19.2-16.8c-2.3-1.3-4.5-2.8-6.7-4.1
	c2.5-3.7,6.6-2.7,10-3.1c6-0.7,11.9,0.6,17.7,2.2C475.3,156.5,477.2,156.9,477.2,159.1z"/>
<path class="st15" d="M295.2,245.2c8.6,7,17.4,13.6,28,17.5c1.2,0.4,2.8,0.9,2.5,2.6s-1.8,1.7-3.1,1.8c-2.8,0-5.6,0-8.5,0
	c-6.5-1.8-12.5-5-18.7-7.5c-2.1-0.9-3.1-1.9-1.9-4.4C294.8,252,295.4,248.6,295.2,245.2z"/>
<path class="st12" d="M477.2,159.1c-10.1-4.6-20.5-5-31.1-2l-9.6-3.6c17.8-5.2,34.1-7,50.5-0.5C483.1,153.9,480.3,156.8,477.2,159.1
	z"/>
<path class="st12" d="M237.1,121.1c-10.3-6.9-21.7-10-34-10l-7-8c17.7,0.4,33.5,6.2,48.4,18H237.1z"/>
<path class="st13" d="M94,486.2c-11.6-0.8-22.7-3.7-33.7-7c-15.5-4.5-30.4-10.7-44.6-18.3c-2.5-1.2-4.6-3.2-5.9-5.6
	c26.6,14.1,54.5,24.6,84.4,28.9C94.7,484.8,94.7,485.6,94,486.2C94.1,486.1,94.1,486.2,94,486.2z"/>
<path class="st14" d="M238.2,226c3.8,1.7,2.3,4.7,2,7.6c-1.5,12.7-1,25.4-1.1,38.2c0,5.8,0,11.6-0.3,17.4c-2.2-10.2-3.9-20.5-3.8-31
	c-0.2-9.6,0.3-19.2,1-28.8C236.2,227.8,236.1,226.3,238.2,226z"/>
<path class="st2" d="M274.1,279.1c2-7.7,6.5-14.3,9.8-21.5c0.8-1.8,1.5-3.6,2.2-5.4c0.9-0.5,1.7-0.9,2.6-1.4s1.5-1.1,1-1.9
	c-0.8-1.2-1.7,0.1-2.6,0.1c-1.5-3.9-2.9-7.9-4-11.9c0.4-0.7,1.2-1.1,2-1c8.5,2.8,9.6,4.6,7.4,13.3
	C289.5,261.3,283.2,271,274.1,279.1z"/>
<path class="st8" d="M101.2,468c3.8,0,7.6,0.1,11.5,0c6.3-0.2,7.7-2.6,4.8-8.2c-0.8-1.6-2.5-2.8-2.4-4.8c5.7,4.1,8.9,9.9,11.1,16.5
	c1.1,3.3-0.1,3.8-2.8,3.5c-6.5-0.7-13.1-1.3-19.6-2.1C100.7,472.6,101.1,470.2,101.2,468z"/>
<path class="st15" d="M489.1,150.1c-6.5-4.4-14.1-6.3-21.5-8.4c-11.6-3.2-23.5-5.1-35.5-5.7c7.6-2.1,15.5-1.5,23.1-0.6
	c13.3,1.6,26.1,6.1,37.4,13.4c1.7,0.9,3.2,2.3,4.2,4C494,152.9,491.3,151.9,489.1,150.1z"/>
<path class="st15" d="M257,73c-8.4-7.7-16.3-16-26.2-21.7c-6.6-3.8-12.9-8.1-20.7-9.2c-4.3-0.3-7-3.2-11.4-6.2
	c7.2,1,14.3,3,20.9,5.9c15.1,6.3,27,16.6,37,29.3C256.8,71.7,257,72.4,257,73z"/>
<path class="st13" d="M229.2,158.2L226,163c-1.1,1.9-2.1,3.6-4.6,1.2c-5.3-5-12.3-7.2-18.5-10.8c-1.1-0.6-2.8-1-2.4-2.6
	c0.4-1.8,2.2-1.7,3.6-1.8c6.6,1,13,2.7,19.3,5C225.6,154.9,228.2,155.5,229.2,158.2z"/>
<path class="st7" d="M251,104.1c-9-1.5-17.9-3.4-26.9-4.3c-11-1.1-22.1-1.9-33,1.3c-1.1,0-2.3,0.4-3.7-0.6c5-3.3,10.7-3.7,16-4.1
	c15.4-1.2,30.7,0,45.3,6.1C249.5,102.9,250.3,103.4,251,104.1z"/>
<path class="st6" d="M451.1,254.1c-3.8,3.5-8.8,5.2-13,8.1c-7.7,3.1-15.2,6.7-23.4,8.4c-1.7,0.4-3.2,0.8-4.7-0.4
	c-2-2.5-1.8-3.8,1.7-4.6c1.8-0.4,4,0.3,5.4-1.4c2.2,1.7,3.4-0.4,5-1.2c2.4-2.5,6-2.6,9-3.9c4.4-1.9,8.9-3.4,13.2-5.5
	c1.5-0.7,3-1.6,4.6-0.6L451.1,254.1z"/>
<path class="st16" d="M444.1,37.9l3.2,0.5c-8.5,4.3-16.8,9.1-24.7,14.4c-7.8,5.4-14.7,11.9-21.7,18.1c3-6.8,9.6-10.5,13.7-16.3
	C423.2,47.2,433.2,41.5,444.1,37.9z"/>
<path class="st13" d="M451.9,231.8c2.8,1.7,2,5,3,7.5c0.4,1-0.3,2-1.7,1.4s-2.8-0.8-4-1.8c-5.1-3.9-11.1-6.3-17.6-8
	c1.1-2.5,2.6-4.8,4.3-6.8c2.2-1.4,3.7,0.3,5.4,1.1c3.5,1.9,5.7,5.4,9,7.4C450.9,232.5,451.5,232.2,451.9,231.8z"/>
<path class="st13" d="M221.9,189.1c0.2,0.3,0.3,0.6,0.5,0.9c2.5,7.2,2.5,7.4-4.9,7.1c-5.4-0.2-10.3,2-15.5,2.1
	c-2.7,0.1-3.3-0.8-1.8-3.1c1.4-1.2,3.1-1.8,4.6-2.8c0.8-0.6,1.6-1.1,2.5-1.4c2.9-1.3,5.9-2.4,8.9-3.3
	C218.3,188,220.2,187.5,221.9,189.1z"/>
<path class="st13" d="M466.2,192.1c2.4,1.5,1.8,2.5-0.5,3c-5.2,1.1-10.5,1.9-15.7,3c-1.5,0.2-2.9,0.5-4.2,1.1
	c-3.5,1.8-5.2,0.5-5.7-3.1c-1.1-1.4-2.4-2.9-0.4-4.6C448.5,189.8,457.3,190.5,466.2,192.1z"/>
<path class="st13" d="M184.1,304.3c0-0.2,0-0.3,0-0.5c0.1-1.9-0.4-5,0.3-5.3c2.6-1,4.5,1,6.4,2.7c1.6,1.5,2.5,3.4,3.5,5.3
	c1.4,2.5,0.7,4.6-0.8,6.4c-1.7,2.2-4.4,1.4-6.5,0.9c-2.4-0.5-3.1-2.6-3-5.1C184.2,307.3,184.1,305.8,184.1,304.3z"/>
<path class="st13" d="M168.2,294.1c4.6,1.1,8.2,4.6,9.5,9.1c1.1,3.2-0.1,5.3-3.3,5.8s-6.7,0.7-7.2-3.9c-0.3-3-0.1-6-0.1-9
	C166.5,295,166.2,293.9,168.2,294.1z"/>
<path class="st17" d="M289.7,26.7c2.8,5.5,6,10.9,6.8,17.3c-7.2-11.7-14.7-23-24.9-32.5l7,3C282.7,18.2,287,21.7,289.7,26.7z"/>
<path class="st6" d="M253.1,237.2c-4.7-4-9-8.4-12.9-13.2c0.4-0.9,1.2-0.9,2-1c7.9,7.5,16.6,14.1,26,19.6c3.1,1.8,1,3,0,4.5
	c-4.1-0.8-6.7-4.1-10.1-6l0,0C256.3,240,255,238.1,253.1,237.2z"/>
<path class="st7" d="M241,123.2c-10.6,3.5-21.4,6.6-31.2,12c-5,2.8-9.8,5.9-14.7,8.8C207.3,130.3,222.9,124.1,241,123.2z"/>
<path class="st7" d="M475.2,190.1c-3.1-1.6-4.6-4.7-6.6-7.3c-7.2-9-16.4-15.6-25.5-22.4c-0.3-0.3-0.6-0.8-0.9-1.2
	C457.4,165,468.6,175.1,475.2,190.1z"/>
<path class="st11" d="M229.2,158.2c-6.4-3.6-13.4-5.5-20.4-7c-1.8-0.4-3.6-0.6-4.8-2.2c11-3.6,21.6-1.5,32,2.1
	c-0.5,1.3-1.5,2.4-2.8,3c-6.7-2.7-13.8-4.2-21-4.4c3.6,0.4,9.2,0.7,14.3,3.4c1.7,0.9,3.8,1.4,3.7,4L229.2,158.2z"/>
<path class="st7" d="M500.2,89.2c-5.5-2-11.1-1.2-16.7-0.7c-10.9,1.2-21.5,4.1-31.5,8.4c-0.7,0.2-1.3,0.2-2,0.2
	c9.2-5.8,19.4-8.6,30.1-10c7.9-1.1,15.7-1.5,23.7,0.7C503.2,89.8,501.4,88.7,500.2,89.2z"/>
<path class="st6" d="M486.1,306c-5.6-8.2-9-17.6-14.3-26c-5.5-8.7-11.4-17-17.7-25l2-1c4.3,6.1,8.7,12.2,12.9,18.4
	c6.4,9.5,11.9,19.7,16.5,30.3C485.9,303.8,486.1,304.9,486.1,306L486.1,306z"/>
<path class="st12" d="M218.1,145.1c-5,0.1-10.1-0.5-15.1,0.7c8.7-5.1,18.2-6.4,28-5.5c0.8,0.1,2.3,0.2,2.1,1.5
	c-0.1,0.5-1.3,0.9-2,1.3C227.1,145.6,222.3,143.5,218.1,145.1z"/>
<path class="st13" d="M420.3,257.9c-0.6,1.2,0.6,3.4-1.3,3.8c-1.5,0.3-2-1.6-2.4-2.7c-2.2-5.3-6.3-9.2-10.3-13.4
	c2.3-1.4,4.9-2.3,7.6-2.6C417.9,247.2,418.2,253,420.3,257.9z"/>
<path class="st11" d="M466.2,192.1c-3,2.2-6,0.1-9.1,0c-5.9,0-11.9,0-17.8-0.1c-1.6-0.6-2-1.6-1.3-3.2c5.9-3.3,12-1.6,18.1-0.6
	c0.9,0.1,2.1,1.8,2.6-0.5C461.7,188.1,464.4,189.7,466.2,192.1z"/>
<path class="st1" d="M213.1,333c-1.1-6-1.2-12.4-6.1-17c-2.8-3.2-6.2-5.9-9.9-8c0-0.9,0-1.9,0-2.8c8.9,2.2,15.6,9.5,17,18.6
	c0.3,2,0.7,4.1,1.1,6.1L213.1,333z"/>
<path class="st13" d="M238.2,215.1l5.6,3.7c-5.7,2.4-10.5,6.1-15,10.1c-2.9,2.6-2.6,0.1-2.6-1.8c1.8-3.4,4-6.5,6.5-9.4
	C234.2,216,235.7,214.5,238.2,215.1z"/>
<path class="st13" d="M248,335c-4.1,1.4-7.4,1.6-8.1-4.1c-0.4-2.6-2.8-4.3-4.6-6.5c5.1-1.1,8.1,2.2,11.8,3.8
	C248.8,330.2,248.8,332.6,248,335z"/>
<path class="st18" d="M238.1,139.1c2-3,2.3-7.2,6.1-9c-1.2,4.9-2.7,9.6-2.2,14.8c0.2,2.4-1.5,3.8-3.9,4.3c-2-0.3-3.6-1.4-5.5-2.5
	c1-2.6,3.6-3.1,5.6-4.1C241.1,141.2,239,140.2,238.1,139.1z"/>
<path class="st19" d="M451.9,231.8c0.2,1.2,1,2.5-0.8,3.3c-3-3.9-6.6-7.3-10.7-10c-1.2-0.8-2.6-1.4-3.2-2.9c2.3-4.8,3.2-5,6.3-1.2
	C446.4,224.6,449.8,227.6,451.9,231.8z"/>
<path class="st1" d="M449,253c-8.8,3.7-17.4,8-26.8,10c-0.1-1.1-0.2-2.3,1-3c8.9-1.7,16.9-5.9,24.9-10C448.4,251,448.7,252,449,253z
	"/>
<path class="st1" d="M438.1,189.3c-0.3,1.2,0.7,1.9,1.2,2.8c0.2,1.3,0.5,2.7,0.7,4c-2.6,0.4-1.6,2.5-1.9,4.1l-8.9,4.1
	c-1.4,0.5-3.1,0.2-4.1-0.9c-0.3-2.2,1.6-2.1,2.9-2.7c9-3.9,9.1-4.2,4.6-13c-0.7-1.4-2.1-2.7-1.4-4.5l0,0h3.1
	c1.2,0.4,2.2,1.3,2.8,2.5C437.8,186.7,438.1,188,438.1,189.3z"/>
<path class="st20" d="M438.1,189.3c-1.3-0.7-1.3-2.1-1.8-3.2c0.7-1.9,2.3-2.1,4.1-2.1c4.8,0,9.5,0.3,13.9,2.3l4.4,1.5l2.3,2.6
	C453,188.8,445.6,187.4,438.1,189.3z"/>
<path class="st8" d="M239.1,364.1c3.6-0.2,7.7,0.9,10.1-3.1c3.8,2.4,4.8,6.3,6.1,11.2L239.1,364.1z"/>
<path class="st13" d="M161.1,307.1c-0.3,2.3-0.7,4.6-1,6.9c-3.9,0.5-6.1-1.1-5.9-5.2c0-0.3,0-0.7,0-1c0.1-1.9-3-4.1-1.2-5.2
	c2.3-1.4,4.1,1.8,6.2,3C159.8,306.1,160.5,306.6,161.1,307.1z"/>
<path class="st18" d="M433.3,163.1c2.7,1,2.7,3.5,2.8,5.6c0.1,1.9,0.9,3.8,2.1,5.3c-9,0.6,2.5,3.9-0.7,5.5l-5.3,1.6
	c-0.7-1.3-1.5-2.8-0.8-4.2C433.7,172.5,432.9,167.7,433.3,163.1z"/>
<path class="st21" d="M207.1,193.1l-2,1.3c-1.1,0.3-2.3,0.6-1.8-1.4c3.6-4.1,8.3-6.8,13.1-9.1c3.2-1.6,5.9-1.6,5.6,3.3
	C217,189.2,211.5,189.8,207.1,193.1z"/>
<path class="st22" d="M267,90.1c-2-2.6-3.3-5.7-3.8-9c3.5,1.9,7.5-1,11,1.1L267,90.1z"/>
<path class="st11" d="M238.2,215.1c-4.4,1.4-6.1,5.8-8.9,8.8c-1,1.1-1.7,2.4-3,3.1c1-5.8,4.1-10.6,7.4-15.8
	C234.7,213.2,236.6,214,238.2,215.1z"/>
<path class="st12" d="M442.1,179.1c-1.2-0.4-2.1-1.5-2.3-2.8c7.5,0.9,14.6,3.7,20.6,8.2c-4.9-0.8-9.4-3-14.3-3.4
	C444.8,180.3,443.2,180.2,442.1,179.1z"/>
<path class="st13" d="M98,480.1c-2.2-4.4-4.4-8.7-0.4-14.2c2,5.7,1.9,11.3,4.3,16.2C99.6,483.5,99.2,481.2,98,480.1z"/>
<path class="st23" d="M248,335c-1.4-2.1-0.7-4.5-1-6.8c0.8-1.2,1.2-2.5,1.1-3.9l1.9-1.2c1,0.6,1.6,1.7,1.5,2.9
	c-0.2,2.1-1,4.2-0.5,6.4c0.2,1.3,0.3,2.6,0.1,3.9l2,3.9c0.5,1.2,0.6,2.2-1.2,2.2l-1.9-2.1C249.4,338.4,248.7,336.7,248,335z"/>
<path class="st24" d="M208.8,175.1c1.4-4.7,4.1-7.4,6.1-10.5c1.4-2.4,2.1,0.1,3,0.5c1.7,0.8,0.9,2-0.2,2.6
	C214.5,169.4,212.8,172.7,208.8,175.1z"/>
<path class="st11" d="M454.3,186.3c-6-1-12-2.5-18-0.3l-2.1-2.9C441.3,181.6,447.9,183.1,454.3,186.3z"/>
<path class="st22" d="M431.2,109.1c-1.1,2.9-3.2,5.4-5.9,7c-1.5-2.5-2.6-5.2-3.2-8C425.1,108.3,427.9,111.3,431.2,109.1z"/>
<path class="st25" d="M98,480.1c1.4,0.4,2.2,2.1,3.9,2c2.2,2.6,0.3,4.2-1.8,4.7c-1.9,0.5-4.2,1-6.1-0.7l0.1-2
	C96.9,484.2,98.6,483.2,98,480.1z"/>
<path class="st26" d="M448.1,201.2c0.6-0.1,1.1-0.2,1.7-0.3c1.5,5.1,3.9,10,4.2,15.7c-2.3-0.9-2.5-2.8-3-4.5
	C450.3,208.4,446.4,205.6,448.1,201.2z"/>
<path class="st14" d="M197.1,308.1c5.1,0.4,8.1,3.5,9.9,8c-3.3-0.7-5.5-3.7-8.9-4C198.2,310.7,197.9,309.3,197.1,308.1z"/>
<path class="st0" d="M263,282.2c-3,0.1-4.2,3.4-6.9,4c0-0.7,0-1.5-0.1-2.2c2.1-3.4,5.7-5,8.9-7C264.8,278.9,264.5,280.7,263,282.2z"
	/>
<path class="st11" d="M437.3,222.2c4,2.9,8.4,5.4,11.6,9.3c0.9,1.1,2.3,1.9,2.2,3.6c-3.9-2.4-6.2-6.6-10.3-8.8c-1.6-0.8-3-2-4.8-2.1
	L437.3,222.2z"/>
<path class="st8" d="M448.1,201.2c0.6,3.8,2.9,7,2.9,10.9c-1.7-2.4-3.2-4.8-5-7C443.7,202.1,445.3,201.3,448.1,201.2z"/>
<path class="st11" d="M207.1,193.1c4.2-4,9.4-5.2,14.9-5.9c0,0.6,0,1.3,0,1.9C216.5,188.7,212.1,191.9,207.1,193.1z"/>
<path class="st10" d="M218.1,145.1c4.1-2.1,8.5-2,13-2c-1.8,2.6-4,3.4-7.2,2.5C222,145.2,220.1,145.1,218.1,145.1z"/>
<path class="st11" d="M453.2,245.2l1-1.1c1.9,1.8,0.6,4.1,0.7,6.1c0.1,2.4-1.3,2.2-2.8,0.9C451.2,249,452.5,247.1,453.2,245.2z"/>
<path class="st1" d="M271.1,327.1l-1.9,3c-0.6,1.6-1.7,1.8-3.1,1l0,0c-0.9-1.1-0.5-2.2,0-3.3c0.8-1.5,1.3-3,2.8-4
	c0.5-0.1,0.9-0.1,1.4,0.1C271.1,324.8,271.8,325.8,271.1,327.1z"/>
<path class="st1" d="M238.1,346.1c-1.5-3.6-1.5-7.6,0-11.1c0.8,0.4,1.2,1.3,1.2,2.2c0.9,1.3,0.5,2.6,0,3.9
	C238.8,342.7,238.4,344.4,238.1,346.1z"/>
<path class="st2" d="M163.2,314.1c-0.1-2.1-0.3-4.1,1-6l3.7,2.7L163.2,314.1z"/>
<path class="st2" d="M181.1,307.1v4c-0.5,0.9-0.9,1.9-2.1,2c-0.6-0.8-3.6-0.5-1-2.7c1-0.8,1.4-2.2,2.1-3.3c0.2-0.3,0.6-0.3,0.9-0.1
	L181.1,307.1z"/>
<path class="st27" d="M276.1,65.1c0.1-2,1.5-3.1,3-4C278.8,62.9,280.6,66.3,276.1,65.1z"/>
<path class="st14" d="M181.1,307.1l-1-0.1c0-1.7,0-3.3,0-5c0.5-0.6,1.4-0.6,1.9-0.1c0,0,0,0,0.1,0.1
	C181.9,303.8,182.8,305.7,181.1,307.1z"/>
<path class="st27" d="M423.1,85.1c0.8,1.2,1.1,2.6,1,4C419.3,88.9,421.8,86.8,423.1,85.1z"/>
<path class="st27" d="M322.1,72.1c0.1,0.8-0.3,1.6-1,2c-1-0.9-2.2-1.9-1.3-3.2C320.1,70.3,321.5,71.2,322.1,72.1z"/>
<path class="st28" d="M453.2,245.2c0.5,2.1-0.7,4-1.1,5.9C450,248.7,451.1,246.9,453.2,245.2z"/>
<path class="st6" d="M219.2,233.1c0.9-1.7,2.3-3.1,3.9-4v2C221.7,231.6,220.9,233.4,219.2,233.1L219.2,233.1z"/>
<path class="st11" d="M203.2,193c-0.1,1.4,1.1,1.1,1.8,1.4l-4.8,1.7C200.8,194.7,201.9,193.5,203.2,193z"/>
<path class="st1" d="M179,313.1c0.4-0.9,1.1-1.7,2.1-2c0.8,1.2,0.8,2.5-0.5,3.3C179.9,314.8,179.4,313.8,179,313.1z"/>
<path class="st27" d="M310.1,55.1c1.5-0.1,2.9-0.1,3.1,1.9C311.5,57.4,309.7,58,310.1,55.1z"/>
<path class="st1" d="M182.1,302.1h-2l-1-2.8l1.9-0.2L182.1,302.1z"/>
<path class="st29" d="M379.1,83.1v-2c0.5-0.8,1.7-1.3,2-0.7C381.8,81.9,380.1,82.4,379.1,83.1z"/>
<path class="st14" d="M239.2,341v-3.9C242.6,338.4,239.8,339.7,239.2,341z"/>
<path class="st10" d="M442.1,179.1c1.6,0,3,0.8,4,2C444.4,181.2,442.9,180.9,442.1,179.1z"/>
<path class="st30" d="M475.1,192.2c0-0.7,0-1.4,0.1-2.1c1,0.9,2.1,2,1.5,3.2C476.3,193.9,475.5,192.7,475.1,192.2z"/>
<path class="st11" d="M168.2,294.1c-0.9,0.4-1.1,1.2-1.1,2.1c-1.1-0.6-1.8-1.9-1.3-2.7S167.6,292.9,168.2,294.1z"/>
<path class="st0" d="M237,297c1.2,2.6,1.9,5.3,2.1,8.2c-5.1-7.1-10-14.5-17.9-19c-10.6-6.1-21.9-6.5-33.5-3.2
	c-3.9,1.1-7.7,2.2-11.6,3.3c0.4-1.8,1.9-3,3.1-4.2c8.5-1.8,16.9-3.5,25.8-3c13.1,0.7,22.9,6.5,30.5,16.8
	C235.9,296.3,236.5,296.7,237,297z"/>
<path class="st6" d="M211.9,238.5l-4.7,5.6C208.4,241.6,209.7,239.2,211.9,238.5z"/>
<path class="st6" d="M219.1,233.1c-1,1.7-2.1,3.2-4.3,3.5C215.9,235,216.6,233.1,219.1,233.1L219.1,233.1z"/>
<path class="st14" d="M445.1,369.1c-3.2,0.8-6.3,1.8-8,5c-4.3-1-5.9-4.8-7.4-8.1c-3.7-8.3-8.3-8.9-17.7-7.4c-2.1,0.3-4,1.4-6.2,1.5
	c-2.8,0.1-4-0.9-3.7-3.7s1.9-3.6,4.4-3c5.3,1.2,10.9,0.9,16.1-0.8c4.4-1.4,9-1.7,13.6-2.5c6.6-0.3,12.5,2.2,18.5,4.2
	c1.2,0.4,1.8,1.6,1.5,2.8c0,2.1-2.6,2.2-3.1,4c-2.5,2.6-5.8,2.5-9.1,2.3c-4.7-0.5-8.2-3.3-12.4-6.9c3.3,3.5,6.7,5.3,10,7.2
	C443.7,364.8,446.4,365.8,445.1,369.1z"/>
<path class="st14" d="M330.2,342.1c-0.4-1.7,1.8-2.5,1.7-4c-0.2-7.8,3.4-3.9,6.1-2c13.4,9.4,21.4,22.5,26,37.9
	c-5.7-6.3-10.4-13.5-16.8-19.4C342,349.7,336.8,345,330.2,342.1z"/>
<path class="st14" d="M313.2,346c-1.6-4.1-3.2-8.3-4.9-12.4c-0.8-1.8-1.5-3.6,0.7-4.7c2-1,4.9-3.1,6.3-1.3c3.3,4,9.5,5.7,9.5,12.2
	c0,0.4,0.9,0.9,1.4,1.3h-2.9c-4.2-1.6-4.3-6.4-7.3-9c2.2,2.6,2.7,6.1,4.5,8.9c0.5,0.8-0.4,1.8-1.5,2.1
	C316.7,343.3,315.1,344.9,313.2,346z"/>
<path class="st31" d="M462,348.2c-1.6,1.6-3.3,3.3-4.9,4.9c-4.4,1.5-8.1-1.3-12.2-1.8c-3.1-0.6-6-1.6-8.7-3.2
	c-8.4-6-10.7-14.4-10.1-24.1l0.2-2.9h0.5c0.7,4.9,1.3,9.7,2.2,14.5c1,5.3,4.5,8.3,9.7,9.4c5.5,1.1,11,2.3,16.6,2
	C457.5,347,459.8,347.4,462,348.2z"/>
<path class="st1" d="M441.1,381l2,0.9c-6,2.7-10.5,0.9-14.1-5.1c-2.2-3.6-2.8-8.3-7.2-10.6c-3-1.6-5.6-2.5-8.9-0.5
	c-7.4,4.2-13.6,3-17.8-3.5c1.1,0.1,2.8-0.3,3.4,0.3c4.8,4.8,9.4,2.8,14.4,0.4s12.3,0.6,14.9,5.6c1.2,2.4,2.4,4.8,3.5,7.1
	C433.3,379.7,436.8,381.1,441.1,381z"/>
<path class="st1" d="M436.2,348.2c1.1-0.8,2.1-0.5,3.2,0c5.6,2.6,11.9,3.1,17.7,4.9c1.3,3.2,3.2,5.5,7.1,5c0,1.3-0.8,2.5-2,3
	c-2.8-0.1-3.8-3-6-4.1c-1.1-1.9-2.9-2.6-4.9-3c-5.1-1-10.2-2.4-15.1-4.1L436.2,348.2z"/>
<path class="st1" d="M385.5,271.6c4.5-3.4,10.1-3.6,14.4-9.3c-0.2,5.2-1,9.7-3.3,12.1C392.1,279,389.7,271.3,385.5,271.6z"/>
<path class="st1" d="M339.1,413.1c-0.7,2.3-1.1,4.5,1.6,5.9c0.4,0.2,1.1,0.7,1,0.9c-1.2,4.5,0.2,6.7,5.2,6.5c1.3,0,0.8,1.5-0.1,2.2
	c-1.2,0.7-2.6,0.8-3.8,0.4c-3.6-0.8-8.4-11.7-6.6-15C337,412.9,338.2,413.1,339.1,413.1L339.1,413.1z"/>
<path class="st1" d="M339.1,413.1c-0.1-2.1,0.4-3.9,3.2-4.6c-0.3,3-0.4,6,3.8,5.8c0.7,0,1.9,0.9,1.2,1.6c-5.2,5.5,2.1,4.1,3.2,6
	c-4.5,2-6.7,1.2-7.3-3.1C342.8,415.9,340.2,415.1,339.1,413.1L339.1,413.1z"/>
<path class="st1" d="M319,343c0.3-0.4,0.8-1.2,0.7-1.3c-2.7-2.4-1.5-7.2-5.4-8.8c-1.1-0.4-2.5-1-1.5-2.4c0.7-1,2.2-0.7,3.2,0
	c3.1,2.1,3.7,6.1,6.2,8.7c0.4,0.5,0.7,1.1,1,1.7C320.7,345.5,320.7,345.5,319,343z"/>
<path class="st14" d="M400.1,261.1c1.5-1.7,2.3-0.3,2.9,0.8c4.5,8.5,7.9,17.3,8,27.1c-2-2.7-2.3-6.1-2.9-9.2
	C406.8,273.1,404,266.7,400.1,261.1z"/>
<path class="st1" d="M354.1,315.1c0.5,3.8,3.4,4.3,7.8,4.3c-3,2.7-4.9,3.8-7.4,1.5C352.5,319.1,350.5,317.2,354.1,315.1L354.1,315.1
	z"/>
<path class="st1" d="M336.8,425.8c-4,0.6-5.6-1.1-5.7-4.6c0-1.2,0.3-2.6,1.6-2.7c2-0.1,1.1,1.5,1,2.5
	C333.4,423.4,336.3,423.4,336.8,425.8z"/>
<path class="st11" d="M395.7,360c-1.4-0.1-3.3,0-3-1.6c0.4-1.9,2.3-2.7,4.4-2.4c1.1,0.2,3.2-0.6,2.9,1.5S397.5,359.9,395.7,360z"/>
<path class="st14" d="M355,349.2l-4.4-5.5c3.2,1.7,6.6,3,8.4,6.4L355,349.2z"/>
<path class="st0" d="M271.1,327.1c-0.3-1-0.6-2-1-3c-2.3-1.9-2.2-4.7-3.1-7.2c-0.4-0.9-0.3-1.9,0.1-2.8c-0.3-1.8-2.8-3.1-1-5.3
	s4.2-2,6.4-1.4c4.7,1.3,9,3.3,11.7,7.7c0.3,1,1.1,1.8,2,2.1c1.7,1.8,2.8,3.6,0.9,5.9C282.4,329.8,277.3,331,271.1,327.1z"/>
<path class="st14" d="M287.1,323.1c0.5-2.1-0.6-3.9-0.9-5.9c7.5,1.3,12.4,6.2,16.9,11.8C297.9,326.6,292.5,324.6,287.1,323.1z"/>
<path class="st2" d="M213.1,471.1c3.7,0.4,2.4,4.8,4.9,6.2c0.9,0.5-0.4,0.9-0.9,1.2c-0.6,0.4-1.8,0.3-1.6-0.1
	C216.4,475.3,211.7,474.2,213.1,471.1L213.1,471.1z"/>
<path class="st2" d="M370.8,310.6c-2,1.1-3.4,2.5-4.7,0.2c-0.4-0.7-1.2-1.6-0.3-2.2C367.9,307.3,368.8,309.8,370.8,310.6z"/>
<path class="st14" d="M326.6,333.6c3.4,1.8,3.4,1.8,1.9,5C326.2,337.4,327.8,335,326.6,333.6z"/>
<path class="st2" d="M360.1,312.1c-0.2,0-0.3,0.1-0.5,0c-1.4-0.1-2.9,2.1-4.3-0.1c-0.3-0.6-0.1-1.4,0.5-1.7l0,0
	C358.2,308.8,358.9,311.2,360.1,312.1L360.1,312.1z"/>
<path class="st2" d="M360.1,312.1c1.5,0,3.1-0.2,3.6,1.7c0.3,1.1-0.8,1.6-1.5,1.5C360.4,315.1,360.3,313.5,360.1,312.1L360.1,312.1z
	"/>
<path class="st2" d="M229,471.5c-0.1,1-0.6,1.6-1.6,1.1c-0.6-0.3-1.8-0.4-1.5-1.5c0.2-0.8,0.4-1.8,1.5-1.6S228.9,470.5,229,471.5z"
	/>
<path class="st14" d="M321.3,327.6c2.3,1.4,3.7,2.1,3.4,3.9c0,0.2-0.9,0.5-1.3,0.4C321.5,331.4,322.2,329.7,321.3,327.6z"/>
<path class="st2" d="M210.1,475.1c1.3,0.6,2.2,1.4,1.8,2.9c-0.2,0.7-0.7,0.4-1.2,0.3C208.7,477.6,210.4,476.1,210.1,475.1
	L210.1,475.1z"/>
<path class="st32" d="M373.8,298.3c-1.2-0.6-1.8-2-1.5-3.3C373.9,295.7,374.1,296.8,373.8,298.3z"/>
<path class="st7" d="M495,342c-7-4-13.4-9-21-11.8c-13.6-5-27.1-4.5-40.2,2c-0.9,0.4-1.8,0.7-2.8,1c-2.1-2.9-0.8-5.6,0.6-8.3
	c8.1-15.1,14.8-30.9,20.2-47.2c1.6-5,2.9-10,4.5-15.4c11.7,14.9,20.5,30.8,27.9,47.6c4.1,9.5,7.6,19.2,10.4,29.2
	C494.8,340.1,494.9,341,495,342z"/>
<path class="st7" d="M443,265.2c-3.6,16.4-8.4,32.6-14.2,48.4c-1.6-0.1-1.4-1.4-1.8-2.5c-1.8-5-4-9.6-7.8-13.5
	c-5.1-5.3-6.5-12.3-7-19.4c4.1-3.3,9.4-3.9,14.1-5.8C431.9,270,437,266.6,443,265.2z"/>
<path class="st33" d="M428.8,321.9c2.8-8.6,5.6-17.2,8.4-25.7c3.3-10,5.9-20.2,8-30.5c0.5-2.5,1-5.4,3.9-6.5c1.2-0.4,2-2.4,3.4-1.4
	s1.5,2.6,1,4.5c-2.7,10.6-6.1,20.9-10.1,31.1c-3.3,8-6.8,15.8-10.2,23.7C432.3,319,431.3,320.8,428.8,321.9z"/>
<path class="st8" d="M443,265.2c-9.6,5.8-19.7,10.5-30.7,13c0.1-1.1-1.7-2.5,1-3.3c9.7-2.6,19.1-6.3,28-10.9
	C442.7,263.3,443.1,263.8,443,265.2z"/>
<path class="st14" d="M410,270.2c8.2-0.9,15.9-3.7,23.4-6.8c1.5-0.6,2.9-1.5,4.7-1.2c-7.9,5.2-16.9,7.7-25.8,10.3
	C409.6,273.3,410.3,271.4,410,270.2z"/>
<path class="st2" d="M396.1,254.1c0.7,0.9,1.3,1.9,1.8,2.9c0.4,1,0.5,2.4-1,2.9c-0.5,0.2-1,0.2-1.4,0c-1.5-1,0-2,0.2-2.9
	L396.1,254.1L396.1,254.1z"/>
<path class="st2" d="M417.1,313.1c1.3-3,4.2-1.6,6.4-2.3C421.8,312.8,420,314.3,417.1,313.1L417.1,313.1z"/>
<path class="st2" d="M389.7,263.9c-0.3-0.4-1.1-1-1-1.3c0.2-1.2,1.2-2.1,2.4-2.1c0.9,0,0.9,0.8,0.8,1.5
	C391.8,263.1,390.8,263.9,389.7,263.9z"/>
<path class="st2" d="M421.1,317.1c0.7-1.1,2-1.7,3.3-1.5c0.2,0.4,0.3,0.8,0.2,1.2C423.6,318.5,422.3,316.8,421.1,317.1L421.1,317.1z
	"/>
<path class="st6" d="M486.1,306.1c1.4,1,2.1,2.6,1.8,4.3C486.1,309.3,486.1,307.7,486.1,306.1L486.1,306.1z"/>
<path class="st2" d="M422.6,322c-0.7-0.2-1.1-0.5-0.7-1c0.3-0.3,0.7-0.6,1.2-0.6c0.2,0,0.4,0.6,0.6,1L422.6,322z"/>
<path class="st1" d="M445.1,369.1c-0.2-3.1-2.8-3.8-5-5c-4-2.2-8.3-4.1-10.6-9.9c5.5,2.3,8.3,7.3,13.5,7.9c2.5,0.9,4.8,2.2,5.8,4.9
	c0.7,1.7,2.4,2.9,4.2,2.9l4.1,1.2c-2.1,1.4-4.5,2.1-7,2C447.5,373.1,446.8,370.6,445.1,369.1z"/>
<path class="st11" d="M466,369.6c0,0.6-0.4,1.2-1.1,1.3c-0.2,0-0.3,0-0.5-0.1c-3.1-1-6.4-1.8-9.1-3.5c-2.5-1.5-0.8-3.6,0.9-4.7
	C458.3,361.4,466.1,367.1,466,369.6z"/>
<path class="st2" d="M453.1,370c-1.7,1-3.5,1.9-4.3-0.7c-1.1-3.1-3.5-5-5.7-7.1c3.4-0.1,6.8,0.2,10.1-1.1
	C451.9,364,449.9,367,453.1,370z"/>
<path class="st13" d="M451,380c-4.1,1.7-7.2-0.7-10.2-2.9c-1-0.7-0.9-2.1,0-3.1c1.5-1.7,3-0.6,4.4,0.2
	C447.5,375.7,449.5,377.7,451,380z"/>
<path class="st11" d="M451,380c-2.2-1.6-4.2-3.5-5.8-5.8C448.2,374.7,450.5,377,451,380z"/>
<path class="st13" d="M465.8,356.1c-2-0.1-4.3,0.4-4.6-2.5c-0.1-1.3,1-1.7,2-1.5c2,0.5,4.8,0.3,5.4,2.6
	C469.1,356.6,466.9,355.8,465.8,356.1z"/>
<path class="st34" d="M337.6,154.6c-1.9-23.6-0.1-46.6-15.3-67c16.1,8.7,32.5,11.6,51.3,8.1C352.4,110.3,346.9,132.8,337.6,154.6z"
	/>
<path class="st0" d="M425.1,203.1c1.4-0.1,2.9,0.3,4.1,1.1c-1.9,4.3-4.8-0.6-7,0.8c-1.4,0.5-2.9,0.6-4.4,0.3
	c-10.9-1.6-22.1-1-32.8,1.9c-4.8,1.7-9.5,2.7-14.4,0.2c-2.5-1.2-4.9-1-5.5,2.7c-0.2,1.1-0.7,2.4-2.1,2.3c-1.1-0.1-1.9-0.9-1.9-2
	c-0.3-4.7-4-7.5-6.1-11.2c-3.6-2.3-7.2-2-11.3-0.6c-8,2.8-16.1,2.8-23.2-2.4c-11.3-8.3-18.8-6.7-25.2,5.5c-3.1-3.2,1.3-5.3,0.9-8.6
	c-3.5,1.3-7.1-2.5-10.9,0.5c-1,0.8-2.7-0.8-3.9-1.6c-13-9.5-27.1-16.4-43.6-16.9c-2.2-0.1-3-0.9-2.9-2.9l3.1-0.1
	c2.6-1.4,4.9-0.5,7,1l4,1c2.7-1.9,5.1,0,7.5,0.7c6.9,2.1,13.7,4.6,19.4,9.3c0.4,1,1.1,1.7,2.1,2.1c6.9,2.3,14.2,2.4,21,5l5-2
	c6-1.7,11,0.1,15.9,3.9c6.6,5.1,14.2,6.7,22.3,3.5c2.4-1.1,5.1-1.6,7.7-1.4c3.4-0.2,5.9,2.2,8.9,3c0.7,1.3,1.7,2.4,3.1,3
	c1-0.4,2.1-0.5,3.1-0.1c6.2,2,12.6,1.6,18.9,2.1c1.1,0,2.4,0.2,3.1-1.1c2.1-1.9,4.9-1.9,7.5-2.1c5.8-0.4,11.6-0.5,17.4-0.2
	c1.5-0.1,3,0.4,4.1,1.4l3.1,0.1C421.3,201.4,423.9,200.3,425.1,203.1z"/>
<path class="st8" d="M355.1,199.2c4.7,2.8,7.6,6.8,7.4,12.9c1-0.8,1.4-0.9,1.5-1.1c1.1-6.2,1.5-7.1,7.3-4.7c4.8,1.9,8.7,0.9,13-0.1
	c0.6,3.8,0,8,3.8,10.8c1,2,3,2.9,4.9,4c2.4,1.4,2.3,3.2,0.3,4.7c-2.9,2.2-5.9,4.3-9.9,2.9c-1.8-1.6-1.8-3.9-2.8-5.8
	c-1.4-2.9-2.7-1.2-4,0.1c-2.1,2-2.9,5.3-6.3,5.9c-13-1.1-25.2,2-36.8,7.8c-1.9,1-3.7,2.3-5.9,2.5c-1.6,0.1-3.8,1-4.4-1.7
	c3.2,0.3,6.3-0.9,8.5-3.2c4.8-5.1,9.8-10.1,12.5-16.7c0.8-3.1,3.4-3.2,5.9-3.4c0.8-0.1,1.7,0,2.5-0.1c2-0.2,4.9,0.5,5.1-2.5
	c0.1-2.6-2.8-1.4-4.2-2.3c-0.4-0.2-0.9-0.5-1.2-0.8C354.4,205.6,355.8,202.7,355.1,199.2z"/>
<path class="st0" d="M383.1,228c2.1,0.3,4.3-0.1,6.1-1.2c1.7-0.8,4.2-1.5,4.3-3.5s-2.6-1.4-3.8-2.3s-2.7-1.9-2.6-3.8
	c0.3-0.2,0.6-0.6,0.8-0.5c6.3,1.8,12.5,3.8,19.2,2.9c0.6-0.1,1,0.7,1,1.4c-0.3,0.4-0.6,1.2-0.9,1.1c-8.8-1.2-14.1,6.7-21.9,8.4
	c-5.1,1.2-10.4,1.2-15.5,0.2c-11.8-2.5-23.1,0.6-33.6,5.9c-4.9,2.5-9.8,4.1-15.2,3.5c-8.1-5.4-13.9-13.7-22.7-18.3
	c-5.9-3.1-11.8-5.6-18.7-5.9c-7.8-0.3-13.7-4.7-18.4-10.4c-2.4-2.9-4.3-5.6-8.1-6.5c-1.5-0.4-2.4-1.6-3.6-4.5
	c7,3.5,13.2,5.7,20.6,3.1c-1.5,3.4-3.5,3.4-5.6,3.4c-2.8,0-2.7,1.1-1.1,2.9c2.6,3,5.8,5.5,9.5,7.1c0.9-0.1,1.7,0.1,2.5,0.4
	c1.5,0.6,3,1,4.5,1.3c1,0.1,2,0,3-0.2c0.4,0,0.8,0.2,1,0.5c13.1,3.7,24.8,11.1,33.8,21.2c1.3,1.5,3.1,2.5,5.1,2.8
	c2.7,2.1,5,0.5,7.3-0.7c11.1-5.8,22.9-9.4,35.5-9.4c1.8-0.1,3.6,0.2,5.3,0.9c1.1-0.3,2.3-0.3,3.4-0.1c1.3,0.1,2.7,0.1,4,0
	c0.9-0.1,1.8-0.3,2.7-0.4C381.9,227.3,382.6,227.5,383.1,228z"/>
<path class="st0" d="M326,228.5c-1,0.1-1.8-0.6-1.9-1.6c0-0.1,0-0.3,0-0.4c0.3-6.8-0.7-13.6-2.9-20c-0.4-1.2,0.1-3.2,2.1-1.6
	c3.6,3,7.4,4.4,11.8,1.7c0.6-0.4,1.4-0.6,1.7,0.2c0.3,0.6,0.3,1.3,0,1.9c-4,5.7-7.2,11.9-9.6,18.4
	C326.8,227.6,326.5,228.1,326,228.5z"/>
<path class="st0" d="M312.6,211.8c-2.8-2.9-6.4-3.9-10-4.7c-2.1-0.3-3.6-2.2-3.4-4.3c0-1.2-0.6-2.9,1.1-3.5c2-0.6,4.1-0.2,5.6,1.2
	C309.3,203.4,312.3,206.8,312.6,211.8z"/>
<path class="st0" d="M352.1,208.1c1.1,0,2.3-0.1,3.4,0c1.7,0.1,4.1-0.4,4.1,2.1c0,2.1-1,4.3-3.5,4.6c-1.8,0.2-3.6,0.3-5.4,0.2
	c-2.5-0.3-4.9,0.5-6.7,2.2c-1.2-1.1-1.3-2.1,0.2-3.2C346.9,212.1,349.5,210.1,352.1,208.1z"/>
<path class="st0" d="M232,177.9c0,3.9,0,7,3.4,8.5c0.5,0.4,0.7,1.1,0.6,1.7c-2,3.5,0.9,5.1,2.7,7c0.6,0.7,1.8,1.4,1,2.4
	s-1.7,0.4-2.6-0.1C232.7,194.7,228.9,182.4,232,177.9z"/>
<path class="st35" d="M275,212.2c-0.8-0.2-1.8-0.1-2.1-1.1c0-2.2,0.6-4.3,1.7-6.1c1.3-2.4,2.7-2.5,4.6-0.9c2.3,2.6,3,5.9,3.8,9.1
	c-0.7,1.5-2,0.8-3,0.8c-0.8-0.3-1.4-0.9-1.7-1.6C277.3,208.9,276.2,211.1,275,212.2z"/>
<path class="st0" d="M227.2,183.5c1,3.4,0.7,7.2,4.2,9.5c0.5,0.3,0.6,0.9,0.4,1.4c-0.1,0.1-0.2,0.2-0.3,0.3c-0.9,0.6-2,0.4-2.7-0.4
	C225.5,191.2,225.7,187.5,227.2,183.5z"/>
<path class="st8" d="M283.1,213.2c-2.5-2.5-2.4-6.1-3.8-9.1c3.8,1.9,3.7,5.8,4.8,9L283.1,213.2z"/>
<path class="st0" d="M267,328.1c-0.3,1-0.6,2-0.9,3c-6.9-2.4-10.3-1.3-14.9,5c-0.9-1.2-1.2-2.7-1-4.1c1.1-1.8,1.4-3.9,0.9-5.9l-1-3
	c0-4-2.1-7.1-4.6-10c-0.9-1-1.8-2.1-1.1-3.5s2.1-1.4,3.4-1.5c6.3-0.4,12,0.7,16.3,6c0.9,0.9,2.3,1.1,2.8,2.3c1.1,2.2,1.4,4.7,1,7.1
	C268.4,325.2,263.9,325.9,267,328.1z"/>
<path class="st0" d="M252.1,342.2c0.7-0.5,1.2-1.3,1.2-2.2c7.1,5.7,14,11.7,15.6,21.4c0.2,1.1,0.7,2.2-1.4,4
	C265.9,355,259.4,348.3,252.1,342.2z"/>
<path class="st7" d="M408.2,221.1c-0.2-0.2-0.5-0.7-0.7-0.6c-7.3,2-13.9-0.3-20.3-3.3c-4.9-2.6-4.7-6.6-3-10.9
	c12.6-3.7,25.2-4.6,38-1.2C425,213.8,419.2,220.4,408.2,221.1z"/>
<path class="st0" d="M430.1,216.1c-2.7,2.1-6.2,3.4-7.1,7.4c-0.3,1-1.8,1.9-2.9,2.6c-1.4,0.8-3.5,2.1-4.4,0.3s1.6-1.9,2.8-2.5
	c0.9-0.4,2.3-1,2.4-1.6c0.4-5.5,7.1-5.9,8-11.1C430.8,212.9,429.9,214.6,430.1,216.1L430.1,216.1z"/>
<path class="st0" d="M430.1,216.1c3.8,1.8,2,4.6,1,6.9c-1.1,2.5-3.7,3-6,3.7c-0.1,0-0.7-0.6-0.7-1c-0.1-0.7,0.3-1.3,1-1.5l0,0
	c4-1.3,4.9-4.4,4.9-8.1L430.1,216.1z"/>
<path class="st36" d="M299.1,191.1c-7.3-0.4-14.7-0.5-21-5c5.1-3.5,10.8-6.1,14.4-11.8c9.4-14.8,1-41.7-19.4-44.4
	c-11.3-1.5-20.1,1.6-26.9,10.5c-0.5,0.5-1.1,0.9-1.7,1.2c1.4-13.8,8.7-20.3,22.8-23.7c18-4.3,34.7,9,39.3,27.2
	C310.7,161.5,308.6,176.9,299.1,191.1z"/>
<path class="st37" d="M259.1,138.1c5.3-6.1,17.7-6.9,24.6-2c6.3,4.5,9,10.7,9.6,18.1c0.4,9.5-4.6,17-12.9,19.3
	c-1-0.3-1.6-1.3-1.5-2.3c5.6-3.7,10-8,9.4-14.4c-0.5,5-3.7,9.1-8.8,12.1c-1.4,0.8-3.9,0.6-3.6,3.2c0.4,0.6,0.5,1.3,0.4,2
	c-0.3,0.4-0.7,0.7-1.2,0.9c-14.2,1.9-26-8.4-24.6-21.5c3.9-1.3,8.4-1.3,11.2-5.1c1-0.5,2.3-0.5,3.3-1.1c1.9-1,3-2.6,2.5-4.8
	c-0.3-2-2-3.6-4-3.8c-1.3-0.2-2.6,0.3-3.9-0.1L259.1,138.1z"/>
<path class="st7" d="M280.1,172.9c8.3-3.5,11.9-10.3,13.1-18.8c3.3,10.4-3.3,23.7-13.9,28c-1.2,0.5-2.3,1.2-3.4,1.9
	c-8-2.8-15.1-7.6-23.5-9.2c-1.1-0.2-2.2-0.5-3.3-0.7c-5.9-8.7-6.6-17.7-1.2-27c1.2,0.6,1.9,1.9,1.7,3.2c-1,5.5-1.5,10.9,1.8,15.9
	c5.2,8,13.2,10.6,24.6,7.8v-0.1C277.1,172.8,278.7,172.4,280.1,172.9z"/>
<path class="st14" d="M245.1,173.1c-2.4,0.3-4.7-0.4-7-1c-1.6-3.1-5.1-4.1-7.3-6.7c-1.4-1.7-1.6-2.6-0.2-4.6
	c2.8-3.9,6.3-7.1,10.5-9.5C240.2,159.3,242.2,166.3,245.1,173.1z"/>
<path class="st38" d="M248.9,150.1c-0.3-1-0.7-2-1-3c0.9-4.4,3.7-6.7,8.1-7c0.8-0.1,1.5,0,2.3,0.2c3.4,2,5.6,4.5,3.6,8.8
	c-2.5,4.1-5.7,6.4-10.7,4.1c-1.4-0.1-2.5-1.3-2.4-2.7C248.9,150.3,248.9,150.2,248.9,150.1z"/>
<path class="st12" d="M267.1,115.1c-2.4,1-4.8,1.9-7.3,2.6c-1.4,0.3-3.8,2.8-4.3,0c-0.3-1.5-0.6-5.7,3.4-5.6c1.5,0,2-0.8,2.6-1.8
	c2-3.1,4.3-3.1,6.8-0.6c-1.3,1.6-3.9,2.3-3.8,4.7C264.6,115.4,266.2,115,267.1,115.1L267.1,115.1z"/>
<path class="st39" d="M230.3,157.1c-5.6-5.2-12.9-5.4-19.8-7c-0.6-0.1-1.2-0.3-1.7-0.7c8.5,0,17.3-2,24.5,4.7
	C232.3,155.1,231.3,156.1,230.3,157.1z"/>
<path class="st12" d="M272,102.4c-1.9,0.7-2.6,3.4-5.1,3c-0.9-0.2-3-0.1-2.2-1.7s1.7-4.2,4.4-3.9C270.5,99.9,271.7,101,272,102.4z"
	/>
<path class="st12" d="M259.3,108.6c0.1-1.9,1-3.7,2.5-4.9C262.5,105.9,260.9,106.5,259.3,108.6z"/>
<path class="st37" d="M257.1,140.9c-0.7,0.2-1-0.2-1-0.8c0.4-1.3,1.7-2.1,3-2v0.1C259.8,140,258.2,140.3,257.1,140.9z"/>
<path class="st37" d="M383.1,164.2c4.1-3,7.1-7.1,12.7-8.3c11.2-2.2,20.5,2.2,25.2,12.9c-0.9,1.4-2.1,1.2-3.4,0.9
	c-1.3-0.5-1.9-1.8-2.9-2.7c-1.7-1.8-4.3-2.2-6.4-1.1c-2.1,0.9-3.3,3-3.2,5.2c0,2.6,1.8,4.9,4.4,5.4c1.3,0.2,2.6,0.6,3.9,1
	c2.4,1.8,5.5,1.9,8,3.4c1.1,5.6-2.7,8.8-6.1,12.1c-2.1,1.9-4.6,3.3-7.3,4.1c-6.7,1-13.4,1.8-18.9-3.6c-0.4-0.7-0.1-1.6,0.6-2l0,0
	c4.7-0.7,8.5,3.1,12.6,2.6c-7.6-0.9-13.1-5.5-17.1-12.2c0,1.6,1.1,3.2,1.4,5c0,1-0.6,2-1.6,2.3c-3.2-1.1-3.4-4.4-4.8-6.7
	C377.5,175.9,379.3,169.9,383.1,164.2z"/>
<path class="st10" d="M384.1,203.1c-6.8,2.4-13.4,0.5-20-1c-3-12.9-1.6-25.4,3.2-37.6c4-10.1,10.2-17.9,20.8-21.4
	c12.7-4.9,23.9-0.8,34.5,6.1c6.9,4.5,9,11,8.4,18.8c-2.1,0.2-2.4-1.5-3-2.8c-9.1-18-35-23.3-48.9-2.1c-1.8,4.4-4.4,8.3-5.2,13.3
	C372.1,187.5,376.1,196,384.1,203.1z"/>
<path class="st7" d="M408.1,196.3c5.9-3.6,11.8-7.3,13-15c0.5-2,1.5-3.4,3.8-3.2c1.3,7.4-0.9,13.7-5.6,19.3
	c-1.1,1.2-2.2,2.5-3.2,3.7c-9.6,0.1-19.3-0.3-28.9,0.9c-11.9-8.3-14.8-23.8-6.7-35.7c0.8-0.8,1.6-1.6,2.6-2.2
	c-1.7,6.2-4.5,12.3-1.9,18.9c1.1,2.6,1.5,5.8,4.4,7.4c1,0.6,1.9,1.5,2.5,2.5C394.1,198.2,400.9,198.2,408.1,196.3z"/>
<path class="st12" d="M388.1,143.1c-19.1,10-23.7,27.4-24,47.1c-0.1,4,0,8,0,11.9l-2.1-1c-3.3-12.2-2.2-25.2,3.1-36.7
	C369.8,154,376.2,145.6,388.1,143.1z"/>
<path class="st12" d="M379.1,163.1c5.3-12.7,21.3-18.6,34.2-13c8.5,3.6,13.6,10.2,17.7,17.9c-0.4,1.7-0.8,3.5-1.3,5.7
	c-3.5-13.1-11.5-20.7-24.5-22.4c-7.8-1-14.7,1.5-20.6,6.8C382.8,159.7,381,161.4,379.1,163.1z"/>
<path class="st10" d="M425.1,203.1c-1.7-1.5-4.3-0.2-5.9-1.9c4.5-4.4,8.4-9.1,9.8-15.4c0.3-1.3,0.3-2.7,2.1-2.7c1.1,2,2.4,3.9,3.4,6
	c3.9,7.6,3.5,8.1-4,11.9C428.8,201.9,426.5,201.4,425.1,203.1z"/>
<path class="st38" d="M425,178.1l-3.8,3.2c-3-0.2-6.3,0-8.2-3.2c-2-5.5-0.8-8.1,4.2-9.2l3.9-0.1C424.7,170.9,425.5,174.2,425,178.1z
	"/>
<path class="st8" d="M243.1,235c0.6-0.6-0.9-4.1,1.6-1.7c6.6,6.4,13.5,12.5,21.4,17.3c2.1,1.3-0.2,2.9-0.1,4.4
	C256.9,250.1,249.7,242.8,243.1,235z"/>
<path class="st1" d="M266.2,316.2c-0.9-0.4-1.7-1.2-2-2.1h2.9l1,2C267.6,316.6,266.8,316.7,266.2,316.2L266.2,316.2z"/>
<path class="st14" d="M283.1,237.1c3.1,3.2,4.5,7.6,4,11.9c-5,1.3-7.8-3.2-9.3-5.8C275.4,239.4,280.4,238.5,283.1,237.1z"/>
<path class="st14" d="M280,250.7c-5.5-1-5.5-1-5.6-5C276.6,246.9,279,247.5,280,250.7z"/>
<path class="st14" d="M258.1,241.1c3.8,1.3,6.8,3.9,10.1,6C263.2,247.9,261,243.8,258.1,241.1z"/>
<path class="st14" d="M253.1,237.2c2.7,0.1,3.8,2.1,5,4C255.6,240.9,254.4,238.9,253.1,237.2z"/>
<path class="st1" d="M423.1,131.1c0.6,1.1,1.7,2.2,1.8,3.4s1.7,3.4-0.2,4c-2.5,0.8-1.4-1.9-1.9-3c-0.9-2-2.3-3-4.3-2.2
	c-2.5,0.9-0.3,2.4,0,3.6c0.2,1,1,2,0,2.7s-1.7-0.4-2.3-1.2c-0.2-0.3-0.3-0.8-0.5-0.8c-5.7-0.8-8.8-7.9-15.4-6.6
	c-0.5,0.1-1.5-0.2-1.7-0.5c-0.3-0.7,0.1-1.5,0.8-1.8c0.1,0,0.2-0.1,0.3-0.1c2.5-0.3,4.9-0.3,7.4-0.4c1.9,1.3,3.3,3.8,6.4,2.8
	c-1.4-3.1-4.8-1-6.5-2.8c0.2-5.1-2.9-6.6-7.5-6.2c2.7-3.7,6-3.6,8.4,0.1c1.1,1.8,1.9,3.5,4.4,3c1.3-0.3,1.5-1,1.1-2.1
	c-0.8-2-0.7-4.8-4-4.8c-1,0-2-0.3-2.7-1c3-0.9,6.4-2.3,8.1,2c1,2.6,2.5,2.9,4.8,3.1c4.1,0.4,6,5.7,3.4,9c-2.3-1-1.9-4.3-4.3-5.2
	c-0.4-0.1-0.8-0.1-1,0.2C417.8,129.6,421.5,129.3,423.1,131.1z"/>
<path class="st14" d="M251.1,326.1c4.1,2.6,1.8,4.3-0.9,5.9C249.4,330,249.7,327.7,251.1,326.1z"/>
<path class="st14" d="M266.2,316.2l1.9-0.1c0.7,2.7,1.3,5.3,2,8c-0.3,0-0.6,0-0.9,0c-0.6,0.5-1.5,0.5-2-0.1
	C267.3,321.4,267,318.7,266.2,316.2z"/>
<path class="st2" d="M267.1,324.1l2,0.1l-2.1,3.9c-1-0.2-2.9,0.6-3-0.6C263.9,325.8,265.7,324.9,267.1,324.1z"/>
<path class="st2" d="M393.6,273c-0.9-0.2-1.4-0.7-1.2-1.6s1-1.1,1.8-1.1s1.8,0.3,1.6,1.3C395.5,272.4,394.6,273.1,393.6,273z"/>
<path class="st13" d="M268.4,310.1c6.9,0,11.3,3.1,14.7,7.9c1.3,1.8,2,4.3,0.4,6s-4.3,3.5-7.1,2.9c-2.2-0.5-3.8-2.3-4.2-4.5
	C271.3,318.2,270.1,314.1,268.4,310.1z"/>
<path class="st35" d="M381.3,228.1c-0.4,1.1-1.3,1-2.2,0.8c-1.3-1.5-1.5-3.7-0.4-5.4c-1,2.1-2.6,4-4.5,5.4c-1.3,0.5-2-0.4-3-0.9
	c1.5-2.5,3.2-4.8,5.1-7.1c2-2.1,4.2-2.9,5,1.2C381.5,224.1,382.5,226.1,381.3,228.1z"/>
<path class="st40" d="M381.3,228.1v-6c1.2,1.7,1.8,3.8,1.9,5.9L381.3,228.1z"/>
<path class="st41" d="M374.1,228.9c0.4-2.8,3-4,4.9-6v6H374.1z"/>
<path class="st41" d="M275,212.2c-0.1-1.9,0.6-3.7,2-4.9c1.9,2,1.8,4.6,3,6.6C278.2,213.9,276.5,213.3,275,212.2z"/>
<path class="st8" d="M331.8,210.6c-1.6,3.3-3.2,6.4-4.9,9.9C324.5,209.6,324.5,209.6,331.8,210.6z"/>
<path class="st42" d="M306.1,204.8c-2.3,0.4-3.3-0.1-3.8-1.5c-0.1-0.2,0.4-0.9,0.7-0.9C304.5,202.3,304.9,203.7,306.1,204.8z"/>
<path class="st43" d="M356.1,212c-1.7,1.5-3.5,0.9-5.5,1.1C353.1,211.2,353.1,211.2,356.1,212z"/>
<path class="st13" d="M247.5,310.4c7.6-0.5,14,3,16.6,8.5c0.9,1.6,0.7,3.6-0.5,4.9c-2.2,2.5-5.3,2.5-8.3,2.1
	c-1.8-0.1-3.1-1.6-3.1-3.4C252.5,317.8,249.9,314.2,247.5,310.4z"/>
<path class="st25" d="M248.9,150.1l2.3,3c-0.3,11.3,9.2,21.9,20.3,21c1.5-0.1,3,0,4.5,0c-7.5,3.7-14.7,3.2-21.3-1.9
	C249.4,167.9,244.9,160,248.9,150.1z"/>
<path class="st44" d="M257.1,140.9l2-2.8c1.8-0.1,3.3-1.5,5.3-0.8c3.2,1.1,5,3.4,4.6,6.7c-0.5,3.9-3.2,5.4-7,5.1
	C261.8,145.5,261.5,142,257.1,140.9z"/>
<path class="st1" d="M275.1,172.2c-0.7-0.6-4.1-0.8-1.3-1.9c7.9-3.1,12.8-8.2,14.8-17.9c1.1,11.7-1.2,15.8-9.5,18.9
	C277.7,171.3,276.6,172.5,275.1,172.2z"/>
<path class="st39" d="M275.1,172.2c1.3-0.3,2-3,3.9-1c0.3,0.6,0.7,1.1,1,1.7c-1.1,1-2.6,1.4-4,1L275.1,172.2z"/>
<path class="st44" d="M417.1,168.9c-4.7,1.6-3.9,5.6-4.2,9.2c-3.6,0.1-7.1-0.3-8.7-4.2c-1.5-3.7,0.2-8,3.4-9.4
	C411.4,162.8,414.8,164.4,417.1,168.9z"/>
<path class="st1" d="M386.1,187.2c-2.5-2.7-2.6-6.1-2.4-9.7c4.3,9.6,11.6,15,21.6,17c-5.6,1.4-10.4-0.8-15.3-2.6
	C389.5,189.8,387.8,188.5,386.1,187.2z"/>
<path class="st25" d="M408.1,196.3c-7.7,3.4-15.9,2.1-21-3.3c0.6-0.5,1.4-0.5,2,0C394.9,197.1,401.5,196.7,408.1,196.3z"/>
<path class="st16" d="M389.1,192.9h-2l-2.1-1.8c-0.4-0.6-0.4-1.4,0-2s0.8-1.3,1.2-1.9c3.3-0.1,5.8,0.5,4,4.7L389.1,192.9z"/>
<path class="st25" d="M384.9,189.1v2c-2.4-2-3.8-4.9-3.8-8.1L384.9,189.1z"/>
<path class="st12" d="M423.1,131.1c-2.1-1.1-5.9,0.9-6.4-3.5c-0.1-1.1-2.1-2.2-0.1-3.2c1.4-0.6,3.1-0.3,4.1,0.8
	C422.6,126.8,421.8,129.4,423.1,131.1L423.1,131.1z"/>
<path class="st12" d="M407.1,128.1c0.8,0.1,1.7,0.1,2.5-0.1c2.6-1,4.5-0.6,5.4,2.3c0.2,0.8,0.1,2.2-0.5,2.1
	c-2.2-0.6-5.6,1.6-6.5-2.4C407.8,129.2,407.5,128.6,407.1,128.1L407.1,128.1z"/>
</svg>
