<?xml version="1.0" encoding="utf-8"?>
<!-- Generator: Adobe Illustrator 22.1.0, SVG Export Plug-In . SVG Version: 6.00 Build 0)  -->
<svg version="1.1" id="Layer_1" xmlns="http://www.w3.org/2000/svg" xmlns:xlink="http://www.w3.org/1999/xlink" x="0px" y="0px"
	 viewBox="0 0 366.2 395.2" style="enable-background:new 0 0 366.2 395.2;" xml:space="preserve">
<style type="text/css">
	.st0{display:none;fill:#FFFFFF;}
	.st1{fill:#192c96;}
	.st2{fill:#19338b;}
	.st3{fill:#BA967D;}
	.st4{fill:#AA5E27;}
	.st5{fill:#C1A28B;}
	.st6{fill:#F6DDC6;}
	.st7{fill:#1a42e0;}
	.st8{fill:#DD7F2A;}
	.st9{fill:#FFCB72;}
	.st10{fill:#2467ed;}
	.st11{fill:#2449ee;}
	.st12{fill:#F9CB14;}
	.st13{fill:#FFCC73;}
	.st14{fill:#FFFFFF;}
	.st15{fill:#0a44d6;}
	.st16{fill:#1d1de5;}
	.st17{fill:#dee3f6;}
	.st18{fill:#2445ec;}
	.st19{fill:#F8B16B;}
	.st20{fill:#F9B36D;}
	.st21{fill:#5b7cff;}
	.st22{fill:#EB1E31;}
	.st23{fill:#497aff;}
	.st24{fill:#2560e9;}
	.st25{fill:#F8BD6B;}
	.st26{fill:#E08A43;}
	.st27{fill:#202dd9;}
	.st28{fill:#E79125;}
	.st29{fill:#F6DCC5;}
	.st30{fill:#E9C1A2;}
	.st31{fill:#2136d8;}
	.st32{fill:#FBB617;}
	.st33{fill:#FFCA72;}
	.st34{fill:#3151ed;}
	.st35{fill:#2258e1;}
	.st36{fill:#F5DCC5;}
	.st37{fill:#2045d6;}
	.st38{fill:#203eae;}
	.st39{fill:#223ee3;}
	.st40{fill:#F16022;}
	.st41{fill:#ED4324;}
	.st42{fill:#2456ed;}
	.st43{fill:#1c419e;}
	.st44{fill:#F9CA14;}
	.st45{fill:#FAB418;}
	.st46{fill:#F4DBC4;}
	.st47{fill:#1d279c;}
	.st48{fill:#FFCD73;}
	.st49{fill:#F6EAE2;}
	.st50{fill:#2035d2;}
	.st51{fill:#1d55f2;}
	.st52{fill:#FAA426;}
	.st53{fill:#F3D9C2;}
	.st54{fill:#F2D7C0;}
	.st55{fill:#182486;}
	.st56{fill:#010101;}
	.st57{fill:#133bef;}
</style>
<path class="st0" d="M366.1,215.1c0,58.6,0,117.2,0.1,175.8c0,3.6-0.7,4.4-4.3,4.3c-57.9-0.1-115.8-0.2-173.8-0.1
	c5.3-6.4,10.6-12.5,19.8-13.3c8.6-0.8,17.3-1,25.8-2c13.3-1.5,25.3-5.8,34.8-15.5c2.3-2.3,4.7-2.9,8-2.9c16.6-0.1,33-2.1,47.5-11
	c11.4-7,17.8-17.1,18-31.3c0.2-16.2-4.3-31.2-8.6-46.4c-2.6-9.3-5.8-18.5-5.6-28.3c-0.1-5.6,2.4-10.9,6.8-14.4
	c1.5-1.2,3.3-3.1,5.3-1.7s0.6,3.6,0.1,5.5c-0.7,2.5-2.6,4.6-3,7.6c4.8-0.4,8-2.9,11.1-5.6c5.5-5.1,10.3-10.9,14.3-17.3
	C363.2,217.1,363.7,214.9,366.1,215.1z"/>
<path class="st1" d="M366.1,215.1c-5.1,7.7-10.2,15.4-17.1,21.7c-4.7,4.2-8.9,6.3-14.5,6.1c1.7-4.8,4.9-9,5.8-14.2
	c-6.8,2.2-10.8,7.8-11.1,14.9c-0.4,8.8,2.1,17.1,4.6,25.3c3.6,11.9,7.5,23.8,9,36c1.2,9.6,2.2,19.8-2.2,29.2
	c-5,10.9-13.8,17.6-24.6,21.8c-9.3,3.7-19.3,5.8-29.3,6.2c-4.3,0.2-8.6,1.6-13,0c-1.6-0.6-2.5,1.4-3.5,2.4
	c-10.2,10.6-22.9,15.2-37.3,16.7c-9.9,1-19.9,0.6-29.7,2.8c-2.1,0.4-4,1.4-5.4,3c-3,3-5.8,6.1-9.6,8.1h-7c-7.7-3.4-10.4-10-11-17.8
	c-0.2-2.7-0.7-5.4-1.1-8.1c-0.5-1.1-1.3-2.1-1.7-3.3c-0.8-4.1-1.9-8.1-3.3-12c-0.2-1.7-1.3-3.1-1.9-4.6c-1-3.2-3.1-5.9-4-9.2
	c-0.9-3.8-1.4-7.7,0.6-11.4c0.2-0.4,0.5-0.8,0.8-1.2c0.8-0.9,1.7-1.7,2.7-2.3c1.8-1,3.9-1.4,5.9-1.3c0.8,0,1.6-0.2,2.4-0.5
	c0.5-0.4,1-0.8,1.4-1.2c0.8-0.8,1.7-1.5,2.8-2c2.2-0.9,4.4-1.5,6.7-0.6c1.8,1,3,2.3,1.9,4.6c-8.6-0.1-9.6,0.9-9.9,10
	c-0.1,2.1,0.6,5.5-1.6,5.6c-2.8,0.2-2.3-3.3-2.9-5.4c-0.6-2,1-5.6-2.7-5.2s-3.6,3.8-3,6.7c0.2,1.7,0.7,3.3,1.4,4.8
	c5.9,10.3,6.9,21.7,8,33.1c0.4,3.5,1.2,6.9,2.3,10.2c0.5,2.4,2.1,4,3.9,5.6c5.3,3.5,7.5,3.3,13.1-1.6c5.3-6.1,12.1-7.9,20-8.3
	c9.9-0.4,19.9-0.8,29.6-3.1c18.7-4.4,31.3-15.9,38.7-33.4c0.5-1.2,0.9-2.6,2.1-3.3c1.8,0.4,1.8,1.8,1.9,3.2
	c-0.6,5.1-3.2,9.4-5.9,13.6c-1.3,2-1.2,3.2,1.5,3c18.6-1.4,37-3.7,51.1-17.9c8-8,10.4-17.9,9.5-28.9c-1.3-16.4-7-31.8-11-47.6
	c-2-7.9-4.2-15.8-3.2-24.1c1.5-6.8,4.5-12.7,10.9-16.5c-5.5,0.8-8.4,4.6-10.5,9c-2.9,6.1-2.5,12.7-1.9,19.2c1.3,12.7,4,25.3,5.3,38
	c0.9,6.3,0.5,12.7-1.1,18.8c-3.3,14.2-16.1,21.1-31.5,16.8c-9.7-2.7-17.1-8.1-21.6-17.7c-5.7-12.3-15-22.3-23.7-32.6
	c-6.7-7.9-14.5-14.6-21.9-21.8c-17.5-17.1-23.1-37.5-17-61.1c0.6-1.9,1.3-3.7,1.8-5.6c2.1-6,2.1-5.9-3.9-5.6
	c-1.8,0.1-3.6,0.1-5.4,0.2l-2.3,0.1c-5.7,0.1-11.4,0.3-17-1.1c-0.8-0.2-1.6-0.6-2.3-1.2c-5-1.7-10.3-2.7-15.6-2.9
	c-3.4-0.1-6.6-1.4-10.2-1c-6.6,0.8-10.7,5.1-15.4,8.7c-12.1,9.3-23.7,8.2-33.5-3.2c-2.9-3.4-3.1-9.4-0.5-15.3
	c-8-1.7-16.6-1.7-22.9-8.1c-5.2-5.2-7.5-11.6-7.8-18.8c-0.1-3.3-0.5-6-2.6-9.1c-6.3-8.9-2.3-20.9,7.4-23.9c1-0.3,2-0.9,2.8-0.3
	c3.7,2.9,6.5,1.1,9.9-0.9s7-4,11.2-4.4c2.2-0.2,2.6-1.7,2.2-3.6c-2.7-13.1,0.7-24.7,8.6-35.2c2.8-3.7,3.7-8.2,5.5-12.2
	c3-6.8,8.9-11.9,16-14c0.6-0.9,1.5-1.5,2.5-1.9c5-0.8,10-0.3,14.8,1.3c2.7,0.7,5,2.8,7.9,2.7c0.9-0.3,1.9-0.5,2.9-0.8
	c9.3-4.7,19.7-6.8,30.1-6.2c1.6,0.1,3.3-0.1,4.7,0.9c0.6-0.5,1.3-0.8,2.1-0.9c5.9,1.1,11.5,3.1,16.8,6c2.4,1.7,5,3.3,7.4,5.1
	c0.9,0.7,1,2,2,2.7c4.4,4.4,8.9,8.7,13.4,13.1c0.9,0.9,1.7,2.6,3.4,1c1.4,2,0.1,3.1-1.4,3.9c-1.7,0.9-2.7-0.6-3.7-1.6
	c-5-5.1-9.3-10.9-15.7-14.4c-8.6-5.8-17.7-10.5-28.1-12c-13.8-1.8-26,1.7-36,11.6c-1.5,1.5-2.6,3.4-4.4,4.7c-3.3,0.1-2.3-2-1.7-3.6
	s1.9-2.7,2.8-4.1c1.1-1.8-0.4-1.9-1.5-2.2c-3.9-1.5-7.8-2.9-12-2.7c-8.4,0.3-14.7,4.2-18.4,11.9c-0.4,0.7-0.8,1.5-1,2.3
	c10.7-1.9,15.2,1,16.8,11.9c1.8,12.4-0.3,24.1-8.2,34.3c-1.6,2.1-1.8,3.2,0.5,4.7c1.2,0.7,2.8,2,1.7,3.6c-0.8,1.2-2.5,0.4-3.7-0.1
	c-1.2-0.5-2.5-1-3.7-1.4c-2.3-0.2-4.7-0.3-6.8-1.4c-4.5-1.4-9-0.8-13.6-0.4c-3.5,0.5-6.8,1.7-9.9,3.5c-0.4,0.3-0.8,0.5-1.2,0.7
	c-6.5,3.8-11.5,8.8-14.3,15.9c-5,11.7-3,23.8,5.4,32.6c5.2,4.5,11.7,5.3,18.2,6.1c12.3,1.7,24.8-0.4,35.9-6c3.4-1.5,6.8-3.2,10-5.2
	c2.7-1.6,3.2-3.4,1.3-5.8c-0.2-1.3-0.5-2.8,1.1-3.4c0.9-0.4,1.5,0.5,2,1.1c5.3,6.5,12.8,7.8,20.6,8.5c1.8,0.2,4.8-0.6,4.8,2
	c0,2-3,2.3-5,2.3c-3.2-0.1-6.3-0.4-9.4-1c-3.1-0.5-5.4,0.5-7.6,2.6c-8.9,8.3-19.2,15-30.4,19.6c-4.2,1.7-8.5,3.2-13,0.7
	c-3-1.5-5.2-4.5-5.7-7.9c-2.5,4.4-2.3,5.2,2.3,11.1c5.8,7.2,14.4,8.9,22.2,4.3c3.3-1.9,6.4-4.3,9.1-6.9c6-5.1,13.2-8.2,20.5-11
	c0.5-0.1,1-0.1,1.5,0.1c1.6,1.2,0.6,2.2-0.3,3.1c-2,1.3-4.2,2.4-6.5,3.2c6.8-0.7,12.2,0.3,17.6,1.4c13,2.7,26.1,3.7,39.2,1.2
	c17.9-3.4,30.6-14,38.2-30.5c0.8-1.8,1.9-3.7-0.6-5.2c-0.9-0.8-2.1-1.4-2.1-2.8c3.9-2.7,6.4-0.3,9,2.2c-1.4-2.1-2.6-4.3-3.7-6.6
	c-0.9-2.1-1.6-4.2-0.5-6.4c2.1-2,4.1-0.5,6,0.3c5.9,2.6,11.6,5.8,16.9,9.5c-5.8-4.1-11.9-7.5-18.4-10.4c-2.4-1.1-4.8-2.3-5.8-5.2
	c-1-3.6,1-6.1,3.3-8.5c5.3-2,10.9-2.8,16.6-2.3c8.9,0.7,17.9,1.4,26.4,4.3c0.6,0.2,0.4-0.8,0.3-0.2c0,0.1-0.2,0.1-0.5,0
	c-9.9-2.8-20.1-4.2-30.3-5.6c-4.6-0.6-9.2-1.7-13.5-3.4c-6.9-2.7-7.7-6.6-2.8-12c4.8-5.4,10.9-9.4,17.7-11.6c6-1.9,11.9-4.3,18-5.7
	c3.1-0.7,6.3-0.4,8-1.3c-12.5,1.1-25.5,5.1-38.8,8.6c-3.5,1-7.1,2-10.8,1c-6.9-5.1-7.9-9.8-3.8-17.1c3-5.4,7-10.2,11.6-14.3
	c6.5-5.8,12.2-12.4,17.4-16.4c-7.1,5.1-16,11.5-23.6,19.5c-0.8,0.9-1.9,2-3.4,1.2c3.7-6.8,9.7-11.7,15.4-16.4
	c9.7-7.9,20.5-14.2,33-17.3c0.2,1.7-1.5,2-2.4,3c-0.9,0.7-1,2-2,2.6c-2.4,1.5-4.8,3.3-7,5.1c-11.7,9.3-22.5,19.4-30.8,32.1
	c-1.8,2.6-3.1,5.5-3.7,8.6c-0.3,2.1-0.8,4.5,2.4,5c7.2-0.5,13.9-3,20.7-5c12.6-3.7,25.7-4.8,38.8-3.5c1.4,0.4,2.6,1,3.7,1.9l7.1,2.9
	l-6.1,0.4c-5.3,2.4-11.1,1-16.7,2.1c-11.5,2.3-22.7,5.3-32.9,11.2c-3.4,2-7.6,3.8-8,8.7c1.4,3.2,4.5,3.7,7.3,4.4
	c8,2,16.3,2.5,24.4,4c7.2,1.2,14.1,3.7,20.4,7.3c1.2,0.7,1.5,2,2.4,2.9c1.3,0.9,2.6,1.7,3,3.6l-3.9-0.5c-1,0.1-2,0-3-0.2
	c-12.2-3.4-24.8-5.3-37.4-5.6c-3-0.1-6,0.4-8.8,1.5c-1.4,0.6-2.9,1.3-2.8,3.1c0,1.5,1.3,2.2,2.6,2.8c3.4,1.4,6.6,3.2,9.8,4.9
	c8.1,4.3,14.3,10.8,20.5,17.3c0.8,1,1.4,2.1,1.8,3.2l3.4,5.4c-2.5,0.2-3.7-1.7-5.2-2.6c-5.9-2.4-10.6-6.7-15.9-10.1
	c-4.4-2.7-8.6-5.6-13.2-7.9c-0.7-0.4-1.9-1.9-2.4,0.3c2.7,5.2,5.7,10.3,7.2,16c0.1,1-0.1,2-0.6,2.9c-0.2,2.6-1.1,1.7-2.1,0.5
	c-2.1-2.8-4.2-5.7-6.6-8.9c-3.6,10.4-10.3,18.1-17.4,25.4c-0.1,0.7-0.5,1.3-1,1.7c-1.4,1-2.9,1.9-4.3,3c-1,0.8-1.6,2-2.7,2.7
	c-2.9,0.2-5.4,1.5-8,2.6c-5.7,1.1-6.5,5.6-7.2,10.2c-1.5,7.8-5.3,15.1-4.5,23.3c0.3,3.6,1,7.2,2,10.8c2-2.8,1.1-6.2,1.9-9.2
	c1.1-6.9,1.5-13.9,3.3-20.6c0.7-2.5,0.7-5.8,4.3-5.9s3.2,3.6,4.2,5.9c0.1,0.5,0.2,1,0.2,1.5c-0.3-2.2-0.9-4.5-1.6-6.6
	c-0.7-2.3-1.3-4.8,0.9-6.4s4,0.2,5.8,1.5c1,1.2,1.8,2.5,1.4,4.1c-2.7,0.4-5.1,0.9-2.6,4.3c0.8-1,0.8-2.8,2.2-3.8
	c1.3-0.6,2.3,0,3.2,0.9c-0.4,5.9-4.1,10.4-6.7,15.3c-4.1,7.9-8.5,15.8-12.7,23.7c-0.9,1.7-1.8,3.4-0.8,5.2c2.4,4.5,4.3,9.3,8.7,12.3
	c2.4-4.5,2.6-9.6,3.7-14.3c2.5-11,5.6-21.9,9.2-32.6c0.7-2.4,1.8-4.7,3.3-6.7c2.3-2.8,4.6-2.5,6,0.9c0.6,1.5,1,3.2,1.2,4.8
	c1.5,12.8,2.2,25.6,2.4,38.5c-0.1-15.5-1.2-31-3.3-46.3c-0.2-0.8-0.3-1.6-0.3-2.5c0-1.7,0.3-3.4,2-4.3s3.2,0.2,4.5,1.3
	c2.5,2.2,4.7,4.8,6.3,7.7c9.3,15.6,15,32.6,19.2,50.1c0.3,1.3,0.7,2.5,0.9,3.9c-2.2-12.5-4.9-24.9-9.4-36.8
	c-3.2-8.5-6.3-17.2-11.5-24.8c-2.9-4.3-6.3-7.7-11.7-8.5c-0.9-0.6-1.6-1.4-1.2-2.6c8.4-1.5,12.9,4.1,16.4,10.1
	c8.6,14.6,13.9,30.6,17.6,47.2c2.7,12.2,3.6,24.8,2.8,37.2c-1.7-1-1.8-2.7-1.9-4.4c-0.5-1.4-1.5-2.7-2-4.2
	c-4.8-20-10.3-39.8-19.5-58.3c-1.7-3.9-4.2-7.5-7.3-10.4c0,4.5,1.3,8.8,1.4,13.2c1,12.1,1.3,24.2,1.1,36.3c0,3.6-0.4,7.3-1.2,10.8
	c-0.2,0.9-0.6,1.7-1.2,2.5l-1.7,3.7c-1.7-0.7-1.4-2.3-1.6-3.7c-0.5-1.1-0.9-2.2-1.2-3.4c-1.3-12.8-1.2-25.7-2.8-38.5
	c0-5-0.8-9.9-1.4-15c-1,3.2-2.4,6.2-3.2,9.4c-4,12.9-7.4,25.9-10,39.2c-0.2,0.8-0.7,1.5-1.3,2.1c-3.4,5.1,1.4,7.3,4,9.4
	c10.4,8.3,18.3,18.8,27,28.7c7.4,8.4,12,18.7,18.2,27.8c6.8,10.1,23.7,17,36.4,7.8c6-4.4,8-11.7,8.4-19c0.5-11.2-2.1-22-3.5-33
	c-1.3-10.6-4.2-21.3-1.4-32.1c1.4-5.9,5-11.1,10.1-14.4c0.7-0.5,1.7-0.9,1.5-1.7c-0.3-0.7-1-1.2-1.8-1.3c-3.2,0.2-6-1.9-9.3-1
	c6.2-10.1,28.8-12.6,43.5-5.1V215.1z"/>
<path class="st2" d="M0.1,167.1c8.1,3.8,15.7,0.1,23.4-1.7c4.9-1.1,9.5-3.1,14.6-3.3c3.6-0.1,2.2-2.1,0.9-3.5
	c-3.1-3.3-6.4-6.4-10-10.1c8-2.6,15.2-0.2,22.4,1.4c6.1,1.5,11.9,3.9,17.2,7.3c9.2,5.5,19.3,8.5,30.8,11.7
	c-5.5,1.6-9.8,2.8-14.1,4.2c-8,2.7-15.3,6.8-22.7,10.7c-8.9,4.8-19.3,6.3-29.2,4.3c-2-0.4-5.1-1-1.8-4.2c0.8-0.8,1-2.3,2.2-3.4
	c-12.5,0.5-24.6-4-33.8-12.5V167.1z"/>
<path class="st3" d="M141.2,34.9l-2.2,1c2.4-15,7.7-28.2,22.1-35.9h1c2,1.1,3.4,2.4,3.1,5.2c-0.6,6.8-0.9,13.5-1,20.3
	c-0.2,4.1,0.8,8.2,3,11.6c-0.5,0.8-1,1.7-2.1,1.7c-5.2-6.6-4.4-14.3-4-21.9c0.1-1.6,0.7-3.2,0.7-4.9c0-0.6,0.1-1.3,0.1-2
	c-0.1-1.9,1.8-4.4-0.3-5.5c-2.3-1.2-3.9,1.2-5.4,2.7c-5.6,5.5-9.7,12.3-12,19.8C143.3,29.7,142.9,32.6,141.2,34.9z"/>
<path class="st4" d="M168.1,366.1c1.3,0.7,1,2,0.9,3.1c-6.6-3.2-11-8.9-16-14c-0.7-0.7-1.3-1.4-1.8-2.2c-1.4-2.8-2.6-5.7-3.5-8.6
	c-0.6-1.7-1.2-3.4-1.7-5.1c-1.5-7.2-3-14.4-2.1-21.9c0.2-0.8,0.6-1.6,1.2-2.3c0.2-16.7,4.7-32.4,11-47.6c0.6-1.3,1.5-2.6,1-4.2
	c0-0.9,0.2-1.8,0.5-2.7c1.6-4.3,3.8-8.4,5.5-12.6c0.4-0.9,1.4-1.2,2-1.9c8.2-16.6,15.9-33.4,18.9-51.9c0.7-4.5,0.1-9.3,0.1-13.9h2.2
	c1.3,5.4,5,7.8,10.2,8.4c4.9,0.6,5.6,0.1,6.5-4.7c0.1-1,0.5-1.9,1.1-2.7l2.1-0.1c2.1,2.6,1.3,5.7,1.4,8.6c0,1.2,0,2.3-0.1,3.5
	c-1.7,12.7-6.6,24.7-8.3,37.4c-1.4,10.1-2.1,20.1-0.1,30.2c0.3,2,0.4,3.9-1.4,5.3c-1.2,0.5-1.9-0.2-2.3-1.2c-0.8-2-2.3-2.6-4.3-2.6
	c-7.9,0.1-15.4-1.9-22.6-4.9c-3.1-1.3-4.6-0.5-5.7,2.4c-0.8,2.5-1.8,4.9-3,7.3c-2.1,3.8-1,6.1,2.7,7.7c0.6,0.9,0.3,2-0.6,2.6
	c0,0-0.1,0-0.1,0c-1.4,0.7-2.9,0.1-4.3-0.1c-1.8-0.1-2,1.4-2.5,2.6c-1.3,3.6-2.3,7.2-3.3,10.9c-0.6,2.4-0.3,4.2,2,5.4
	c4.6,2.8,9.5,5.1,14.6,7c1.1,0.5,2.3,0.8,3.4,1.2c12.9,4,26.3,5.8,39.8,5.4c4.4-0.1,4.7-0.7,2.4-4.6c-2.7-4.6-6-8.8-8.1-13.7
	c-0.2-1.2,0.6-2.4,1.8-2.6c0.1,0,0.2,0,0.3,0c5.4,5.4,8.9,12.1,12.6,18.7c2.3,4.1,4.9,8.2,6,12.9c-0.4,1.5-1.2,2.4-2.9,1.8
	c-0.4-0.5-0.1,0.3-0.4-0.3c-3-7.8-9.4-7.5-16.2-7.5c-19.1,0.1-37.2-3.9-54.1-12.9c-1.6-1-3-1.5-3.6,1.1c-1,5.1-1.2,10.3-0.6,15.4
	c0.2,2.6,2.7,3.2,4.7,4c2.4,1.3,5.4,1.6,7.2,4c0.3,0.7,0.1,1.6-0.3,2.2l0,0c-2.3,1.4-4.1-0.6-6.1-0.9c-1.3-0.5-2.6-0.9-3.9-1.2
	c-2.3,0-1.6,1.6-1.4,2.8c0.6,3.4,1.2,6.8,1.9,10.1c0.9,4.5,3.2,7.4,7.9,8.1c1.6,0.6,3.3,0.8,4.6,2c0.6,1.5,2.4,2.3,2,4.2
	c-3.6,1.2-6-2.5-9.5-2.1c2,4.5,5.3,7.9,9,11C166,363.2,167.2,364.5,168.1,366.1z"/>
<path class="st1" d="M152.1,353.1c0.7,0.4,1.1,1.3,0.9,2.1c-12.4-1-24.4,1.5-36.6,3.6c-3.8,0.7-7.6,0.7-11.4,0.1
	c-8.5-1.4-12.4-6.1-11.9-15c0.7-12.3-2.5-23.9-6.4-35.3c-0.9-2.6,0.1-4.4,0.4-6.5c0.6-1,0.9-2.1,1.9-2.7c1.6-0.8,1.8-2.3,2-3.8
	c0.4-1.8,1.8-2.9,2.8-4.3c1.7-1.3,3.9-1.7,6-1.2c1.3,0.3,2.2,1.3,3.2,2.1c2.5,3,5.5,5.7,6.1,9.9c-1.8,0.6-2.7-0.8-3.8-1.7
	c-0.4-0.5-0.8-1.1-1.2-1.6c-1.5-1.7-2.7-4.5-5.4-3.6c-3.1,0.9-3,4.1-3.2,6.7c-0.1,1.8,0.1,3.7,0.4,5.5c0.1,1,0.1,2.2-0.9,2.6
	s-1.7-0.7-2.3-1.5c-0.8-1-0.6-2.6-2.8-3.5c0.4,8.5,5.4,15.6,5.5,23.6c0.2,5.9,1.1,11.8,1.3,17.8c0.1,4.9,3.6,7.5,8.1,8.8
	c6.5,1.5,12.8-0.1,19.1-1c7.3-1.1,14.6-2.9,22.1-2.5C148.1,351.7,150.3,351.5,152.1,353.1z"/>
<path class="st1" d="M158.1,261.1c0,0.8-0.4,1.6-1.1,2l-3.4-2.8c-1.2,2.8-1.8,6-4.4,7.9c-0.7,1-1.9,1.8-3.1,2
	c-1.5,0.2-3.1,0.1-4.5-0.4c-0.6-0.4-1.1-1.1-1.3-1.8l-1.1-1c-0.8-0.3-1.5-0.5-2.3-0.7c-2-0.3-4.1-0.3-5.6-1.8
	c-0.7-0.7-0.4-1.8-0.9-2.6l-1.1-0.9c-0.7-0.4-1.3-1-1.7-1.6c-0.7-0.8-1.5-1.5-2.1-2.3c-0.7-0.9-0.8-2.1-0.3-3.1
	c0.1-10.3,12.7-16.9,23.2-14.6c6,1.4,11,5,16.9,6.5l-1,2.2c-2.1,1.2-3.8-0.2-5.5-1c-3.3-1.8-6.8-3.2-10.5-4.2
	c-10.1-2.9-18.4,2.9-19.6,9.6c1.8,1.9,2-0.5,2.4-1.1c1.7-2.5,4.1-4.4,6.8-5.7c0.7-0.5,1.7-0.3,2.2,0.4c0.3,0.6,0.2,1.3-0.3,1.9
	c-1.1,1.6-2.5,3.1-3.9,4.5c-1.4,1.5-2.8,2.9-3.1,5c-0.4,1.5,0.6,3.1,2.1,3.5c1.5,0.6,2.6,0,3.3-1.4c0.3-0.6-0.1,0.1,0.2-0.5
	c0.9-1.5,1.4-4,3.7-3c1.8,0.8,0.6,3,0.4,4.5c-0.3,2-0.8,4.4,1.6,5.2c2.6,0.9,3.8-1.4,4.9-3.3c1-2.1,1.7-4.3,2.2-6.6
	c0.2-0.8,0.4-1.7,1.3-2s1.5,0.6,1.8,1.3C155,257.7,157.3,258.9,158.1,261.1z"/>
<path class="st1" d="M145.1,315.1c0,0.7,0,1.5,0,2.2c-1.7,2.1-4.2,2.6-6.4,3.7c-4.7,2.5-9,5.8-12.6,9.7c-2.4,2.3-5,4.4-7.7,6.3
	c-1.8,1.2-3.6,3.8-6,2.1c-2-1.4-1.3-3.9-0.9-6.1c0.8-5,0.5-10,0.4-14.9c-0.1-3.2-1-6.2-5-6.3s-4.7,3.1-5.1,6.2
	c-0.5,3.7,0.7,7.3,1.3,10.9c0.4,2.6,0.9,5.2-1.5,8c-2.9-5.3-2.9-10.7-3.7-15.8c-0.8-4.9-0.7-9.7,3.2-13.5c3.8-1.9,7.6-3.2,11.1,0.7
	c4.9,6.2,3,13.5,2.6,20.3c-0.2,2.4,0.2,5.1-0.7,7.9c4.3-3.9,8.6-7.9,13-11.7C132.3,320.2,137.8,316,145.1,315.1z"/>
<path class="st5" d="M103,292.2l-3-1.3c-2.2-0.8-3.8-2.7-6.6-3.6c0,1.8,1.5,3.2,0.7,4.8c-0.6,1.4-2.3,2.2-2.2,4
	c-0.4,0.8-3.4-2.4-1.9,1.3c0.2,1-0.1,2-0.9,2.6c-0.6,0.7-1.3,1.4-1.9,2.1c0-2.6-0.2-5.3-0.6-7.9c-0.2-1.3-1-2.9-0.1-3.7
	c1.1-1,2.3,0.5,3.5,1c0.6,0.3,1.1,0.7,1.6,1.2c0.5-1.8-0.6-2.7-1.2-3.8s-2.8-1.8-1.9-3.6s2.8-1.4,4.4-1.3
	C98.3,284.3,101.1,287.7,103,292.2z"/>
<path class="st6" d="M112.1,308.1c-3.8-2.3-7.5-0.7-11.3,0c-2.9-1.4-2.7-4.1-3-6.6c-0.2-1.9,1.4-2.3,2.9-2.6c1.8-0.4,3.6,0,5.1,1.1
	c1.3,0.3,1.7,2.1,3.3,2C110.3,304,112.2,305.5,112.1,308.1z"/>
<path class="st5" d="M130.2,262c0.9,0.4,0.9,1.2,0.9,2c1.6,1.5,0.8,3.8,2.1,5.8c2.2-0.9,2.9-3.5,4.9-4.6c1.3,0.1,1,1.1,1.1,1.8
	c0.2,1.5-1.1,2.3-1.7,3.4c-1.1,2.3-3,3.8-5.4,3.3c-2.9-0.6-1.8-3.4-1.9-5.4S130.2,264.1,130.2,262z"/>
<path class="st5" d="M140.2,268l0.9,1c1.6,1.9,3.2,2.5,4.9,0.2l3.1-1c0,0.5-0.1,1-0.3,1.4c-1.7,2.7-3.3,6.8-6.8,6
	C138.3,274.9,140.7,270.7,140.2,268z"/>
<path class="st5" d="M128.2,259c1,0.4,0.9,1.3,0.9,2.1c-1.8,1.6-4.3,3.8-6.2,2.5c-2.3-1.5-0.1-4.4,0.4-6.7c0.4-1,1-2,1.7-2.9
	c0.4,1,0.8,2,1.2,3C125.8,258.7,126.5,259.3,128.2,259z"/>
<path class="st7" d="M113.1,182.1c-5.6-6.6-5.8-9.3-0.9-15.7c1.9,2.2,0.1,5.2,2,7.4c3.8,4.6,8.2,5.6,15.3,2.7
	c10.5-4.3,20.6-9.8,28.3-17.9c5.5-5.8,10.9-5,16.9-3.9c2.8,0.7,5.8,0.2,8.3-1.3c-10.7-0.6-20.8-1-27.3-10.4
	c-0.9,0.9-0.3,2.1-0.4,3.1c1.6,2.9-0.2,4.3-2.4,5.5c-6.2,3.4-13,5-19.9,6.3c-11.3,2.3-22.8,2.5-34.2,0.5
	c-9.4-1.7-16.5-6.1-17.9-16.6c1.9-6.7,4.8-13.1,8.7-18.9c8.1-12.4,20-17.3,34.2-17.9c2.1,0,4.3-0.3,6.4-0.7c2,0.9,3.9,1.7,5.9,2.6
	c0.1,0,0.3-0.1,0.4-0.2c0-1-0.7-1.9-1.7-2.1c-5.4-1.5-3.8-3.2-1.1-6.6c7.6-9.6,9.4-20.9,7.9-32.8c-0.6-5.1-1.7-10.3-8-11.7
	c-3.6-0.8-6.8,0.3-10.4,1.7l2.8-4.9c6.5-7.7,14.6-11.9,24.9-11.1c2.5,0.2,4.6,2.2,7.2,1.2c3,0.3,4.1,0.7,1.8,4
	c-1.3,1.8-5.3,3.2-2.9,6.9c4.4-2.8,8.7-5.9,13.2-8.7c9.6-6,19.9-6.8,30.6-4.7c9.1,1.8,17.8,5,26.3,8.5c6.5,3.2,10.4,9.4,15.5,14.1
	c0.8,0.7,0.8,2.6,2.2,2.2c1.5-0.4,2.5-1.9,2.2-3.4l1.1-1.1c9-8.2,17.9-16.6,28.6-22.8c1.1-0.7,2.4-1.2,3.7-1.5
	c-6.9,5.7-12.5,12.8-19.3,18.6c-5.7,5-10.6,10.9-14.6,17.5c-3.4,5.5-0.5,10,2.6,14.4c6.4,2.4,12.5,0.2,18.5-1.4
	c6.9-1.9,13.5-4.6,20.6-5.8c1.5-0.2,3.3-1.6,3.8,1.2c-12.6,3.9-25.9,6.1-35.3,16.8c-4.5,5.2-4.2,7.6,2.2,10.1
	c8.4,3.2,17.4,3.7,26.2,5.1c6.9,1.1,13.6,3.1,20,5.7c-8.3-1.4-16.7-2.3-25-3.3c-6.7-0.8-13.5-0.2-20,1.6c-5.3,3.2-5.3,3.2-3,8
	c3.2,3.7,7.8,4.8,11.9,6.9c5.3,2.8,10.4,6,14.8,10.3c-8.7-3.9-16.3-10-25.6-12.3c-0.5,0.7-2.9-1-1.9,1.3c0.8,2,1.4,4.1,2.9,5.7
	l5,8.9c-3.7-1.9-6.1-6.1-11-4.9c-4.4,14.4-14.6,23.3-28.2,28c-16.5,5.7-33.8,4.4-50.9,4.2c-2.6,0-4.2-2.8-6.9-2.4
	c-0.3,0.1-0.6,0.1-0.9,0.2c-10.7,2.5-19.6,8.8-29.3,13.6c-6.3,3.1-12.7,4.7-19.7,2.6C115.6,184.1,114.4,182.9,113.1,182.1z"/>
<path class="st8" d="M257.9,99.1c-0.1-4.3,3.4-6.1,6.2-7.9c11.3-7.5,24-11,37.3-13.2c5.2-0.8,10.5-1.1,15.8-0.8
	c-0.6,6.8-2.6,13.4-3.3,20.2s-1.1,13.7,0.3,20.5c-1-0.2-1.8-0.9-2.1-1.8c-1-0.9-1.7-2-2-3.3c-0.2-0.8-0.3-1.5-0.3-2.3
	c0.1-8.8,1-17.6,2.7-26.2c0.8-4.4,0.6-4.8-3.8-4.1c-11.3,1.8-22.6,4-33.4,8c-5,1.8-9.6,4.7-13.4,8.4
	C260.8,97.8,260.1,99.7,257.9,99.1z"/>
<path class="st3" d="M230.2,45c-1.2-0.1-1.7-0.9-2.1-1.8c-0.9-1.6-1.4-3.4-1.3-5.2c-0.3-9.1-3-18-7.8-25.7c-1.8-2.9-3.7-5.7-7-7.1
	c-4.5-0.2-4.3,3.6-5.3,6.4c-0.5,4.2-0.1,8.3-0.2,12.5c-0.1,2.9-0.4,5.6-2.3,8H202c2.2-7.8,1-15.8,2.1-23.7c0.4-2.7,1.3-5.5,4.3-6
	s6-0.7,8.7,2.1c7.3,7.4,10.5,16.4,12.1,26.3C229.8,35.4,230.2,40.2,230.2,45z"/>
<path class="st8" d="M269.2,152.1l-0.2-2.9c4.3-3.2,9.5-1.9,14.5-2.6c-6.9-5.9-15.2-8.8-22.4-13.5c-0.3-0.8-1.6-1.7-0.6-2.6
	s2.1-0.1,3.2,0.4c8.1,3.8,15.2,9.1,22.6,14c2.7,1.8,5.1,4,7.7,6c-5.3-1-10.7-0.8-16-0.9C275,150,271.9,150.7,269.2,152.1z"/>
<path class="st8" d="M316.1,74c-1.1,0.1-2.4,0.5-3.1-0.9c-4.1-2.2-5.7-6.3-7.9-10c-5-8.5-9.9-17.2-12.8-26.8
	c-0.7-2.3-2.1-4.7-0.4-7.1c0.3-1,1.1-1.7,2.1-1.9c0.3,10.1,5.2,18.6,9.8,27.1C307.6,61.1,312.1,67.4,316.1,74z"/>
<path class="st3" d="M237.1,188.1c-0.4-1.4-0.8-2.7-1.2-4.1c-1.7-2.5-3-5.1-1-8c0.1-1.3,0.8-2.5,2-3.1c2.3,2.4,1.1,5.7,1.9,8.4
	c1.2,4,1.9,4.4,5.1,1.5c4.7-4.1,4.7-6.1,0.1-10.3c-0.8-0.8-1.9-1.4-2.1-2.6l1.1-1c3.1,0,5.2,1.8,7,4c0.4,0.7,0.8,1.3,1.1,2
	c2.1,3.7,0.1,6.4-2.1,9.1c-1.5,1.6-3.2,3.1-4.9,4.5c-1.3,0.6-2.6,1.5-4.2,0.5l-3-1.2L237.1,188.1z"/>
<path class="st8" d="M295.9,148.1l-1.9-1.9c-0.2-3.6,1.6-6.5,3.4-9.2c3.9-6.1,6.6-13.2,13.6-16.8c0.9-0.1,1.7-0.1,2.2,0.9
	C305.7,129.1,299.4,137.6,295.9,148.1z"/>
<path class="st8" d="M256.2,253.1c0-0.7,0-1.4,0-2.1c2.8-2.8,6.2-1.9,9.4-1.3c6.9,1.4,13.5,3.6,18.2,9.2c0.9,1.2,1.3,2.7,1,4.2
	c-6-5.9-13.6-9-21.6-10.9C260.9,251.6,258.5,252.3,256.2,253.1z"/>
<path class="st8" d="M252.9,250c0,1.1,0,2.1,0,3.2c-5.6-5.4-12.1-8-19.9-6.2c0.1-0.6,0.1-1.3,0.2-1.9
	C240.8,241.9,249.3,244.1,252.9,250z"/>
<path class="st7" d="M226.1,320.1c-5.5-10.6-11.8-20.8-18-31c-0.6-2.5,1.3-4,2.5-5.6c3.3-4.4,6.3-9,8.9-13.8c1.4-2.7,2.6-5.6,2-8.7
	c0.6,4.9-1.9,8.8-4.6,12.5c-2.9,3.1-5.2,6.8-8.5,9.6c-7.1,6.3-9.6,6.4-18.8,0.5c-0.7-0.4-1.1-1.2-2-1.5c-0.4,2,0,4-0.2,5.9
	c-0.1,2-0.7,3.9-1.9,5.5c-1.8,2.6-5.1,3.5-8,2.4c-4-1.4-1.7-4.7-1.8-7.2c-0.2,1.2-0.1,2.6-1.6,3.2c-3.6,0.8-6.4,0-7.8-3.8
	c-0.3-1,0.1-2,0.8-2.6c-1.5,0.8-2.1,3.6-4.5,2.5c-1.7-0.9-3.4-2.1-2.1-4.5c5.4-7.6,13.2-11.9,21.1-16.1c5.7-0.2,11.2,2,15.2,6.1
	c1.5-5.4,1.5-11.4,4.3-16.6c3.9-3.2,6.8-7.8,11.9-9.6c-1,0-1.9,0.3-2.8,0.2c-4.4,0.1-6,3.5-8,6.6c-1.5,2.3-1.2,5.6-4.1,7.1
	c-1.7-7.6-1.7-15.1-1.1-22.9c1.2-15.5,6.7-29.9,9.4-45c1.4-2.7,4-2.5,6.4-2.6c1.6,0,2.4,1,1.5,2.6c-0.6,6.1-2.3,12-2.1,18.2
	c0.1,14.8,5.9,28.9,16.3,39.4c8.4,8.7,17.9,16.3,25.7,25.7c9,11,18.3,21.6,24.4,34.8c4.2,9,12.8,13.1,22.3,14.8c5.5,1,11,1,16.3-1.9
	c6.4-3.4,9.5-9.1,11-15.8c1.2-5.7,1.5-11.5,1-17.3c-0.7-1.4-0.5-2.5,1.3-1.9c1.6,0.5,1.9,2.2,2.1,3.7c1.7,10.3,1.8,20.5-1.1,30.6
	c-3.6,12.5-13,19.6-26,20c-8,0.2-15.8,0-23.3-3.3c-0.1,1,0.1,2.2-1,2.9c-9.7,17.7-25.5,26.9-44.4,31.6c-7.3,1.8-14.7,2.7-22.2,2.7
	c-6.9,0-13.4,1.3-19.1,5.9c-4.1,3.3-5,2.7-5.7-3c0.9-8.1,4-15.8,5.5-23.7c0.2-1.2,0.9-2.2,1.9-2.9c7.2-4.3,10.9-11.5,15.6-17.8
	c1.9-2.5,3.7-5.1,6.8-6.4c1.6-0.2,3.2-0.9,4.5-1.9c13-8.7,26.5-10.3,39.8-3.5c-0.7-0.4-1.3-1-1.8-1.7c-3.2-6.4-15-8.2-22.9-6.4
	c-2.9,0.6-5.7,1.8-8.2,3.3C229.5,320.2,228,321.5,226.1,320.1z"/>
<path class="st9" d="M292.1,29.1c2.4,14.6,10.3,26.7,17.6,39c1,1.7,2.2,3.3,3.4,4.9c-19.2-1.9-37.4,3.1-55.5,8.3
	c-2.1,0.5-4.2,0.7-6.3,0.5c-1.7-2.7-0.1-5.1,0.9-7.4c6.2-13.9,15.8-25.1,27-35.2c2-1.8,3.7-3.8,6-5.2
	C287,31.8,289.4,30.1,292.1,29.1z"/>
<path class="st10" d="M174.2,385.1c-3.1-5.9-3.1-12.5-3.4-18.9c-0.6-11-5.8-20.5-9.1-30.7c-1-3,0-5.2,1.9-7.2c1.4-1.6,3.4-1.4,5.1-1
	c2.1,0.4,1.4,2.4,1.4,3.7c0.1,2.8-0.4,5.6,2,8.7c0-3.9-0.2-7.1,0.1-10.3c0.5-6.2,5.8-8.7,10.8-5.3c1.4,1.5,0.4,3.1,0.1,4.7
	c-3,6-1.7,12.1-0.4,18.2c-0.7-4.9-2.1-9.6-0.7-14.7c0.9-3.5,3-5.1,6.3-5.3s5.2,1.7,6.4,4.5c0.9,2,0.8,4.2,0.9,6.4
	c0.6,12.9-1.6,25.4-4.8,37.9c-0.4,1.9-0.7,3.9-0.8,5.9c-0.7,2.8,0.3,6.7-4.1,7.4S176.9,389.8,174.2,385.1z"/>
<path class="st11" d="M327.1,241.1c-0.4,12.7,3.5,24.5,7,36.4c3.6,12.1,7,24.3,7.8,36.8c1,15.2-4.9,27.5-19.4,36
	c-10.3,6-21.6,9-33.6,9.9c-4.6,0.4-9.2,1.1-14.5,0.7c2.9-6.1,7.5-11.2,8.7-17.8c5-1.2,9.9,0.6,14.7,1.2c6.8,0.8,13.7,0,20.1-2.4
	c10.9-4.1,14.7-13.4,15.5-24.1c0.7-9.4,0.2-19-1.7-28.3c-2.4-11.9-5.1-23.7-6.8-35.7c-0.4-3-0.5-6-0.3-8.9
	C324.9,243.3,324.7,241.3,327.1,241.1z"/>
<path class="st12" d="M153.1,300.3c20,10.3,41.4,13.9,63.7,12.7c2.2-0.1,2.9,0.5,3.7,2.1c1.1,2.4,2.4,4.7,3.7,7
	c-3.1,5-6.6,9.6-12.1,12.2c-4.8,0.3-9.5,0.3-14.3-0.1c-2.8-0.7-3.1-3.5-4.5-5.4c-0.7-2.2-0.9-4.6-1.8-6.7c-1.2-2.8-2.5-5.8-6.5-3.2
	c-1.3,0.9-2.5,0.2-3.5-0.9c-0.7-0.7-1.2-1.6-1.9-2.3c-1.3-1.2-2.5-3.2-4.5-2.4c-1.6,0.7-1.6,2.7-1.6,4.4c0.1,1.8-0.3,3.7-1.1,5.3
	l-1,1c-2.6-0.4-3.5-2.8-5-4.5c-0.8-0.9-1.8-1.8-3-1.4s-0.8,1.7-1,2.6c-0.4,1.9-0.5,4-2.3,5.3l-6.9-3.1
	C150.5,315.6,150.5,307.6,153.1,300.3z"/>
<path class="st13" d="M283.9,259c-6.4-3.7-12.6-7.6-20.4-8.5c-2.6-0.3-4.8,0.9-7.2,0.5c2-16.3,0.4-32.6,0-48.8
	c1.8-3.8,4.5-4.1,7.8-2.1c6,9.6,9.4,20.4,12.8,31.1C279.7,240.3,282.6,249.4,283.9,259z"/>
<path class="st11" d="M255.1,140.1c3.3,0.6,3.8,2.1,2.4,5.3c-7.5,16.6-19.7,27.8-37.5,32.1c-11.5,2.8-23.4,2.4-35,0.5
	c-8.9-1.4-17.7-3.8-27-3.2c2.9-2.1,5.7-3.9,9.1-4.7c5.4-1.8,10.8,0.1,16.1,0.3c14,0.7,27.9,0.8,41.3-3.8c11.8-4,21.8-10.5,27.5-22.2
	C252.8,142.8,253.5,141.1,255.1,140.1z"/>
<path class="st14" d="M140.1,71.1c-0.6,10.6-2.4,20.6-10.8,28.3c-1.6,1.4-3.2,2.2-4.8,1.5c-3.1-1.2-6.2-1.1-9.2-0.8s-4.3-1.4-5-3.7
	c-3.4-11.6,4.7-32.1,13.3-38.1c9.9-7,14.4-3,16.4,7.7C140.2,67.8,140.2,69.5,140.1,71.1z"/>
<path class="st15" d="M327.1,241.1c-2.6,6.7-0.6,13.4,0.6,20c3.2,18.4,8.2,36.5,7.5,55.4c-0.5,13.2-7.7,24.5-18.3,27.5
	c-8.6,2.4-17.7,2.6-26.5,0.6c-2.4-0.5-5.1,0.1-7.2-1.5c-0.2-1,0.3-2.3-1-2.9c0.7-2,1.5-0.8,2.9-0.4c12.2,3.4,24.3,4.7,35.8-2.5
	c5-3.1,7.4-8.1,9-13.3c3.3-10.6,2.8-21.5,1.2-32.4c-0.2-1.2-0.3-1.2-2-0.5c-0.9-5.1-2-10.2-2.6-15.4c-1.4-11.1-4-22.1-3.4-33.5
	c0.4-8.1,4.2-14.1,10.5-18.8c1.5-1.1,3.6-2.4,5.2,0s-0.6,3-2.2,3.8C330.7,230.1,329.2,235.8,327.1,241.1z"/>
<path class="st13" d="M252.9,250c-5.5-5.7-12.7-5-19.6-5c2.3-13.5,5.6-26.8,10-39.8c3.8-0.5,5.3,2.1,6.6,4.9
	c2.4,4.6,1.6,9.8,1.8,14.6C252.2,233.1,253.2,241.5,252.9,250z"/>
<path class="st15" d="M174.2,385.1c1.3,1,2.7,1.8,4.2,2.5c5.5,2.1,8.9,0.2,10.6-5.6c1.3,0,0.1-2.7,2.1-2c0.1,1.4,0.2,2.9,0.3,5.2
	c8-8.6,17.8-8.8,27.8-9.3c24.5-1.4,45.7-10,60.1-31.2c0.5-0.6,1.1-1.2,1.8-1.6c-2.4,10-9.1,17.1-16.5,23.6
	c-11.6,10.1-25.8,12.8-40.7,13.3c-5.8,0.2-11.5,1-17.3,1.2s-10.4,3.8-14.5,7.8c-4.5,2.7-9.1,3.5-14,1
	C176.3,388.8,174.2,387.8,174.2,385.1z"/>
<path class="st16" d="M240.1,189.3l4-1.3c1.5,1.7,0.7,3.4,0.1,5.1c-5.9,17.1-10.8,34.5-13.6,52.4c-0.3,1.6-0.7,2.6-2.5,1.6
	c-1.6-2-3.1-4.2-5-6.1c-7.2-7.3-3.3-14.1,0.6-21.2C229.3,209.8,234.6,199.5,240.1,189.3z"/>
<path class="st17" d="M141.2,34.9c1.6-11.9,7.4-22.7,16.4-30.7c1.5-1.3,3.4-2.3,5.4-1.1s0.9,2.8,0.4,4.4c-0.2,1.1-0.4,2.3-0.4,3.4
	c-1.8,7.9-4.4,15.6-4.7,23.8c-0.1,0.8-0.5,1.6-1.2,2.1C151.9,34.6,146.5,35.2,141.2,34.9z"/>
<path class="st18" d="M248,184c2.3-2.4,3.5-5.6,3.2-8.9c5.7-0.7,8.8,3,11.8,6.9c5.4,6.9,8.3,15.1,11.4,23.1
	c5.1,13.3,8.6,27.1,10.6,41.2c0.1,1.6,0.1,3.3,0,4.9c-2.8-4.3-2.9-8.3-3.9-12c-4.5-15.8-9.3-31.4-17.8-45.7c-1.4-2.6-3.3-5-5.4-7.1
	c-1.3-1.1-2.3-3.6-4.3-2.8c-2.3,0.9-1.4,3.4-1.5,5.4c0.6,1.1,1,2.4-0.3,2.9c-1,0.5-1.7-0.7-2.2-1.6C248.5,188.4,247.2,186.5,248,184
	z"/>
<path class="st16" d="M340.2,237.1c0.8-2.7,1.4-5.4,1.9-8.1c0.7-6.4-3.5-10.8-11.2-11.9c-1.2-0.2-3.1,0.7-3.3-1.2
	c-0.1-1.5,1.7-2,2.9-2.4c9.8-3.2,19.7-3.7,29.6-0.3c1.1,1,0.7,2.1,0.2,3.2c-3.8,8.2-9.1,15.2-16.8,20.2
	C342.5,237.3,341.3,237.5,340.2,237.1z"/>
<path class="st19" d="M311,113.1c0.5,1,1.3,1.8,1.1,3.1c-7.5-3.2-15-6.4-23.1-7.6c-7.4-1.1-14.9-2-22.3-3.5
	c-3.5-0.7-7.8-1.1-8.8-5.9c8.2-11.2,20.9-13.9,33.2-17c6.4-1.6,12.9-2.5,19.4-3.8c3.2-0.6,5-0.7,3.8,3.8c-2.5,9.4-3,19.2-3.4,28.9
	c-2.7-0.7-2.2-3.1-2.2-4.8c0-6.2-0.6-12.3,0.8-18.4c0.5-2.2,0.5-4.1-2.8-3.6c-12.4,1.8-24.6,4.1-35.9,10c-1,0.5-2,1.2-2.9,1.9
	c-1.2,1-3.3,1.8-2.9,3.7c0.4,1.6,2.4,1.5,3.9,1.8c8.3,1.7,16.8,2.6,25.1,4.5C300.1,107.4,306.3,108.5,311,113.1z"/>
<path class="st20" d="M311,120.2c-7.4,7.6-12.5,16.6-17,26c-8.1-7.9-16.1-16.1-26.9-20.6c-1.4-0.6-2.9-0.8-4-1.7
	c-1.4-1.1-4-1.2-3.8-3.9c0.2-2.9,2.5-3.9,4.6-4.6c5.1-1.7,10.5-1.7,15.7-1.1c9.8,1.1,19.6,2.1,29.1,4.8
	C309.6,119.5,310.3,119.8,311,120.2z"/>
<path class="st15" d="M255.1,140.1c-3.2,10.8-10.4,18.2-20,23.5c-10.5,5.8-22,7.9-33.9,8.6c-11.5,0.8-22.8-1.9-34.2-2.1
	c0.1-0.7,1.2-1.4,0-2.1c1.8-0.6,3.8-3.4,4.9,0.7c0.1,0.3,1.2,0.4,1.8,0.4c16.1-0.1,32.2,1,47.9-3.3c12.9-3.6,22.1-11.5,28.5-23.1
	c0.9-1.6,1.3-3.5,2.9-4.6L255.1,140.1z"/>
<path class="st21" d="M227.1,46.2c-3.4,1.2-6-1.2-8.9-2.2c-7.6-2.5-15.1-5-23.1-6c-13.6-1.7-24.4,4.6-34.7,12.2
	c-1,0.7-1.7,3-3.4,0.8c6.9-13,27.5-20.3,41.8-17.3C209,35.9,218.6,40.1,227.1,46.2z"/>
<path class="st22" d="M161,151.7c-2.1,4.2-6,6.4-9.2,8.9c-8,6.1-16.1,12.1-26.1,14.8c-2.3,0.6-4.6,1.4-6.6,0s-0.3-3.4,0.1-5
	c0.6-2.6,2-4,5.1-4.4c11.6-1.6,22.1-6.3,32-12.5C157.6,152.6,158.7,151.2,161,151.7z"/>
<path class="st23" d="M130.1,104.2c-6,2.8-12.7,1.9-18.9,3.8c-13.2,4.1-20.8,13.5-26.1,25.4c-1.1,2.6-1,5.9-3.9,7.5
	c-0.8-1.4-0.6-3-0.8-4.5c1.2-4.6,1.7-9.4,3.8-13.8c3-6.5,7.9-12,14.1-15.5l-0.1,0.1c4.2-2.7,9-3.5,13.8-4.6
	c3.7,0.1,7.4-0.3,11.2,0.3C125.1,104.8,127.7,103.7,130.1,104.2z"/>
<path class="st15" d="M81.1,136.2v4.8c2.2,13.5,12.9,15.9,23.5,16.9c15.2,1.6,30.6-0.5,44.8-6.1c2.6-1,6.1-1.6,5.7-5.8
	c3.4,1.9,3.2,3.6,0,5.5c-3.6,2.1-6.9,4.5-11,5.6c-14.7,6-29.9,6.9-45.4,4.1c-3.7-0.8-7.3-2.2-10.6-4.1c-7.9-5.4-11.9-24.9-5-34.1
	C83.8,127.6,81,131.7,81.1,136.2z"/>
<path class="st15" d="M248,184c0.8,2.1,1.5,4.2,2.3,6.3c0.2,0.6,0.8,1.4,1.3,0.9s0.4-1.4,0.6-2.1c1.9,2.8,1.5,6.1,1.7,9.1
	c1.4,14.9,1.6,29.9,0.7,44.8c0-7.2-0.9-14.4-1.4-21.6c-0.6-9.1-1.1-18.1-3-27.1c-0.3-1.4-0.2-3.3-2.1-3.4s-2.4,1.7-2.9,3
	c-5.1,11.8-8,24.2-11,36.6c-1.3,5.3-2.8,10.5-3.2,16c-0.2,2.4-1.3,3.1-2.9,0.7c1,0,1.9-0.8,2-1.8c2.7-18.8,8.5-36.7,13.8-54.8
	c0.2-0.8,0.2-1.6,0.2-2.5L248,184z"/>
<path class="st24" d="M220.1,214.2c-0.2,4.3,0.9,9-3.3,12.9c-5.2-13.6-2.5-26.4,2.5-39c1-1.7,2.1-2.1,3.5-0.4
	c1.3,5.9-1.3,11.5-1.7,17.2C220.9,207.9,221.3,211.2,220.1,214.2z"/>
<path class="st25" d="M261.2,133.1c9.7,2.4,17.3,8.5,25.4,14.3c-6,0.6-11.8,0.7-17.5,1.8L261.2,133.1z"/>
<path class="st26" d="M285.1,34.1c-4.4,5.7-10.1,10-14.8,15.4c-7.8,8.8-14.7,18.3-18.6,29.5c-0.2,0.9-0.4,1.9-0.5,2.9
	c-2.9-2.2-2.3-5-1.6-8c1.2-4.9,4.1-9,7.1-12.8c7.7-10,16.9-18.5,26.5-26.5C283.7,34.2,284.5,34.3,285.1,34.1z"/>
<path class="st6" d="M204.2,31.9c2.1-7.2-0.3-14.8,1.9-22c2.7,4.1,1.2,8.7,1.4,13.1c0.3,6.2,0.5,6.5,6.5,7.9
	c2.8,0.7,3.5,0.1,3.2-2.8c-0.6-6.6-2-13.1-4.1-19.4c-0.5-1.5-1.6-3-0.9-4.7c3.5,1.1,5.7,3.7,7.1,7c4.4,8.8,4.7,17.9,1.9,27.2
	L204.2,31.9z"/>
<path class="st27" d="M220.1,214.2c-0.7-9.2,2.7-18.1,1.7-27.3c0.8-3.3,3.6-5.5,5.1-8.4c2.4-1.7,4.6-4.1,8-2.4c0.3,2.7,0.7,5.4,1,8
	c-2,0.2-3.4-3.3-5.3-1.4c-1.5,1.6-0.2,4,0.1,6.2c0.6,3.4,2.5,6.7,0.8,10.5c-0.8-2.7-1.6-5.3-2.3-8c-0.4-1.5-0.7-3.1-2.6-3.2
	s-2.2,1.8-2.5,3.2c-1.6,6.4-2.6,13-3.1,19.6C221,212.1,221.2,213.3,220.1,214.2z"/>
<path class="st28" d="M204,181.2c0.3,9.6-1.8,11-11.2,8c-4.6-1.4-7.9-3.4-6.7-9C192.1,181.6,198.1,180.9,204,181.2z"/>
<path class="st29" d="M242,170c0.8,0.4,1.5,0.8,2.2,1.2c2.4,2,5.8,3.7,4.6,7.5s-4.4,6.2-7.8,7.9c-2,1-2.5-0.7-2.8-2.3
	c-0.8-3.7-1.2-7.5-1.1-11.3C238.7,172.1,239.8,170.1,242,170z"/>
<path class="st30" d="M221.1,38.2c0-9.1,0.7-18.3-1.9-27.2c6.2,7.4,8,16.4,8.9,25.7c0.2,2.1,0,4.3,0,6.5
	C225.6,41.6,222.9,40.6,221.1,38.2z"/>
<path class="st11" d="M88.1,157.1c17.8,6.1,35.7,5.2,53.6,0.3c0.8-0.2,1.6-0.3,2.4-0.3c-9.4,5.2-19.1,7.9-30,7.2
	c-7.6-0.5-15.1-0.8-22.1-4.3C90.5,159.3,88.8,158.9,88.1,157.1z"/>
<path class="st31" d="M292,78.1c-3-2.2-5.7,0.2-8.4,0.9c-7.7,2-14.9,5.4-22.7,6.8c-4.1,0.7-8.2,1.2-11.8-1.6c10,0.6,19.1-3.6,28.5-6
	c9-2.4,18.3-3.4,27.5-3L292,78.1z"/>
<path class="st27" d="M117.1,183.1c11.4,3.6,20.1-3,29.2-7.9c6.3-3.4,12.5-6.7,19.9-7.1c-6.8,3.5-14,6.1-20.1,11
	c-5.5,4.3-11.5,7.3-18.5,7.9C123.7,187.3,119.3,187.8,117.1,183.1z"/>
<path class="st30" d="M157,36.9c-0.5-9.2,1.9-17.7,5.9-25.9c-0.2,6.8-2,13.6,0.1,20.4c0.8,2.5,1.3,5,2,7.5
	C161.7,40.9,159.9,36.8,157,36.9z"/>
<path class="st28" d="M168.1,366.1c-6.6-3.9-11.7-9.7-14.7-16.7c4.6,0,8,2.4,11.6,3.8C166.5,357.4,168.4,361.4,168.1,366.1z"/>
<path class="st21" d="M158.1,40.2c-0.8,1.3-2.1,1-3.1,0.8c-10.9-2.7-19.7,0.9-27.2,8.8c-0.4,0.5-1.1,1.5-1.9,0.3
	c1.3-7.9,15.6-15.2,23.3-12.6C152.2,38.5,155.2,39.2,158.1,40.2z"/>
<path class="st5" d="M172.3,323.1c0-2.8-0.3-5.7,0.2-8.4c0.6-3.3,2.7-4.4,5.6-2c1.2,0.9,2.3,1.9,3.1,3.2c1.4,2.2,2.3,4,4.9,1
	c1.4-1.7,2.9-0.3,4.2,0.9c2.9,2.9,3.4,6.6,3.7,10.4c-1,0.2-2-0.2-2.5-1c-1.5-1.9-1.3-4.8-3.7-6.5c-1.8,1.5-1.6,3.8-2.2,5.8
	c-0.7,1.4-1.7,2.3-3.4,1.6l0.7-3.9c0.9-2-0.7-2.9-1.9-4c-1.9-0.9-2.7-3.2-4.8-3.8c-1.6,1.2-0.6,3.6-2.1,4.7
	C173.8,322,173.1,322.7,172.3,323.1z"/>
<path class="st32" d="M150.1,325.1c1.4-0.1,2.9,0.3,4,1.2c3.6,3.9,2.7,9.4,4.8,13.8c1.4,3,3.5,5.6,4.1,9c-1.7,0.4-3.5,0-4.9-1
	C152.2,341.5,150.1,333.6,150.1,325.1z"/>
<path class="st11" d="M206.2,190.1l-0.1-9c2.9-0.3,5.9,0.4,8.8-0.8c1.1-0.4,2.3-0.4,3.3,0.2c1.4,1.1-0.2,2.3-0.6,3.4
	c-0.4,1.4-1.1,2.8-1.6,4.1C213.1,190.2,209.9,191.6,206.2,190.1z"/>
<path class="st11" d="M117.1,183.1c5.2,4.1,10.8,3.1,16.3,1.3c4.3-1.5,8.5-3.5,12.7-5.3c-5.4,5.4-11.1,10.4-19.5,10
	c-5.6-0.3-10.2-2.4-13.4-7.1L117.1,183.1z"/>
<path class="st11" d="M340.2,237.1c9.9-5.2,16.1-13.5,19.8-23.9c1.9,0.1,3.7,0.8,2.5,3c-5.9,10.1-12.7,19.2-23.8,24.6
	C338.3,239.4,338.9,237.8,340.2,237.1z"/>
<path class="st18" d="M86.1,109.2c2,0.1,3.7,0.7,1.5,2.7c-5.1,4.8-7.8,10.8-9.4,17.4c-1.7-0.6-1.9-1.9-2.1-3.1
	C75.5,118.3,78.1,112.2,86.1,109.2z"/>
<path class="st26" d="M264.1,200.1c-2.8,0.1-5.7-0.5-7.8,2.1c-0.7-4.8-1.4-9.6-2.2-15C258.8,191,262.7,194.6,264.1,200.1z"/>
<path class="st33" d="M229.9,203.2c-1.1,5.5-4.6,9.7-7.7,15.4c-0.3-7,1.4-12.6,2.1-18.4C227.1,199.3,228.9,200.6,229.9,203.2z"/>
<path class="st26" d="M249.9,210.2c-2.2-1.6-3.9-4-6.6-4.9c1.3-3.8,2.5-7.6,3.8-11.5C249.2,199.2,250.6,204.5,249.9,210.2z"/>
<path class="st34" d="M86.1,109.2c-6.1,4-9.2,9.9-10,17C72.4,115.8,77.8,107.6,86.1,109.2z"/>
<path class="st35" d="M81.1,136.2c-1-4.6,1.5-8.8,1.9-13.2c2.5-7.3,8-13.1,15.1-15.9C88,114.2,83.5,124.6,81.1,136.2z"/>
<path class="st5" d="M159.9,326.1c0.4-1.9,0.9-3.8,1.1-5.7c0.2-1.5-0.2-3.4,1.4-3.9c1.9-0.6,3.4,0.8,4.6,2.2
	c1.5,1.7,2.8,3.6,4.1,5.4c-0.4,1.1-1.3,1-2.2,0.8c-1.8-0.6-2.9-2.1-4.3-3.2c-2.1,0.8-1,3.4-2.6,4.4c-0.3,0.9-1.1,1.7-2,2
	L159.9,326.1z"/>
<path class="st36" d="M226.9,178.4c0,3.8-3.3,5.7-5.1,8.4c-1-0.2-2,0.3-2.6,1.2C220.8,179.4,221.4,178.7,226.9,178.4z"/>
<path class="st26" d="M229.9,203.2c-1.5-1.6-3.7-2-5.6-2.9c0.7-3.2,0.8-6.5,2.4-9.8C228.7,194.6,230.1,198.7,229.9,203.2z"/>
<path class="st12" d="M158.9,340.1c-2.4-4.3-3.7-9-4.8-13.8c2.3-0.4,3.8,2,6,1.9C157.7,331.9,158.8,336,158.9,340.1z"/>
<path class="st36" d="M174.1,321.1c0.6-2.2-1.5-5.9,1.2-6.5c3.2-0.7,4.5,3,5.8,5.6C178.6,319.4,176.5,321.5,174.1,321.1z"/>
<path class="st11" d="M178.1,390.1c4.7,0.3,9.4-0.1,14-1C186.7,394.5,182.9,394.7,178.1,390.1z"/>
<path class="st6" d="M162.1,326.1c0-0.8,0-1.6,0-2.4c0-1.7,0.2-3.6,1.9-4.1c1.9-0.6,1.9,1.8,2.9,2.8c0.8,0.8,1.4,1.7,2.1,2.6
	C166.6,324.9,164.3,325.3,162.1,326.1z"/>
<path class="st26" d="M237.1,188.1c0.4,2.5-1.2,4.3-2.3,6.5c-1.7-4.1-2.2-6.1-2.1-9.2C234.9,185.2,235.4,187.7,237.1,188.1
	L237.1,188.1z"/>
<path class="st15" d="M206.2,190.1l9.8-2c-0.2,1.8-0.8,3.5-1.9,5c-2.6-3-5.3-0.7-7.9-0.1C206.2,192.1,206.2,191.1,206.2,190.1z"/>
<path class="st11" d="M257.1,122.1c-1.9-1-3.5-2.3-2.9-4.6c0.7-2.9,3.3-3.3,5.8-3.4C258.2,116.4,256.4,118.8,257.1,122.1z"/>
<path class="st37" d="M259.1,134.1c-2.6-2-4.4-4.9-5.1-8.1c1.7-0.2,3-0.1,4,1.1C257.7,129.5,258.5,131.8,259.1,134.1z"/>
<path class="st38" d="M116.8,173.4c-0.4-0.4-0.8-0.6-0.9-0.9c-1-2-1.8-4.7,0.1-5.8c2.2-1.3,2.1,0.8,1.7,2.4
	c-0.2,0.8-0.3,1.6-0.5,2.4C117,172.1,116.9,172.6,116.8,173.4z"/>
<path class="st39" d="M111.2,103.1l-13.1,4c2.7-2.9,6.1-4,9.9-4.1C109,102.4,110.3,102.4,111.2,103.1z"/>
<path class="st15" d="M111.2,103.1L108,103c5-1.7,10-1.4,15.1-0.1L111.2,103.1z"/>
<path class="st40" d="M48.1,165.2c1.2-1.7-0.5-1.6-1.2-2.3c-4.5-4.1-9.1-8-12.8-13.5c19.9-0.6,34.3,11.6,50.9,17.8
	c-0.2,2.3-2.2,2.3-3.7,2.6c-8.2,2.1-16.1,5.3-23.6,9.4c-3.2,1.7-6.7,2.9-10.3,3.6c-2,0.4-4.3,1-5.5-1.1c-1.1-1.9,0.7-3.3,1.8-4.8
	c0.4-0.5,0.9-1,0.9-1.5c-10.9-1-22.3,2.6-33.6-3.6c3.1-1.8,5.5-1.2,7.7-1.5c6.6-0.7,13.2-2,19.6-3.8
	C41.5,165.7,44.8,165.3,48.1,165.2z"/>
<path class="st41" d="M48.1,165.2c-11.4,3.5-22.9,6.9-35.1,6.5c11.3,3.8,22.8,2.2,34.3,1.7c0.3,2.4-1.7,3.4-2.9,4.9
	c-0.8,1-2.6,1.7-1.6,3.2c0.6,1,2.2,0.7,3.3,0.4c2.6-0.7,5.3-1,7.6-2.3c9.9-5.3,20.5-9.5,31.3-12.4l5.7,1.2c-3.9,2.6-8.2,3.1-12,4.6
	c-6.6,2.7-12.5,6.8-19,9.6c-8.3,3.6-16.8,6-25.9,3.1c0.4-3.7,4.2-5,5.9-8.4c-11.3,2.6-21.4,0.2-31-5.6c2.2-2.7,5.3-1.4,7.9-2.2
	c5.6-1.9,11.5-3,17.1-4.8C38.6,163.2,43.3,163.1,48.1,165.2z"/>
<path class="st42" d="M105.8,300.1l-7,0.4c0.7,2.6,1.3,5.1,2,7.7c-4.5,9.2-0.5,18.1,0.7,28.3c1.3-5-0.3-8.6-1-12.3
	c-0.6-3.1-0.5-6.3,0.2-9.3c0.9-3.5,2.9-4.9,6.5-4.8c3.9,0.1,5.5,2.7,5.7,5.8c0.3,5.9,1,11.9-0.5,17.9c-0.4,1.6-1,3.9,0.2,4.8
	c1.8,1.4,2.6-1.3,4-2c6.3-3.2,10.3-9.3,16-13.3c3.7-2.8,8-4.7,12.4-5.8c-0.6,7.7,1.4,15.2,2.2,22.8c0.2,2.1-1.5,2.4-2.8,2.9
	c-8.7,3.2-17.2,7.1-26,10.1c-3.5,1.2-7.1,1.7-10.8,1.5c-6.9-0.3-10.9-3.8-11.3-10.7c-0.3-5.3-1.3-10.5-2-15.7
	c-0.6-6.8-3.7-13-5.3-19.5c-0.3-0.9-0.5-1.9-0.6-2.9c0-1.6,1.1-2.9,2.7-3.2c1.6-0.2,1.1,1.7,1.7,2.6c0.8,1.3,0.6,3.2,2.7,4.5
	c-1-4-1.7-7.6-0.8-11.2c0.6-2.2,1-4.7,3.9-5.3c2.6-0.6,3.9,1.5,5.4,3C104.7,297.2,105.5,298.6,105.8,300.1z"/>
<path class="st12" d="M206.1,290.9c3.6,5.6,7.3,11.3,10.9,17c0.8,1.3,1.9,3.1-1.3,3.2c-15.1,0.3-30.2-0.3-44.6-5.8
	c0.8-2.7,1.6-5.5,3.9-7.5c0.5-0.1,0.9,0,1.3,0.2c1.6,1.5,0.2,5.1,2.9,5.1c2,0,2.2-3.1,3.4-4.6c2.7-3,4.2-6.8,4.5-10.8
	c0.1-3.5,2.1-3.6,4.1-1.6C195.4,290.4,200.4,291.7,206.1,290.9z"/>
<path class="st10" d="M148.1,242c5.9,0.5,10.5,4.5,15.9,6.2c-2,4.3-3.9,8.6-5.9,12.9c-2.8-1.1-4.8-2.9-5.3-7.6
	c-1,4.5-1.7,7.5-3.1,10.3s-3.6,5-6.6,3.9c-3.3-1.1-2.4-4.5-2.1-7.2c0.1-1.3,1.6-2.3,0.6-3.8c-1.7,0.1-2.1,1.8-2.2,2.8
	c-0.5,3.9-2.6,4-5.6,2.8c-3.3-1.3-3.3-3.7-2.2-6.5c1.6-3.9,5.8-5.7,8.1-9.8c-4.6,1.6-7.1,4.7-9.3,8.1c-0.5,0.8-0.9,1.9-2.2,1.6
	c-1.7-0.4-1.1-1.8-1.1-2.9C131.8,244.9,138.9,241.5,148.1,242z"/>
<path class="st12" d="M195,250.9c0,8.8-1,9.7-9.6,8.1c-6.1-1.2-12.1-3-17.8-5.5c-2.8-1.2-2.7-2.3-1.5-4.3c0.7-1.1,1.2-2.3,1.8-3.5
	c4.3-8.9,4.3-8.9,13.6-6.3c2,0.6,4.1,1.3,6.1,1.8C195,242.9,195,242.9,195,250.9z"/>
<path class="st43" d="M182.2,328.1l3-1.9c2.5-2,4.8-1.7,6.8,0.8l1.9,1.2c1,1.7,2.1,3.4,3.1,5.1c0.6,0.5,1,1,1.3,1.7
	c1.7,4.5,0.6,9.2,1,14.3c5.2-3.9,7.5-9.8,11.6-14.2c0.7-0.6,1.4-1.2,2.1-1.8c4-3.4,6.6-8.2,11.1-11.1l1.8-2c4.4-1.3,8-4.5,12.6-5.4
	c7.8-1.5,15-0.9,21.8,3.5c1.4,0.9,2.8,1.9,2.6,3.9c-2.9,1.3-4.8-0.9-6.9-2.2c-6.2-3.9-12.6-3-19.1-1.1c-6.9,1.9-11.3,7.5-17,11.2
	c-5,3.6-7.6,9-11.2,13.8c-3,3.9-5.7,8.2-10.4,10.3c-0.9,0.4-1.6,1.3-1.8,2.3c-1.9,7.8-3.7,15.7-5.5,23.5c-1,0.6-0.9,1.6-1,2.6
	c-0.1,0.5-0.3,0.9-0.8,0.4c-0.2-0.2-0.2-0.6-0.3-0.9c1.5-9.6,3-19.2,4.6-28.8c1.1-6.5,0.6-13,0.4-19.4c-0.1-2.9-1.7-5.5-5.2-5.7
	s-5.5,1.8-6.2,5.1c-1.1,5,0,9.9,1.1,14.7c0.3,1.1,0.7,2.2-0.3,3.9C180.9,343.7,178.7,336.1,182.2,328.1z"/>
<path class="st1" d="M176.1,298.3c-0.3-0.1-0.6-0.2-0.8-0.2c-1-0.4-2-0.6-3-0.8c-1.8-0.1-3.5-0.5-5.2-1.2c-1.6-0.6-2.5-1.9-3.5-3.1
	c-1-1-2.2-1.7-3.2-2.6c-1-0.8-1.7-1.9-2.1-3.1c-0.5-3.8-1.1-7.6,2.9-10.2c0.9-0.3,1-1.1,1.1-1.9c4-8.2,15.2-12.3,25.1-9.1
	c1.6,0.4,3.1,1.1,4.5,2c2.8,2,4,0.4,5.2-1.9c1-1.5,1.4-3.4,1-5.2c1.9-3.6,2.5-7.8,5.1-11.1c1.9-2.3,3.9-4,7-3.7
	c-1.9,4.1-6.1,6.6-8,10.8c-3.9,5.2-2.3,11.7-4.6,17.8c-5.1-3.3-10.1-6.8-16.5-6.5c-2.9,1.2-5.9,2.1-8.7,3.5
	c-5.3,2.6-9.4,6.5-11.2,12.3c1.2,3.9,1.4,4.1,3.9,2c2.1-1.8,2.1-0.8,1.9,1c0.1,5.5,2.2,6.8,7.1,4.1c1.7-1.3,0.3-4.1,2.5-5.1
	c1,1.1-0.5,2-0.4,3c0.2,2.2-1.9,5.3,2,6.1c3.6,0.8,6.6-0.5,7.3-4.2s0.5-7.6,0.7-12.3c1.5,1.8,2.7,3.2,3.8,4.5
	c10.6,8.6,10.9,8.6,19.7-1.6c2.3-2.6,4.1-5.6,6.2-8.4c1.8-4,5.1-7.3,5.2-12c1.6,6.9,0.5,9.2-13.2,28.1l-2,1.8
	c-7.6,4.4-12.2-1.3-17.6-5.5c-1.1,5-0.4,10.6-5.4,13.8c-0.6,0.4-1.2,0.7-1.9,0.9c-1,0.1-1.9,0.1-2.9-0.1
	C177.2,299.8,176.7,299,176.1,298.3z"/>
<path class="st12" d="M196.9,266.2v5.9c-3.6-1.8-6.7-3.8-10.2-4.9c-8.6-2.6-16.1-0.3-22.4,6.1c-0.7,0.7-1.5,1.3-2.2,2
	c-6.3-1.3-6.3-1.3-4.1-7.2c1.6-4.3,2.3-10,5.5-12.4c3.3-2.5,7.9,2.5,12.1,3.2c4.5,0.8,8.9,2.6,13.6,2.2
	C193.4,260.6,196.5,261.3,196.9,266.2z"/>
<path class="st12" d="M195.9,227.3c0.8,3.1-1.3,5.6-0.9,8.4c0.7,4.7-2.2,4.9-5.4,4c-4.6-1.3-9-3-13.6-4.2c-2.7-0.7-3-1.9-1.9-4.1
	c0.3-0.6,0.5-1.2,0.8-1.8c4.2-9.5,4.2-9.5,14.5-7c0.9,0.3,1.9,0.4,2.9,0.4C195.6,222.8,198.2,223.2,195.9,227.3z"/>
<path class="st12" d="M184.5,202.6c4.9,1.8,9.3,3.6,14.2,3.5c1.6,0,2.4,0.3,1.7,2.4c-1,3.3-1.8,6.6-2.4,10c-0.3,1.3-0.8,2.3-2.1,2.4
	c-5.2,0.6-10.1-0.8-14.8-3c-1.4-0.6-0.8-1.8-0.4-3C182,210.9,183.2,206.8,184.5,202.6z"/>
<path class="st11" d="M152.1,353.1c-12.2-0.8-24,2-35.9,3.7c-4,0.6-8.2,1.3-12.1-0.7c0.5-0.7,1.3-1.1,2.1-1.1
	c11-0.5,20.5-5.7,30.5-9.3c3.9-1.4,7.8-3.8,12.3-1.6C150,347.1,151.1,350.1,152.1,353.1z"/>
<path class="st44" d="M186.5,189.5c5.1,1.4,9.9,3.3,15.1,2.7c0.6-0.1,1.7,0.1,1.8,0.4c0.9,3.1-0.7,6-1.2,8.9
	c-0.3,2.1-1.5,2.6-3.4,2.6c-4.4-0.1-8.3-1.8-12.4-3c-1.9-0.6-1.5-2-1.4-3.2C185.4,195.1,186,192.4,186.5,189.5z"/>
<path class="st27" d="M149,344.1c-9.2,0.6-17.4,4.8-25.8,8c-6.2,2.4-12.4,4.3-19.2,4c-5.2-0.6-8.1-4-8.8-8.7
	c-0.8-6.4-0.8-12.9-1.2-19.3c2,4.1,2.2,8.6,2.7,12.9c1.6,13.3,7.3,13.7,17.5,11.5c11.4-2.4,22-7.8,32.7-12.5
	C147.8,341.4,148.4,342.7,149,344.1z"/>
<path class="st12" d="M161,277.1c-2.3,3.4-2.2,7.1-1.8,11c1.4,2.9,1.5,6.2,5.9,7.5c2.6,0.8,3.4,5.1,2.8,8.6
	c-5.3-1.5-10.3-3.8-14.9-6.9c-1-7.2,0.5-14.6,4.1-21L161,277.1z"/>
<path class="st32" d="M153.1,300.3c0,7.6,0,15.1,0,22.7c-4.1-0.5-6.4-2.4-6-7s0.3-9.1,0.8-13.7C148.6,296.9,150.2,297.8,153.1,300.3
	z"/>
<path class="st28" d="M150.1,325.1c2.1,7.9,3.9,15.8,8.1,22.9c-6.1,0-7.9-4.3-8.9-9.2c-0.8-4.2-1.6-8.4-2.1-12.6
	C146.8,322.8,148.3,323.4,150.1,325.1z"/>
<path class="st45" d="M157.1,276.3c-1.4,7-2.7,14-4.1,21c-2.7-1-3.8-2.6-2.8-5.6c1.5-4.5,2.6-9.1,4-13.6
	C154.6,276.8,154.9,274.7,157.1,276.3z"/>
<path class="st5" d="M167.9,304.1c-0.6-2-2-3.8-2-6c0-0.8-1.1-2.4-1.5-2.4c-7.4,1.2-4.7-4.3-5.2-7.6l1.8,2c0.7,1.2,1.2,2.6,3.1,2
	c1.2,0.9,1.2,2.8,2.9,3.3c1.9,1.4,2.1,3.7,3.3,5.8c1.1-1.6,1.1-3.6,2.6-4.8c1.6-0.4,2.1,0.5,2.2,1.8c-1.7,2.2-1.3,5.6-4.2,7.2
	C170,304.9,168.6,305.5,167.9,304.1z"/>
<path class="st6" d="M94.1,292.1l-2.7-5.6c4.4-0.8,6.6,1.7,8.6,4.5C98.1,291.3,95.8,290.6,94.1,292.1z"/>
<path class="st36" d="M89.1,300.1c0.2-2.1-0.1-4.3-0.9-6.3c1.9,0,2.3,1.8,3.7,2.3C92.3,298.4,92.7,300.6,89.1,300.1z"/>
<path class="st21" d="M148.1,242c-8.4,0.9-15.2,4.9-20.8,11.1c0.6-5.5,6.4-11.6,11.8-11.8C142,241.1,145.2,240,148.1,242z"/>
<path class="st46" d="M138.1,265.2c-0.9,2.8-2.2,6.5-5.3,5.8c-2.6-0.6-1.5-4.5-1.6-7C133.4,264.8,135.7,265.2,138.1,265.2z"/>
<path class="st36" d="M146.1,269.2c0,2.1-1.6,3.1-3.4,4.3c-0.6-1.6-1.1-3.1-1.6-4.5L146.1,269.2z"/>
<path class="st6" d="M128.2,259c-0.8,1.2-2.2,1.9-3.7,1.7c-0.2-1.4,0.4-2.9,1.7-3.7L128.2,259z"/>
<path class="st1" d="M153,133.1c3.2-3,7.2-4.6,11.8-6.3c-6-8.6-8.7-19.1-7.6-29.5c1.1-12.4,5-23.5,15.5-31.3c2.9-2.1,6.4-2.6,9.5-4
	c10.6-1.1,19.4,4.9,23.5,16.1c4.4,11.7,3.9,23.4-0.6,35c-2.8,5-4.8,10.5-9.6,14.3c-1.3,1.1-0.8,1.9,0.5,2.6c1.7,1,3.3,2.3,4.7,3.8
	c-15.7-8-31.2-9.8-46.5,0.5C153.2,134.4,152.8,133.9,153,133.1z"/>
<path class="st47" d="M130.1,122.2c0,6.9-8,18.1-14,19.7c-3.1,0.9-5.2-0.8-4.9-3.8c0.6-5.7,0.4-11.6,3.2-16.9
	c2.3-4.7,7.9-6.8,12.7-4.7C130.2,117.8,130.3,120.1,130.1,122.2z"/>
<path class="st15" d="M205.1,113.1c2.3-10.9,3.5-21.8,0-32.7c-3.6-11.2-10.8-17.8-23-18.4c8.9-2.9,15,1.9,20.2,7.9
	C212.3,81.3,212.6,100.7,205.1,113.1z"/>
<path class="st21" d="M125.3,111.1c-9.2,3.2-14.2,9.9-16.3,19.1c-0.5,1.3-1,2.6-1.8,3.9c-0.4-0.2-0.7-0.6-0.9-1
	c-0.2-1.6-0.3-3.2-0.2-4.8c0-0.4,0.1-0.9,0.3-1.3c0.4-1.4,0.7-2.9,0.8-4.4c0.1-0.4,0.3-0.9,0.5-1.3c0.9-1.7,1.1-3.6,1.8-5.3
	c3-5.2,7.8-7.6,13.4-6.8C124.1,109.3,125.3,109.5,125.3,111.1z"/>
<path class="st1" d="M106.9,133.1l0.3,1c-0.8,2.7,1.3,5,0.6,7.6c-3.9-8.7-4-17.4,0.5-26.1c4.3-8.3,13.7-10.1,21.4-3.8l-4.5-0.6
	c-6.6-2.4-11.5-0.5-15.3,6c-0.6,1.7-1.1,3.4-1.8,5.1l0.1-0.1c-1.4,1.5,0.1,3.6-1.1,5.1l0.1-0.1C106.1,129.1,106.5,131.1,106.9,133.1
	z"/>
<path class="st1" d="M241,69.1l-2,4.3C238.1,71.3,239.1,69.9,241,69.1z"/>
<path class="st15" d="M153,133.1l1.1,1.1c-0.6,1-1.2,2.1-2.7,1.4c-0.4-0.2-0.8-0.8-0.7-1.1C150.9,133.3,152,133.2,153,133.1z"/>
<path class="st48" d="M311,113.1c-14.1-6.9-29.7-7.2-44.6-10.7c-1.4-0.3-3.3,0-3.9-1.7c-0.6-2,1.3-3,2.5-3.9
	c8.2-6.8,18.2-9.2,28.2-11.5c5-1.1,10.1-1.7,15.1-2.7c2.9-0.6,4-0.3,3.2,3.2c-2,8.4-2.2,17-0.5,25.5C311,111.7,311,112.4,311,113.1z
	"/>
<path class="st49" d="M212.1,4.1c3.9,6.2,5.1,13.2,5.8,20.2c0.3,3,2.9,7,0.5,8.8c-1.6,1.2-5.6-1.5-8.6-1.7c-3.2-0.2-3.8-1.7-3.7-4.4
	c0.1-5.6,0-11.2,0-16.9C207.2,4.5,207.9,3.9,212.1,4.1z"/>
<path class="st21" d="M257,319.2c1.7,1.5,3.8,2.5,6,3l5.1,3.9c-4.9-1.1-9.3-2.9-14-4c-10.9-2.6-20.3,0.8-29.3,6.6
	c-1.2,0.8-2.4,3.9-4.8,1.5c4-5.6,9.6-9.9,16.1-12.2C243,315.8,250.4,316.3,257,319.2z"/>
<path class="st11" d="M216.1,273.1c-2.6,6.2-6.8,11.3-11.4,16c-3.2,3.2-6.5,1.4-9.4-0.6c-2.1-1.3-3.9-3.2-5.1-5.4
	c0.2,0,0.3,0,0.5,0.1c9.9,4.8,14.4,3.7,21.1-5.4C212.9,275.9,214.1,274.2,216.1,273.1z"/>
<path class="st21" d="M161.1,284.1c-0.5-7.9,5.8-10.6,11.1-13.7c2.4-1.4,5.5-2.8,8.8-2.1c-2.4,3.1-6.3,3.7-9.3,5.9
	C167.8,277,164.2,280.3,161.1,284.1z"/>
<path class="st21" d="M202.1,257c0.5-5.2,4.4-7.9,8-10.8c2.2,0.2,4.6-1,7,1.7C209.5,247.3,207.1,254.1,202.1,257z"/>
<path class="st50" d="M174.1,291.1c-0.7,3.5-2.9,3.3-5.5,2.2c-3.1-1.4-3.3-3.6-1.6-6.3C167.7,291.3,171,291.2,174.1,291.1z"/>
<path class="st4" d="M213.1,333.2c0,0.8-0.4,1.5-1.1,1.9c-4.7,2.2-10.1,2.3-14.9,0.1l-0.1-2L213.1,333.2z"/>
<path class="st51" d="M133.1,78.1c0.2,7.4-1.8,12.6-6.3,16.9s-9.7,3-11.7-3c-2.6-7.8,0.1-14.6,4.6-20.8c1.9-2.9,5.6-4,8.7-2.8
	c3.2,1.3,5.1,4.5,4.7,7.9C133.1,76.9,133.1,77.5,133.1,78.1z"/>
<path class="st48" d="M261.5,121.9c7.3-3.4,15.5-4.7,23.5-3.6c6,0.7,12.1,1,18.1,2.5c3.2,0.8,3.4,1.7,1.6,4.3
	c-3.4,4.9-6.5,10-9.7,15c-0.7,1.1-1.4,2.6-3,0.9C283.9,132.3,274.1,126.2,261.5,121.9z"/>
<path class="st6" d="M192,326.9c-2.2-1.3-4.5-0.8-6.8-0.8c-0.1-0.1-0.4-0.2-0.4-0.3c0.2-2.7,0.1-7.1,2.8-6.9
	C191,319.2,191.1,323.9,192,326.9z"/>
<path class="st52" d="M47.6,156c9.4,2.5,17.9,5.9,26.5,9.2c1.6,0.6,2.3,2,0.3,2.6c-9,2.5-16.4,8.5-25.7,11.3c0.6-3.7,2.8-5.9,5.9-9
	c-6.3,0.4-11.4,1.8-18,0.4c5.7-1.4,10.2-2.4,14.6-3.6c1.2-0.3,3-0.8,3.4-1.6c0.7-1.6-1.4-1.8-2.3-2.6
	C50.4,160.9,48.1,159.4,47.6,156z"/>
<path class="st5" d="M176.1,298.3l2.1,1c1,1.2,1.9,1,2.9,0h2.1c-0.2,0.8-0.5,1.5-0.8,2.3c-0.9,1.6-1.1,4.2-3.8,3.4
	c-2.3-0.6-2.4-2.8-2.4-4.7C176.1,299.6,176.1,298.9,176.1,298.3z"/>
<path class="st12" d="M197.2,335.2l14.9-0.1c-4.3,6-7.9,12.6-14.4,17.4C197.9,346.3,199.1,340.7,197.2,335.2z"/>
<path class="st15" d="M257,319.2c-6.9-1.4-13.8-2.7-20.9-1.2C243.2,315.5,250.3,314.4,257,319.2z"/>
<path class="st53" d="M173.1,296.2c0.1,2.4-0.8,4.4-2.3,6.5c-2.6-2.1-2.9-4.9-3.6-7.5L173.1,296.2z"/>
<path class="st54" d="M164.2,292c-0.5,1-1.2,2.2-2.4,1.5s-0.6-2.3-0.7-3.5L164.2,292z"/>
<path class="st6" d="M181,299.3c0.1,1.3-0.5,2.5-1.7,2.5c-1.7,0.1-1.1-1.5-1.2-2.5H181z"/>
<path class="st14" d="M159.1,101.1c-0.1-11.1,3-20.9,10.8-29.3c11.5-12.4,24.1-8.3,31.1,4.2c8.4,15,5.6,37.4-6.6,49.6
	c-1.3,1.6-3.5,2.2-5.4,1.6c-6.2-1.3-12.3-3.2-18.7-1.1c-2.4,0.8-3.9-0.9-5.1-2.8C160.5,116.1,159.1,111.3,159.1,101.1z"/>
<path class="st38" d="M122.1,132.2c0.1,0.8-0.1,1.7-0.5,2.4c-1.8,2.5-4.1,6-7.3,4.9c-2.6-0.9-1.3-4.6-0.8-7.1
	c0.7-3.4,0.7-6.9,2.4-10c0.7-1.2,1.3-2.7,2.7-2.6s1.3,1.7,1.7,2.8C121.2,125.4,122.2,128.2,122.1,132.2z"/>
<path class="st55" d="M126.2,128.1l-2.6-9.3C129.5,119.1,130.1,120.8,126.2,128.1z"/>
<path class="st7" d="M108.1,122.2c-0.2-1.9,0.5-3.7,1.8-5.1C110.3,119,109.6,121,108.1,122.2z"/>
<path class="st7" d="M106.9,133.1c-1.2-2.1-1.5-4.1,0.2-6L106.9,133.1z"/>
<path class="st7" d="M107.1,127.2c0.3-1.7-0.8-3.7,1.1-5.1C107.6,123.7,109,125.8,107.1,127.2z"/>
<path class="st56" d="M129.9,75.1c2.4,6.3,0.1,11.4-3.6,16.4c-1.7,2.3-4.2,2-6.4,1.5c-2.3-0.6-3.2-2.7-2.9-5.2
	c0.3-2.9-0.9-6,1.2-8.7C122.1,77.6,126.7,78.4,129.9,75.1z"/>
<path class="st14" d="M129.9,75.1c-1.7,3.9-6.5,5.5-11.7,4c-0.4-3.6,2.1-6.2,4-8.4C124.7,68,128.7,70.4,129.9,75.1z"/>
<path class="st57" d="M196.1,100.9c-0.2,6.9-1.5,13.3-7.9,17.6c-6.1,4.2-11.6,3.5-16.9-2c-7.1-7.2-7.1-23.6-0.1-31.4
	c5.4-6.1,17.3-5.8,21.9,3.1C195.3,92.3,196.6,96.3,196.1,100.9z"/>
<path class="st14" d="M168.1,97c-0.4-1.2,0.6-1.9,1-2.8c2.1-1.9,2.1-5.1,4.1-7.1l1.9-1.9c3.6-1.4,7.2-2.4,10.3,1.2
	c3.7,8.6,0.3,13.7-8.8,12.8c-2.2-0.2-4,1.5-6.2,0.7C168.7,99.7,168.8,98.1,168.1,97z"/>
<path class="st15" d="M185.1,87.3c-2.8-3.2-6.5-2.1-10-2c2.5-2.9,6.7-3.6,10-1.6c5.6,2.9,8.5,7.8,9,14c0.6,7.9-0.4,15.5-8.1,20
	c-4.9,2.9-10.2,1.4-13.7-3.1c-4.1-5.3-4.6-11.2-4.1-17.5l1.9,2.3c1.5,1.4,1.1,3.4,1.4,5.2c0.9,5.8,5.5,10.3,10.1,10
	s8.8-5.3,9.2-10.9C191.3,97.3,190.1,91.6,185.1,87.3z"/>
<path class="st15" d="M173.2,87.1c-1.2,2.5-0.4,6.1-4.1,7.1C169.8,91.4,170.5,88.7,173.2,87.1z"/>
<path class="st56" d="M185.1,87.3c0.2,0,0.4-0.1,0.5-0.1c7.3,3.5,6.6,10.3,6.5,16.6c0.1,4.9-2.9,9.4-7.5,11.3
	c-6.2,2.7-13.8-2.9-14.4-10.3c-0.1-1.8,0-3.7,0-5.5c3.1-0.3,5.9-1.4,9.4-0.5c4.2,1,7.1-4.4,5.8-9C185.1,88.9,185.1,88.1,185.1,87.3z
	"/>
</svg>
