<?xml version="1.0" encoding="utf-8"?>
<!-- Generator: Adobe Illustrator 24.0.2, SVG Export Plug-In . SVG Version: 6.00 Build 0)  -->
<svg version="1.1" id="Layer_1" xmlns="http://www.w3.org/2000/svg" xmlns:xlink="http://www.w3.org/1999/xlink" x="0px" y="0px"
	 viewBox="0 0 246 261" style="enable-background:new 0 0 246 261;" xml:space="preserve">
<style type="text/css">
	.st0{clip-path:url(#SVGID_2_);}
	.st1{fill:#7289DA;}
</style>
<title>Artboard 1</title>
<g>
	<defs>
		<rect id="SVGID_1_" width="246" height="261"/>
	</defs>
	<clipPath id="SVGID_2_">
		<use xlink:href="#SVGID_1_"  style="overflow:visible;"/>
	</clipPath>
	<g class="st0">
		<path class="st1" d="M143.9,116.5c-6.8,0-12.1,5.8-12.1,13.1c0,7.3,5.5,13.1,12.1,13.1c6.7,0,12.1-5.8,12.1-13.1
			C156,122.4,150.5,116.5,143.9,116.5z M100.5,116.5c-6.8,0-12.1,5.8-12.1,13.1c0,7.3,5.5,13.1,12.1,13.1c6.7,0,12.1-5.8,12.1-13.1
			C112.6,122.4,107.3,116.5,100.5,116.5z"/>
		<path class="st1" d="M201.6,17.6H42.4C28.9,17.7,18,28.6,18,42v159.3c0,13.4,10.9,24.3,24.4,24.4h134.8l-6.3-21.8l15.2,14
			l14.4,13.2l25.7,22.2V42C226,28.6,215.1,17.7,201.6,17.6z M155.8,171.6c0,0-4.3-5.1-7.8-9.5c15.6-4.4,21.5-14,21.5-14
			c-4.3,2.8-8.9,5.2-13.7,7c-5.5,2.3-11.3,4-17.2,5.1c-10.2,1.9-20.6,1.8-30.8-0.1c-6-1.1-11.8-2.8-17.5-5.1c-3-1.1-5.9-2.5-8.7-4
			c-0.4-0.2-0.7-0.4-1.1-0.6c-0.4-0.2-0.4-0.2-0.5-0.2c-2.1-1.2-3.3-2-3.3-2s5.7,9.4,20.8,13.9c-3.6,4.5-8,9.7-8,9.7
			c-26.3-0.8-36.3-17.9-36.3-17.9c0-37.9,17.1-68.7,17.1-68.7c17.1-12.7,33.3-12.4,33.3-12.4l1.2,1.4c-21.4,6.1-31.1,15.5-31.1,15.5
			s2.6-1.4,7-3.3c8.6-3.8,17.7-6.4,27-7.5c0.7-0.1,1.3-0.2,2-0.2c8-1,16-1.1,24-0.2c12.5,1.4,24.7,5.3,35.8,11.3
			c0,0-9.4-8.9-29.6-15l1.7-1.9c0,0,16.3-0.4,33.3,12.4c0,0,17.1,30.8,17.1,68.7C192,153.6,182,170.7,155.8,171.6z M335.3,68.5
			h-39.5v44.3l26.3,23.7v-43h14c8.9,0,13.3,4.3,13.3,11.2v32.9c0,6.9-4.2,11.5-13.3,11.5h-40.4v25.1h39.5c21.2,0.1,41-10.5,41-34.7
			v-35.4C376.3,79.3,356.4,68.5,335.3,68.5z M542.1,139.5v-36.4c0-13.1,23.5-16,30.7-3l21.8-8.8c-8.6-18.8-24.1-24.2-37.1-24.2
			c-21.2,0-42.1,12.2-42.1,36v36.4c0,24,20.9,36,41.6,36c16.1,0,30.9-9.2,38-23.7l-23.3-10.7C566,155.8,542.1,152.2,542.1,139.5
			L542.1,139.5z M470.2,108.1c-8.2-1.8-13.7-4.8-14-9.9c0.5-12.2,19.4-12.7,30.4-1L504,83.9C493.1,70.5,480.7,67,468,67
			c-19.4,0-38.2,10.9-38.2,31.6c0,20.1,15.5,30.9,32.5,33.5c8.7,1.2,18.3,4.6,18.1,10.6c-0.7,11.3-24,10.7-34.6-2.1l-16.9,15.8
			c9.9,12.7,23.3,19.1,35.9,19.1c19.4,0,40.9-11.2,41.7-31.6C507.7,118.1,489,111.5,470.2,108.1L470.2,108.1z M390.5,174.1h26.6
			V68.5h-26.6V174.1z M839.5,68.5H800v44.3l26.3,23.7v-43h14c8.9,0,13.3,4.3,13.3,11.2v32.9c0,6.9-4.2,11.5-13.3,11.5h-40.4v25.1
			h39.6c21.2,0.1,41-10.5,41-34.7v-35.4C880.5,79.3,860.6,68.5,839.5,68.5z M645.9,67.1c-21.9,0-43.6,11.9-43.6,36.3v36
			c0,24.1,21.9,36.3,43.9,36.3s43.6-12.1,43.6-36.3v-36C689.7,79.1,667.7,67.1,645.9,67.1z M663,139.4c0,7.6-8.6,11.5-17,11.5
			c-8.4,0-17.1-3.7-17.1-11.5v-36c0-7.7,8.3-11.9,16.6-11.9c8.7,0,17.5,3.7,17.5,11.9V139.4z M785.3,103.3
			c-0.6-24.7-17.5-34.7-39.2-34.7h-42.2v105.6h27v-33.5h4.8l24.5,33.5h33.3l-28.8-36.3C777.3,133.9,785.3,122.8,785.3,103.3z
			 M746.5,117.6h-15.7V93.5h15.7C763.3,93.5,763.3,117.6,746.5,117.6L746.5,117.6z"/>
	</g>
</g>
</svg>
