<svg xmlns="http://www.w3.org/2000/svg" xmlns:xlink="http://www.w3.org/1999/xlink" version="1.1" x="0px" y="0px" viewBox="0 0 100 125" enable-background="new 0 0 100 100" xml:space="preserve" style="fill: green;"><path d="M49.946,1.876c26.299,0,47.619,21.32,47.619,47.619c0,26.3-21.319,47.619-47.619,47.619  c-26.299,0-47.619-21.319-47.619-47.619C2.327,23.196,23.647,1.876,49.946,1.876z M24.739,59.818  c5.94,4.521,11.883,9.046,17.825,13.566c2.849,2.17,6.864,0.316,8.59-2.255c8.265-12.276,16.529-24.558,24.793-36.838  c4.539-6.742-6.35-13.019-10.846-6.34c-6.961,10.341-13.918,20.683-20.877,31.023c0,0-7.204-5.482-13.145-10.005  c-2.732-2.078-7.021-0.429-8.594,2.254C20.597,54.451,22.021,57.752,24.739,59.818L24.739,59.818z"/></svg>